<?xml version="1.0" standalone="no"?>
<!DOCTYPE svg PUBLIC "-//W3C//DTD SVG 1.1//EN" "http://www.w3.org/Graphics/SVG/1.1/DTD/svg11.dtd" >
<svg xmlns="http://www.w3.org/2000/svg" xmlns:xlink="http://www.w3.org/1999/xlink" version="1.1">
<metadata>
Created by FontForge 20161013 at Tue May 13 23:42:11 2014
 By ,,,
Copyright 2014 Dalton Maag Ltd. Modification of this file requires prior written permission from Dalton Maag Ltd.
</metadata>
<defs>
<font id="AmazonEmber-Italic" horiz-adv-x="586" >
  <font-face 
    font-family="Amazon Ember"
    font-weight="400"
    font-style="italic"
    font-stretch="normal"
    units-per-em="1000"
    panose-1="2 11 6 3 2 2 4 9 2 4"
    ascent="800"
    descent="-200"
    x-height="507"
    cap-height="693"
    bbox="-284 -281 1278 974"
    underline-thickness="80"
    underline-position="-229"
    slope="-11.02"
    unicode-range="U+0008-FFFD"
  />
<missing-glyph horiz-adv-x="500" 
d="M50 0v750h400v-750h-400zM400 700h-300v-650h300v650z" />
    <glyph glyph-name="ff" unicode="ff" horiz-adv-x="695" 
d="M62 0l84 431h-93l12 62l95 12l16 82q33 167 185 167q23 0 47 -5.5t41 -14.5l-14 -70q-33 10 -69 10q-41 0 -62.5 -18.5t-29.5 -60.5l-17 -88h221l15 80q33 167 185 167q25 0 52 -6t45 -16l-14 -70q-39 12 -78 12q-41 0 -62.5 -18.5t-29.5 -60.5l-17 -88h156l-15 -76h-156
l-84 -431h-96l84 431h-221l-84 -431h-96z" />
    <glyph glyph-name="fi" unicode="fi" horiz-adv-x="601" 
d="M385 0l84 431h-227l-84 -431h-96l84 431h-93l12 62l95 12l16 82q33 167 185 167q23 0 47 -5.5t41 -14.5l-14 -70q-33 10 -69 10q-41 0 -62.5 -18.5t-29.5 -60.5l-17 -88h323l-99 -507h-96zM552 605q-27 0 -41 13.5t-14 37.5q0 29 20.5 49t50.5 20q27 0 41 -13.5t14 -37.5
q0 -29 -20.5 -49t-50.5 -20z" />
    <glyph glyph-name="fl" unicode="fl" horiz-adv-x="634" 
d="M62 0l84 431h-93l12 62l95 12l16 82q33 167 185 167q23 0 47 -5.5t41 -14.5l-14 -70q-33 10 -69 10q-41 0 -62.5 -18.5t-29.5 -60.5l-17 -88h146l-15 -76h-146l-84 -431h-96zM592 20q-44 -25 -96 -25q-46 0 -71 24.5t-25 70.5q0 31 11 83l110 567h96l-110 -567
q-10 -51 -10 -70q0 -15 9.5 -23.5t26.5 -8.5q21 0 39 6z" />
    <glyph glyph-name="ffi" unicode="ffi" horiz-adv-x="918" 
d="M379 0l84 431h-221l-84 -431h-96l84 431h-93l12 62l95 12l16 82q33 167 185 167q23 0 47 -5.5t41 -14.5l-14 -70q-33 10 -69 10q-41 0 -62.5 -18.5t-29.5 -60.5l-17 -88h221l15 80q15 83 62 125t123 42q23 0 47 -5.5t41 -14.5l-14 -70q-33 10 -69 10q-41 0 -62.5 -18.5
t-29.5 -60.5l-17 -88h317l-99 -507h-96l84 431h-221l-84 -431h-96zM863 605q-27 0 -41 13.5t-14 37.5q0 29 20.5 49t50.5 20q27 0 41 -13.5t14 -37.5q0 -29 -20.5 -49t-50.5 -20z" />
    <glyph glyph-name="ffl" unicode="ffl" horiz-adv-x="951" 
d="M62 0l84 431h-93l12 62l95 12l16 82q33 167 185 167q23 0 47 -5.5t41 -14.5l-14 -70q-33 10 -69 10q-41 0 -62.5 -18.5t-29.5 -60.5l-17 -88h221l15 80q15 83 62 125t123 42q23 0 47 -5.5t41 -14.5l-14 -70q-33 10 -69 10q-41 0 -62.5 -18.5t-29.5 -60.5l-17 -88h146
l-15 -76h-146l-84 -431h-96l84 431h-221l-84 -431h-96zM909 20q-44 -25 -96 -25q-46 0 -71 24.5t-25 70.5q0 31 11 83l110 567h96l-110 -567q-10 -51 -10 -70q0 -15 9.5 -23.5t26.5 -8.5q21 0 39 6z" />
    <glyph glyph-name=".notdef" horiz-adv-x="500" 
d="M50 0v750h400v-750h-400zM400 700h-300v-650h300v650z" />
    <glyph glyph-name=".null" horiz-adv-x="0" 
 />
    <glyph glyph-name=".null" horiz-adv-x="0" 
 />
    <glyph glyph-name=".null" horiz-adv-x="0" 
 />
    <glyph glyph-name="nonmarkingreturn" unicode="&#x9;" horiz-adv-x="262" 
 />
    <glyph glyph-name="nonmarkingreturn" unicode="&#xd;" horiz-adv-x="262" 
 />
    <glyph glyph-name="space" unicode=" " horiz-adv-x="262" 
 />
    <glyph glyph-name="exclam" unicode="!" horiz-adv-x="255" 
d="M80 210l80 483q28 13 56 13q26 0 50 -13l-108 -483h-78zM85 -10q-28 0 -43.5 15t-15.5 41q0 31 21.5 53.5t52.5 22.5q28 0 43.5 -15t15.5 -41q0 -31 -21.5 -53.5t-52.5 -22.5z" />
    <glyph glyph-name="quotedbl" unicode="&#x22;" horiz-adv-x="384" 
d="M99 449l39 242q26 13 52 13q24 0 45 -13l-67 -242h-69zM274 449l39 242q26 13 52 13q24 0 45 -13l-67 -242h-69z" />
    <glyph glyph-name="numbersign" unicode="#" 
d="M43 0l64 184h-87l13 69h98l67 191h-98l13 69h109l63 180h74l-63 -180h146l63 180h74l-63 -180h82l-13 -69h-93l-67 -191h93l-13 -69h-104l-64 -184h-74l64 184h-146l-64 -184h-74zM205 253h146l67 191h-146z" />
    <glyph glyph-name="dollar" unicode="$" 
d="M182 -130l24 125q-48 6 -92.5 23.5t-80.5 44.5l16 75q51 -32 91 -48t80 -21l49 250l-31 15q-64 30 -95 70.5t-31 95.5q0 53 28.5 97.5t80 71.5t116.5 27h4l24 121h64l-25 -127q76 -13 139 -58l-15 -72q-75 45 -138 56l-48 -246l32 -15q70 -33 100.5 -69.5t30.5 -86.5
q0 -92 -64.5 -148.5t-171.5 -59.5l-23 -121h-64zM419 192q0 31 -21 54t-71 46l-43 -225q63 3 99 36.5t36 88.5zM197 505q0 -36 19.5 -60.5t67.5 -47.5l43 224q-56 0 -93 -32.5t-37 -83.5z" />
    <glyph glyph-name="percent" unicode="%" horiz-adv-x="940" 
d="M220 0l452 693h85l-452 -693h-85zM697 -10q-64 0 -99.5 37.5t-35.5 105.5q0 77 24 137t68.5 95t103.5 35q64 0 99.5 -37.5t35.5 -105.5q0 -77 -24 -137t-68.5 -95t-103.5 -35zM705 50q48 0 79.5 56.5t31.5 143.5q0 44 -17 67t-49 23q-48 0 -79.5 -56.5t-31.5 -143.5
q0 -44 17 -67t49 -23zM219 293q-64 0 -99.5 37.5t-35.5 105.5q0 77 24 137t68.5 95t103.5 35q64 0 99.5 -37.5t35.5 -105.5q0 -77 -24 -137t-68.5 -95t-103.5 -35zM227 353q48 0 79.5 56.5t31.5 143.5q0 44 -17 67t-49 23q-48 0 -79.5 -56.5t-31.5 -143.5q0 -44 17 -67
t49 -23z" />
    <glyph glyph-name="ampersand" unicode="&#x26;" horiz-adv-x="714" 
d="M654 18q-18 -12 -42 -18.5t-50 -6.5q-66 0 -113 51q-89 -59 -196 -59q-94 0 -153 50.5t-59 130.5q0 71 46.5 127t134.5 90l3 1q-53 83 -53 153q0 46 24.5 85t70 62.5t101.5 23.5q74 0 120.5 -38.5t46.5 -100.5q0 -61 -46 -113t-130 -86l-21 -8l134 -208q66 83 87 230h83
q-26 -179 -131 -287q13 -14 31 -20.5t44 -6.5q20 0 48 7zM267 62q83 0 142 37l-150 233q-60 -22 -93.5 -61.5t-33.5 -89.5q0 -54 37 -86.5t98 -32.5zM258 537q0 -50 47 -125l29 12q54 22 85 58t31 78q0 36 -23.5 57.5t-63.5 21.5q-45 0 -75 -29t-30 -73z" />
    <glyph glyph-name="quotesingle" unicode="'" horiz-adv-x="209" 
d="M99 449l39 242q26 13 52 13q24 0 45 -13l-67 -242h-69z" />
    <glyph glyph-name="parenleft" unicode="(" horiz-adv-x="302" 
d="M118 -144q-31 66 -47.5 147.5t-16.5 165.5q0 157 60.5 307t174.5 278h93q-110 -128 -169 -278.5t-59 -303.5q0 -186 53 -316h-89z" />
    <glyph glyph-name="parenright" unicode=")" horiz-adv-x="302" 
d="M207 754q31 -66 47.5 -147.5t16.5 -165.5q0 -157 -60.5 -307t-174.5 -278h-93q110 128 169 278.5t59 303.5q0 186 -53 316h89z" />
    <glyph glyph-name="asterisk" unicode="*" horiz-adv-x="376" 
d="M132 359q-20 3 -34.5 15t-21.5 31l112 107l-110 24q0 43 39 75l97 -51l12 127q21 9 43 9q19 0 39 -9l-38 -128l118 52q16 -22 16 -47q0 -14 -6 -28l-122 -27l72 -103q-14 -20 -33 -32.5t-39 -14.5l-48 123z" />
    <glyph glyph-name="plus" unicode="+" 
d="M345 309l-37 -192h-85l37 192h-183l15 78h183l37 192h85l-37 -192h183l-15 -78h-183z" />
    <glyph glyph-name="comma" unicode="," horiz-adv-x="245" 
d="M-40 -153l102 269h46q25 0 36 -7.5t11 -23.5q0 -10 -4.5 -23t-19.5 -39l-104 -176h-67z" />
    <glyph glyph-name="hyphen" unicode="-" horiz-adv-x="395" 
d="M40 218l16 82h307l-16 -82h-307z" />
    <glyph glyph-name="period" unicode="." horiz-adv-x="245" 
d="M80 -10q-28 0 -43.5 15t-15.5 41q0 31 21.5 53.5t52.5 22.5q28 0 43.5 -15t15.5 -41q0 -31 -21.5 -53.5t-52.5 -22.5z" />
    <glyph glyph-name="slash" unicode="/" horiz-adv-x="451" 
d="M-48 -144l502 898h99l-502 -898h-99z" />
    <glyph glyph-name="zero" unicode="0" 
d="M265 67q57 0 103.5 49t74.5 139t28 204q0 167 -115 167q-57 0 -103.5 -49t-74.5 -139t-28 -204q0 -167 115 -167zM258 -15q-99 0 -152.5 63.5t-53.5 181.5q0 134 38.5 242t109.5 172t163 64q99 0 152.5 -63.5t53.5 -181.5q0 -134 -38.5 -242t-109.5 -172t-163 -64z" />
    <glyph glyph-name="one" unicode="1" 
d="M242 0l114 592l-201 -74l16 82l215 93h87l-134 -693h-97z" />
    <glyph glyph-name="two" unicode="2" 
d="M29 0l15 76q199 174 275 249.5t103.5 120.5t27.5 85q0 44 -29 68.5t-80 24.5q-44 0 -89.5 -17.5t-101.5 -56.5l-18 70q101 88 227 88q87 0 139.5 -45.5t52.5 -123.5q0 -58 -35.5 -116t-116.5 -135t-238 -206h337l-16 -82h-453z" />
    <glyph glyph-name="three" unicode="3" 
d="M50 107q94 -41 174 -41q78 0 125 41.5t47 111.5q0 53 -36 80.5t-107 27.5q-35 0 -72 -5l13 65l242 226h-287l16 80h398l-15 -77l-244 -223h6q83 0 133.5 -46t50.5 -121q0 -68 -34 -122.5t-97 -86.5t-144 -32q-49 0 -98.5 13t-85.5 35z" />
    <glyph glyph-name="four" unicode="4" 
d="M309 0l29 149h-319l15 77l404 467h93l-90 -465h103l-15 -79h-103l-29 -149h-88zM353 228l66 337l-292 -337h226z" />
    <glyph glyph-name="five" unicode="5" 
d="M55 107q94 -41 175 -41q79 0 128 42.5t49 115.5q0 61 -35.5 89t-112.5 28q-54 0 -138 -11l10 56l75 307h359l-16 -82h-276l-49 -202q48 10 87 10q90 0 142.5 -50.5t52.5 -134.5q0 -71 -34.5 -127t-99.5 -89t-148 -33q-49 0 -98.5 13t-85.5 35z" />
    <glyph glyph-name="six" unicode="6" 
d="M560 599q-70 29 -130 29q-99 0 -166.5 -68.5t-90.5 -190.5q43 23 92 36t92 13q84 0 132.5 -47.5t48.5 -130.5q0 -69 -31.5 -127t-89.5 -93t-132 -35q-104 0 -161 69t-57 195q0 129 44.5 233t126.5 165t189 61q88 0 147 -35zM320 342q-35 0 -76 -10.5t-80 -28.5
q-1 -13 -1 -25.5v-25.5q0 -92 33.5 -139.5t98.5 -47.5q63 0 104.5 46.5t41.5 117.5q0 58 -29.5 85.5t-91.5 27.5z" />
    <glyph glyph-name="seven" unicode="7" 
d="M87 0l392 611h-360l16 82h462l-15 -77l-389 -616h-106z" />
    <glyph glyph-name="eight" unicode="8" 
d="M569 553q0 -66 -41 -117t-118 -79q61 -34 89.5 -75.5t28.5 -95.5q0 -56 -32.5 -101.5t-92.5 -72.5t-137 -27q-105 0 -163 44.5t-58 126.5q0 71 46 126t133 86q-85 55 -85 145q0 52 30 96.5t84.5 71.5t122.5 27q88 0 140.5 -42t52.5 -113zM293 331l-3 -1
q-148 -46 -148 -163q0 -48 36 -76t97 -28q68 0 112.5 34t44.5 84q0 79 -110 135zM233 515q0 -70 88 -113l21 -11l7 3q61 21 93.5 59.5t32.5 86.5q0 44 -29 69t-79 25q-57 0 -95.5 -34t-38.5 -85z" />
    <glyph glyph-name="nine" unicode="9" 
d="M209 66q87 0 148.5 60t86.5 170q-37 -19 -79 -30t-80 -11q-89 0 -141.5 54t-52.5 144q0 70 31 127.5t88 92.5t129 35q103 0 160.5 -70t57.5 -196q0 -132 -42.5 -235.5t-122 -162.5t-185.5 -59q-92 0 -156 45l14 74q79 -38 144 -38zM318 331q65 0 137 32q5 43 5 83
q0 182 -130 182q-39 0 -71 -21t-51 -59t-19 -89q0 -62 33 -95t96 -33z" />
    <glyph glyph-name="colon" unicode=":" horiz-adv-x="245" 
d="M80 -10q-28 0 -43.5 15t-15.5 41q0 31 21.5 53.5t52.5 22.5q28 0 43.5 -15t15.5 -41q0 -31 -21.5 -53.5t-52.5 -22.5zM157 385q-28 0 -43.5 15t-15.5 41q0 31 21.5 53.5t52.5 22.5q28 0 43.5 -15t15.5 -41q0 -31 -21.5 -53.5t-52.5 -22.5z" />
    <glyph glyph-name="semicolon" unicode=";" horiz-adv-x="245" 
d="M-40 -153l102 269h46q25 0 36 -7.5t11 -23.5q0 -10 -4.5 -23t-19.5 -39l-104 -176h-67zM157 385q-28 0 -43.5 15t-15.5 41q0 31 21.5 53.5t52.5 22.5q28 0 43.5 -15t15.5 -41q0 -31 -21.5 -53.5t-52.5 -22.5z" />
    <glyph glyph-name="less" unicode="&#x3c;" 
d="M84 309l15 80l459 192l-18 -93l-358 -142l303 -143l-17 -86z" />
    <glyph glyph-name="equal" unicode="=" 
d="M56 200l15 78h451l-15 -78h-451zM98 420l15 78h451l-15 -78h-451z" />
    <glyph glyph-name="greater" unicode="&#x3e;" 
d="M541 389l-15 -80l-459 -192l18 93l358 142l-303 143l17 86z" />
    <glyph glyph-name="question" unicode="?" horiz-adv-x="420" 
d="M126 210l23 154l45 21q79 36 116.5 76.5t37.5 86.5q0 38 -25 58t-73 20q-62 0 -132 -39l-16 71q82 50 171 50q78 0 125 -40.5t47 -109.5q0 -142 -216 -232l-24 -116h-79zM137 -10q-28 0 -43.5 15t-15.5 41q0 31 21.5 53.5t52.5 22.5q28 0 43.5 -15t15.5 -41
q0 -31 -21.5 -53.5t-52.5 -22.5z" />
    <glyph glyph-name="at" unicode="@" horiz-adv-x="950" 
d="M571 -179q-88 -39 -195 -39q-157 0 -244 87.5t-87 244.5q0 147 66.5 275t187 208t266.5 80q102 0 179.5 -38t120.5 -110.5t43 -172.5q0 -70 -17.5 -134.5t-51.5 -116.5t-81 -83t-101 -31q-49 0 -77 24.5t-32 71.5q-41 -47 -85 -72.5t-87 -25.5q-58 0 -88.5 35.5
t-30.5 102.5q0 85 38.5 163t106 128t146.5 50q38 0 79.5 -9.5t75.5 -26.5l-59 -240q-13 -51 -13 -85q0 -25 9.5 -36.5t30.5 -11.5q38 0 73.5 38.5t59 106.5t23.5 146q0 125 -68.5 189t-202.5 64q-81 0 -156 -34t-135.5 -99t-97 -155.5t-36.5 -194.5q0 -128 66 -196t190 -68
q85 0 174 27zM404 59q68 0 150 97q3 18 7 32l52 200q-37 12 -69 12q-49 0 -94.5 -34.5t-75 -95.5t-29.5 -132q0 -79 59 -79z" />
    <glyph glyph-name="A" unicode="A" horiz-adv-x="612" 
d="M459 0l-26 185h-272l-97 -185h-104l380 693h108l115 -693h-104zM200 260h224l-47 338z" />
    <glyph glyph-name="B" unicode="B" horiz-adv-x="608" 
d="M43 0l135 693h216q86 0 135.5 -43.5t49.5 -119.5q0 -60 -32 -105t-89 -67q47 -19 72.5 -56t25.5 -86q0 -63 -31.5 -111.5t-90.5 -76.5t-138 -28h-253zM201 319l-47 -244h150q70 0 111 39t41 105q0 46 -27 73t-73 27h-155zM259 618l-44 -228h140q57 0 93 37.5t36 97.5
q0 44 -27.5 68.5t-77.5 24.5h-120z" />
    <glyph glyph-name="C" unicode="C" horiz-adv-x="593" 
d="M539 53q-48 -34 -107 -52t-120 -18q-120 0 -187 73t-67 203q0 118 51 220.5t142.5 166t204.5 63.5q88 0 154 -36l-15 -77q-64 27 -136 27q-82 0 -149.5 -44.5t-107.5 -125.5t-40 -184q0 -97 43 -148t125 -51q42 0 90.5 14.5t94.5 40.5z" />
    <glyph glyph-name="D" unicode="D" horiz-adv-x="699" 
d="M43 0l135 693h218q126 0 199 -72t73 -196q0 -117 -48 -213.5t-136 -154t-199 -57.5h-242zM262 615l-104 -537h124q80 0 144 42t101.5 120t37.5 180q0 92 -46 143.5t-128 51.5h-129z" />
    <glyph glyph-name="E" unicode="E" horiz-adv-x="557" 
d="M43 0l135 693h423l-16 -81h-324l-42 -215h272l-16 -80h-272l-46 -236h324l-15 -81h-423z" />
    <glyph glyph-name="F" unicode="F" horiz-adv-x="522" 
d="M43 0l135 693h403l-16 -81h-304l-44 -225h251l-16 -80h-251l-59 -307h-99z" />
    <glyph glyph-name="G" unicode="G" horiz-adv-x="674" 
d="M349 64q60 0 126 22l39 202h-150l15 79h244l-64 -329q-46 -27 -104.5 -41.5t-119.5 -14.5q-133 0 -205 73.5t-72 209.5q0 86 28 165t81 142t128 100t163 37q53 0 108 -12.5t86 -31.5l-15 -75q-40 16 -88 25.5t-88 9.5q-83 0 -151 -43.5t-108.5 -124t-40.5 -183.5
q0 -210 188 -210z" />
    <glyph glyph-name="H" unicode="H" horiz-adv-x="725" 
d="M481 0l61 314h-339l-61 -314h-99l135 693h99l-58 -298h339l58 298h99l-135 -693h-99z" />
    <glyph glyph-name="I" unicode="I" horiz-adv-x="295" 
d="M47 0l135 693h99l-135 -693h-99z" />
    <glyph glyph-name="J" unicode="J" horiz-adv-x="427" 
d="M325 693h99l-98 -502q-40 -208 -223 -208q-61 0 -130 33l14 76q66 -22 114 -22q55 0 85 31.5t44 102.5z" />
    <glyph glyph-name="K" unicode="K" horiz-adv-x="599" 
d="M43 0l135 693h99l-59 -302l336 302h126l-375 -333l254 -360h-115l-237 336l-65 -336h-99z" />
    <glyph glyph-name="L" unicode="L" horiz-adv-x="518" 
d="M43 0l135 693h99l-119 -611h314l-16 -82h-413z" />
    <glyph glyph-name="M" unicode="M" horiz-adv-x="840" 
d="M600 0l107 549l-259 -371h-86l-116 379l-108 -557h-95l135 693h112l132 -428l297 428h111l-135 -693h-95z" />
    <glyph glyph-name="N" unicode="N" horiz-adv-x="717" 
d="M465 0l-219 557l-108 -557h-95l135 693h107l219 -556l108 556h95l-135 -693h-107z" />
    <glyph glyph-name="O" unicode="O" horiz-adv-x="748" 
d="M337 67q77 0 138.5 44t98 125.5t36.5 186.5q0 94 -47.5 147.5t-129.5 53.5q-76 0 -138 -44t-98.5 -126t-36.5 -187q0 -93 47.5 -146.5t129.5 -53.5zM325 -17q-81 0 -141 33t-93 95t-33 148q0 124 48 226t136.5 162.5t202.5 60.5q123 0 195 -74.5t72 -202.5
q0 -124 -48 -225.5t-136.5 -162t-202.5 -60.5z" />
    <glyph glyph-name="P" unicode="P" horiz-adv-x="593" 
d="M43 0l135 693h201q101 0 157 -48.5t56 -136.5q0 -70 -35 -124t-101 -85t-154 -31h-110l-52 -268h-97zM207 347h99q87 0 137.5 42t50.5 114q0 56 -33.5 83.5t-101.5 27.5h-100z" />
    <glyph glyph-name="Q" unicode="Q" horiz-adv-x="748" 
d="M603 -162q-80 12 -154 49.5t-129 95.5q-121 2 -191.5 76t-70.5 200q0 124 48 226t136.5 162.5t202.5 60.5q123 0 195 -74.5t72 -202.5q0 -107 -36 -198t-104 -154.5t-158 -84.5q82 -56 207 -70zM337 67q77 0 138.5 44t98 125.5t36.5 186.5q0 94 -47.5 147.5t-129.5 53.5
q-76 0 -138 -44t-98.5 -126t-36.5 -187q0 -93 47.5 -146.5t129.5 -53.5z" />
    <glyph glyph-name="R" unicode="R" horiz-adv-x="610" 
d="M442 0l-114 280h-24h-110l-54 -280h-97l135 693h201q101 0 157 -48t56 -134q0 -79 -45.5 -135t-128.5 -80l125 -296h-101zM210 359h101q86 0 134.5 39t48.5 108q0 54 -33 81t-102 27h-100z" />
    <glyph glyph-name="S" unicode="S" horiz-adv-x="541" 
d="M231 326q-72 34 -104 74t-32 98q0 59 31.5 107t89.5 76.5t133 28.5q47 0 92 -12t81 -34l-15 -74q-36 18 -76.5 28t-77.5 10q-74 0 -117 -32t-43 -87q0 -33 21 -57t69 -45l70 -32q71 -32 100.5 -70.5t29.5 -96.5q0 -63 -33 -114t-95 -81t-143 -30q-121 0 -201 51l16 74
q96 -42 186 -42q48 0 86.5 15.5t61.5 44.5t23 67q0 34 -21.5 58.5t-73.5 47.5z" />
    <glyph glyph-name="T" unicode="T" horiz-adv-x="563" 
d="M176 0l119 611h-215l16 82h527l-16 -82h-213l-119 -611h-99z" />
    <glyph glyph-name="U" unicode="U" horiz-adv-x="701" 
d="M599 693h99l-89 -457q-24 -122 -101 -187.5t-196 -65.5q-111 0 -171.5 53t-60.5 149q0 28 4.5 62t16.5 96l68 350h99l-69 -354q-22 -113 -22 -143q0 -62 36.5 -94.5t105.5 -32.5q78 0 126.5 41t63.5 120z" />
    <glyph glyph-name="V" unicode="V" horiz-adv-x="606" 
d="M191 0l-112 693h105l80 -593l310 593h106l-380 -693h-109z" />
    <glyph glyph-name="W" unicode="W" horiz-adv-x="903" 
d="M525 0l-26 549l-236 -549h-110l-61 693h104l34 -580l237 560h112l24 -565l257 585h107l-332 -693h-110z" />
    <glyph glyph-name="X" unicode="X" horiz-adv-x="572" 
d="M419 0l-123 284l-229 -284h-116l305 368l-145 325h106l109 -259l209 259h116l-284 -341l158 -352h-106z" />
    <glyph glyph-name="Y" unicode="Y" horiz-adv-x="551" 
d="M165 0l50 255l-144 438h104l102 -357l244 357h109l-319 -443l-49 -250h-97z" />
    <glyph glyph-name="Z" unicode="Z" horiz-adv-x="551" 
d="M-18 0l14 74l468 538h-343l16 81h459l-14 -74l-468 -538h363l-16 -81h-479z" />
    <glyph glyph-name="bracketleft" unicode="[" horiz-adv-x="341" 
d="M1 -144l175 898h243l-15 -78h-144l-145 -742h144l-15 -78h-243z" />
    <glyph glyph-name="backslash" unicode="\" horiz-adv-x="451" 
d="M256 -144l-150 898h92l150 -898h-92z" />
    <glyph glyph-name="bracketright" unicode="]" horiz-adv-x="341" 
d="M347 754l-175 -898h-243l15 78h144l145 742h-144l15 78h243z" />
    <glyph glyph-name="asciicircum" unicode="^" 
d="M448 303l-80 302l-198 -302h-100l271 390h81l120 -390h-94z" />
    <glyph glyph-name="underscore" unicode="_" horiz-adv-x="500" 
d="M-63 -148l15 78h500l-15 -78h-500z" />
    <glyph glyph-name="grave" unicode="`" horiz-adv-x="579" 
d="M348 601l-95 160h112l62 -160h-79z" />
    <glyph glyph-name="a" unicode="a" horiz-adv-x="548" 
d="M345 0l6 92q-40 -51 -88.5 -79t-98.5 -28q-63 0 -97 44.5t-34 125.5q0 92 40.5 175.5t112 137.5t155.5 54q39 0 88 -11t89 -29l-94 -482h-79zM200 64q75 0 162 109l52 261q-46 11 -74 11q-52 0 -99.5 -36.5t-78.5 -101.5t-31 -141q0 -51 16.5 -76.5t52.5 -25.5z" />
    <glyph glyph-name="b" unicode="b" horiz-adv-x="547" 
d="M204 419q39 50 85 76.5t96 26.5q62 0 95.5 -45.5t33.5 -132.5q0 -95 -38.5 -176.5t-108 -131t-158.5 -49.5q-40 0 -86.5 10.5t-90.5 29.5l139 713h96zM346 443q-71 0 -160 -113l-50 -257q47 -10 76 -10q56 0 102 33.5t74 96t28 138.5q0 112 -70 112z" />
    <glyph glyph-name="c" unicode="c" horiz-adv-x="447" 
d="M213 -15q-83 0 -131.5 49.5t-48.5 135.5q0 90 39 170t108.5 131t152.5 51q31 0 63 -7t55 -19l-14 -72q-49 18 -95 18q-59 0 -106 -32.5t-75 -92t-28 -136.5q0 -62 23.5 -89t76.5 -27q60 0 144 47l26 -61q-41 -32 -90 -49t-100 -17z" />
    <glyph glyph-name="d" unicode="d" horiz-adv-x="548" 
d="M345 0l6 93q-40 -52 -88.5 -80t-98.5 -28q-63 0 -97 44.5t-34 127.5q0 90 39 173t108 137.5t149 54.5q51 0 98 -21l46 239h96l-145 -740h-79zM200 64q37 0 79 28.5t83 81.5l51 260q-39 11 -73 11q-54 0 -101.5 -36t-77.5 -100t-30 -141q0 -53 17 -78.5t52 -25.5z" />
    <glyph glyph-name="e" unicode="e" horiz-adv-x="482" 
d="M415 49q-95 -66 -214 -66q-80 0 -124 48t-44 136q0 68 21.5 131.5t61.5 114t97 81t122 30.5q61 0 96.5 -31t35.5 -84q0 -78 -73 -135t-205 -82l-62 -12q0 -65 23 -93.5t76 -28.5q71 0 163 50zM318 450q-43 0 -81.5 -25t-66.5 -72t-38 -108l61 14q87 20 135.5 57t48.5 84
q0 23 -15.5 36.5t-43.5 13.5z" />
    <glyph glyph-name="f" unicode="f" horiz-adv-x="378" 
d="M62 0l84 431h-93l12 62l95 12l16 82q33 167 185 167q25 0 52 -6t45 -16l-14 -70q-39 12 -78 12q-41 0 -62.5 -18.5t-29.5 -60.5l-17 -88h156l-15 -76h-156l-84 -431h-96z" />
    <glyph glyph-name="g" unicode="g" horiz-adv-x="548" 
d="M350 112q-40 -50 -87.5 -77.5t-94.5 -27.5q-65 0 -100 42.5t-35 120.5q0 88 40 168t110.5 132t155.5 52q40 0 88.5 -11t90.5 -29l-82 -421q-27 -138 -102.5 -208.5t-196.5 -70.5q-81 0 -147 37l15 72q69 -30 133 -30q87 0 135 49.5t69 159.5zM203 85q36 0 78.5 30.5
t86.5 87.5l46 231q-46 11 -76 11q-54 0 -101 -35t-77 -96.5t-30 -133.5q0 -95 73 -95z" />
    <glyph glyph-name="h" unicode="h" horiz-adv-x="579" 
d="M204 416q46 52 95.5 79t98.5 27q62 0 96 -34t34 -98q0 -22 -3.5 -46.5t-13.5 -79.5l-51 -264h-96l51 262q16 79 16 114q0 68 -69 68q-37 0 -83.5 -30t-91.5 -82l-64 -332h-96l144 740h96z" />
    <glyph glyph-name="i" unicode="i" horiz-adv-x="253" 
d="M198 597q-26 0 -40.5 13t-14.5 38q0 29 20.5 49t50.5 20q26 0 40.5 -13t14.5 -38q0 -29 -20.5 -49t-50.5 -20zM31 0l99 507h96l-99 -507h-96z" />
    <glyph glyph-name="j" unicode="j" horiz-adv-x="253" 
d="M-110 -133q29 -8 56 -8q31 0 48 19t26 66l110 563h96l-110 -563q-31 -162 -147 -162q-55 0 -92 21zM198 597q-26 0 -40.5 13t-14.5 38q0 29 20.5 49t50.5 20q26 0 40.5 -13t14.5 -38q0 -29 -20.5 -49t-50.5 -20z" />
    <glyph glyph-name="k" unicode="k" horiz-adv-x="499" 
d="M27 0l144 740h96l-87 -445l232 212h125l-271 -237l199 -270h-112l-182 249l-48 -249h-96z" />
    <glyph glyph-name="l" unicode="l" horiz-adv-x="283" 
d="M242 20q-44 -25 -96 -25q-46 0 -71 24.5t-25 70.5q0 31 11 83l110 567h96l-110 -567q-10 -51 -10 -70q0 -15 9.5 -23.5t26.5 -8.5q21 0 39 6z" />
    <glyph glyph-name="m" unicode="m" horiz-adv-x="886" 
d="M671 0l51 262q16 79 16 114q0 68 -64 68q-35 0 -78.5 -26.5t-85.5 -73.5l-14 -80l-51 -264h-96l51 262q16 79 16 114q0 68 -64 68q-35 0 -78 -29t-85 -80l-66 -335h-96l99 507h79l-5 -93q43 52 91.5 80t96.5 28q55 0 87 -28.5t37 -82.5q44 54 94.5 82.5t103.5 28.5
q60 0 92.5 -34t32.5 -98q0 -22 -3.5 -46.5t-13.5 -79.5l-51 -264h-96z" />
    <glyph glyph-name="n" unicode="n" horiz-adv-x="579" 
d="M364 0l51 262q16 79 16 114q0 68 -69 68q-37 0 -83 -29.5t-90 -81.5l-66 -333h-96l99 507h79l-5 -95q45 53 96.5 81.5t101.5 28.5q62 0 96 -34t34 -98q0 -22 -3.5 -46.5t-13.5 -79.5l-51 -264h-96z" />
    <glyph glyph-name="o" unicode="o" horiz-adv-x="539" 
d="M225 -15q-89 0 -140.5 54t-51.5 147q0 91 35.5 167.5t100 122.5t145.5 46q89 0 140.5 -54t51.5 -147q0 -91 -35.5 -167.5t-100 -122.5t-145.5 -46zM233 63q49 0 88.5 31.5t63 89.5t23.5 132q0 61 -26.5 94.5t-75.5 33.5t-88.5 -31.5t-63 -89.5t-23.5 -132
q0 -61 26.5 -94.5t75.5 -33.5z" />
    <glyph glyph-name="p" unicode="p" horiz-adv-x="547" 
d="M-13 -206l139 713h79l-6 -94q86 109 186 109q63 0 96 -46t33 -131q0 -97 -37.5 -179t-105.5 -131.5t-153 -49.5q-49 0 -95 20l-41 -211h-95zM346 443q-70 0 -159 -111l-51 -261q40 -10 77 -10q56 0 102 34t73.5 96.5t27.5 141.5q0 110 -70 110z" />
    <glyph glyph-name="q" unicode="q" horiz-adv-x="548" 
d="M289 -206l57 293q-42 -50 -88.5 -76t-93.5 -26q-63 0 -97 44.5t-34 125.5q0 92 40.5 175.5t112 137.5t155.5 54q39 0 88 -11t89 -29l-134 -688h-95zM200 64q75 0 163 111l51 259q-46 11 -74 11q-52 0 -99.5 -36.5t-78.5 -101.5t-31 -141q0 -51 16.5 -76.5t52.5 -25.5z
" />
    <glyph glyph-name="r" unicode="r" horiz-adv-x="369" 
d="M27 0l99 507h79l-6 -98q71 102 163 102q22 0 41 -4l-17 -89q-30 4 -45 4q-85 0 -152 -85l-66 -337h-96z" />
    <glyph glyph-name="s" unicode="s" horiz-adv-x="430" 
d="M165 236q-47 26 -69 56.5t-22 71.5q0 44 23.5 80t67 57t100.5 21q82 0 143 -33l-13 -69q-29 13 -63.5 20t-65.5 7q-47 0 -73 -19.5t-26 -53.5q0 -39 56 -69l60 -34q48 -26 68.5 -54t20.5 -69q0 -74 -54 -118.5t-144 -44.5q-46 0 -91.5 10t-77.5 28l14 70q33 -15 76.5 -24
t80.5 -9q48 0 75 20.5t27 57.5q0 21 -12.5 36t-42.5 31z" />
    <glyph glyph-name="t" unicode="t" horiz-adv-x="386" 
d="M340 36q-27 -20 -63 -31.5t-72 -11.5q-128 0 -128 109q0 27 15 103l45 226h-92l12 62l97 12l43 144h78l-28 -142h147l-14 -76h-147l-43 -220q-14 -71 -14 -93q0 -25 13 -36t43 -11q41 0 86 21z" />
    <glyph glyph-name="u" unicode="u" horiz-adv-x="564" 
d="M361 0l6 93q-41 -51 -93 -79.5t-103 -28.5q-59 0 -90.5 33t-31.5 97q0 45 16 128l52 264h96l-51 -262q-15 -75 -15 -118q0 -33 14.5 -47.5t46.5 -14.5q37 0 82.5 29.5t87.5 79.5l65 333h96l-98 -507h-80z" />
    <glyph glyph-name="v" unicode="v" horiz-adv-x="489" 
d="M144 0l-94 507h101l60 -417q62 103 119.5 216.5t91.5 200.5h98q-44 -108 -125 -251.5t-160 -255.5h-91z" />
    <glyph glyph-name="w" unicode="w" horiz-adv-x="741" 
d="M423 0l-30 395l-175 -395h-95l-66 507h100l35 -408l172 408h95l32 -417q112 215 175 417h97q-38 -109 -109 -256.5t-136 -250.5h-95z" />
    <glyph glyph-name="x" unicode="x" horiz-adv-x="471" 
d="M315 0l-89 195l-156 -195h-109l230 263l-121 244h101l81 -181l145 181h108l-215 -248l127 -259h-102z" />
    <glyph glyph-name="y" unicode="y" horiz-adv-x="485" 
d="M-63 -151q72 26 111 54q47 34 101 99l-103 505h101l70 -420q50 87 103.5 201t93.5 219h99q-36 -91 -88 -194.5t-107.5 -198t-100.5 -150.5q-63 -80 -118.5 -123t-118.5 -60z" />
    <glyph glyph-name="z" unicode="z" horiz-adv-x="454" 
d="M-15 0l14 71l339 360h-261l15 76h379l-14 -71l-341 -360h276l-15 -76h-392z" />
    <glyph glyph-name="braceleft" unicode="{" horiz-adv-x="374" 
d="M298 -128q-43 -24 -100 -24q-59 0 -91 30t-32 86q0 20 3 42t15 80l14 68q13 69 13 81q0 24 -14 34.5t-45 10.5h-21l15 78h20q40 0 58.5 16t25.5 54l35 175q15 77 59 118t113 41q49 0 84 -16l-13 -68q-31 7 -55 7q-40 0 -62 -21.5t-31 -69.5l-31 -160q-9 -49 -34 -77
t-70 -39q33 -8 48.5 -27t15.5 -51q0 -14 -16 -97l-14 -68q-16 -79 -16 -101q0 -49 58 -49q30 0 52 8z" />
    <glyph glyph-name="bar" unicode="|" horiz-adv-x="274" 
d="M-3 -206l187 960h98l-187 -960h-98z" />
    <glyph glyph-name="braceright" unicode="}" horiz-adv-x="374" 
d="M91 738q43 24 100 24q59 0 91 -30t32 -86q0 -20 -3 -42t-15 -80l-14 -68q-13 -69 -13 -81q0 -24 14 -34.5t45 -10.5h21l-15 -78h-20q-40 0 -58.5 -16t-25.5 -54l-35 -175q-15 -77 -59 -118t-113 -41q-49 0 -84 16l13 68q31 -7 55 -7q40 0 62 21.5t31 69.5l31 160
q9 49 34 76.5t70 38.5q-33 9 -48.5 28t-15.5 51q0 14 16 97l14 68q16 79 16 101q0 49 -58 49q-30 0 -52 -8z" />
    <glyph glyph-name="asciitilde" unicode="~" 
d="M66 265q1 81 38 126.5t103 45.5q31 0 59.5 -13t61.5 -41q37 -31 54 -40t33 -9q26 0 41 15t22 49l7 33h70q-1 -81 -38 -126.5t-103 -45.5q-31 0 -59.5 13t-61.5 41q-37 31 -54 40t-33 9q-26 0 -41 -15t-22 -49l-7 -33h-70z" />
    <glyph glyph-name="uni00A0" unicode="&#xa0;" horiz-adv-x="262" 
 />
    <glyph glyph-name="exclamdown" unicode="&#xa1;" horiz-adv-x="255" 
d="M181 297l-80 -483q-28 -13 -56 -13q-26 0 -50 13l108 483h78zM161 385q-28 0 -43.5 15t-15.5 41q0 31 21.5 53.5t52.5 22.5q28 0 43.5 -15t15.5 -41q0 -31 -21.5 -53.5t-52.5 -22.5z" />
    <glyph glyph-name="cent" unicode="&#xa2;" 
d="M224 -130l28 148q-79 5 -122.5 53.5t-43.5 132.5q0 82 33.5 154t95 122t139.5 62l29 151h61l-29 -148q66 -3 112 -24l-13 -70q-58 19 -113 19l-72 -372q52 7 123 44l25 -58q-70 -51 -163 -64l-29 -150h-61zM183 210q0 -101 84 -113l71 363q-70 -23 -112.5 -91t-42.5 -159
z" />
    <glyph glyph-name="sterling" unicode="&#xa3;" 
d="M277 308q-4 -74 -29.5 -128t-75.5 -98h332l-16 -82h-442l15 75q114 72 124 233h-105l15 76h89q-4 56 -4 89q0 67 30 120t86 83.5t130 30.5q49 0 93 -14t78 -40l-15 -73q-78 43 -153 43t-115 -41t-40 -118q0 -17 1 -37.5t2 -42.5h202l-15 -76h-187z" />
    <glyph glyph-name="currency" unicode="&#xa4;" 
d="M272 186q71 0 119 57t48 138q0 113 -106 113q-71 0 -119 -57t-48 -138q0 -113 106 -113zM260 116q-65 0 -108 31l-94 -84l-50 55l93 81q-21 35 -21 95q0 53 19.5 102t56.5 87l-64 83l70 51l62 -84q52 31 121 31q65 0 108 -31l94 84l50 -55l-93 -81q21 -35 21 -95
q0 -53 -19.5 -102t-56.5 -87l64 -83l-70 -51l-62 84q-52 -31 -121 -31z" />
    <glyph glyph-name="yen" unicode="&#xa5;" 
d="M188 0l30 156h-167l12 65h168l6 31l-18 58h-139l12 65h109l-97 318h106l90 -358l231 358h105l-221 -318h110l-12 -65h-142l-40 -58l-6 -31h171l-12 -65h-172l-30 -156h-94z" />
    <glyph glyph-name="brokenbar" unicode="&#xa6;" horiz-adv-x="274" 
d="M-3 -206l70 357h98l-70 -357h-98zM114 397l70 357h98l-70 -357h-98z" />
    <glyph glyph-name="section" unicode="&#xa7;" horiz-adv-x="475" 
d="M450 315q0 -112 -117 -152q51 -42 51 -104q0 -71 -54 -113t-146 -42q-49 0 -99 11.5t-87 31.5l14 69q39 -16 85 -26t86 -10q111 0 111 71q0 29 -15 47.5t-60 39.5l-57 26q-58 27 -83.5 57.5t-25.5 73.5q0 57 33 94t97 53q-66 43 -66 111q0 69 55.5 112t144.5 43
q41 0 82 -9t74 -26l-14 -69q-76 29 -141 29q-54 0 -83 -18.5t-29 -54.5q0 -26 13 -42t48 -33l74 -35q59 -28 84 -58.5t25 -76.5zM253 406q-111 -15 -111 -96q0 -28 16.5 -46.5t63.5 -40.5l52 -25q88 26 88 103q0 29 -17.5 50t-60.5 41z" />
    <glyph glyph-name="dieresis" unicode="&#xa8;" horiz-adv-x="579" 
d="M256 594q-52 0 -52 49q0 28 19.5 47t47.5 19q52 0 52 -49q0 -28 -19.5 -47t-47.5 -19zM471 594q-52 0 -52 49q0 28 19.5 47t47.5 19q52 0 52 -49q0 -28 -19.5 -47t-47.5 -19z" />
    <glyph glyph-name="copyright" unicode="&#xa9;" horiz-adv-x="774" 
d="M406 -17q-101 0 -183 44.5t-130 127.5t-48 190q0 102 44.5 184t127 130t189.5 48q101 0 183 -44.5t130 -127.5t48 -190q0 -102 -44.5 -184t-127 -130t-189.5 -48zM406 46q83 0 148 36.5t102.5 104.5t37.5 158q0 86 -35 153.5t-100.5 106.5t-152.5 39q-83 0 -148 -36.5
t-102.5 -104.5t-37.5 -158q0 -86 35 -153.5t100.5 -106.5t152.5 -39zM524 167q-49 -20 -97 -20q-89 0 -137 53t-48 150q0 96 49 149.5t137 53.5q50 0 92 -20v-61q-39 13 -85 13q-108 0 -108 -125v-18q0 -64 27.5 -95t84.5 -31q37 0 85 14v-63z" />
    <glyph glyph-name="ordfeminine" unicode="&#xaa;" horiz-adv-x="393" 
d="M167 336q-42 0 -67.5 24.5t-25.5 65.5q0 58 40.5 91t111.5 33q40 0 85 -13l7 35q3 18 3 28q0 46 -59 46q-53 0 -121 -30l-12 51q30 17 69.5 27.5t74.5 10.5q61 0 93 -22.5t32 -65.5q0 -21 -5 -45l-44 -226h-63v38q-60 -48 -119 -48zM41 217l11 59h284l-11 -59h-284z
M201 391q38 0 89 36l12 65q-38 10 -67 10q-85 -2 -85 -66q0 -22 13 -33.5t38 -11.5z" />
    <glyph glyph-name="guillemotleft" unicode="&#xab;" horiz-adv-x="514" 
d="M146 51l-97 208l174 208h94l-173 -212l90 -204h-88zM339 51l-97 208l174 208h94l-173 -212l90 -204h-88z" />
    <glyph glyph-name="logicalnot" unicode="&#xac;" 
d="M426 222l34 176h-366l15 78h451l-49 -254h-85z" />
    <glyph glyph-name="uni00AD" unicode="&#xad;" horiz-adv-x="395" 
d="M40 218l16 82h307l-16 -82h-307z" />
    <glyph glyph-name="registered" unicode="&#xae;" horiz-adv-x="534" 
d="M315 275q-68 0 -122.5 29.5t-86.5 84t-32 125.5q0 68 30 122.5t85 86t126 31.5q68 0 122.5 -29.5t86.5 -84t32 -125.5q0 -68 -30 -122.5t-85 -86t-126 -31.5zM315 317q86 0 138.5 54t52.5 144t-52 143.5t-139 53.5q-86 0 -138.5 -54t-52.5 -144t52 -143.5t139 -53.5z
M228 386v262h98q42 0 66 -22t24 -61q0 -51 -51 -71l69 -108h-57l-59 100h-39v-100h-51zM279 526h38q45 0 45 38q0 19 -10.5 30.5t-28.5 11.5h-44v-80z" />
    <glyph glyph-name="macron" unicode="&#xaf;" horiz-adv-x="579" 
d="M208 636l13 64h315l-13 -64h-315z" />
    <glyph glyph-name="degree" unicode="&#xb0;" horiz-adv-x="305" 
d="M180 423q-53 0 -84 31.5t-31 86.5q0 43 20 79.5t56 58.5t82 22q53 0 84 -31.5t31 -86.5q0 -43 -20 -79.5t-56 -58.5t-82 -22zM187 479q37 0 61.5 28.5t24.5 71.5q0 31 -15.5 48.5t-41.5 17.5q-37 0 -61.5 -28.5t-24.5 -71.5q0 -31 15.5 -48.5t41.5 -17.5z" />
    <glyph glyph-name="plusminus" unicode="&#xb1;" 
d="M358 377l-37 -192h-85l37 192h-183l15 78h183l37 192h85l-37 -192h183l-15 -78h-183zM22 27l15 78h451l-15 -78h-451z" />
    <glyph glyph-name="uni00B2" unicode="&#xb2;" horiz-adv-x="410" 
d="M95 390l10 53q93 70 142 113t68.5 71t19.5 52q0 22 -14.5 34.5t-40.5 12.5q-22 0 -48.5 -10.5t-64.5 -34.5l-14 55q72 54 143 54q55 0 86.5 -26.5t31.5 -71.5q0 -48 -45 -100.5t-162 -139.5h179l-12 -62h-279z" />
    <glyph glyph-name="uni00B3" unicode="&#xb3;" horiz-adv-x="410" 
d="M108 464q54 -22 111 -22q46 0 72.5 19.5t26.5 52.5q0 27 -18.5 39t-59.5 12q-20 0 -58 -4l9 41l130 117h-162l12 61h249l-10 -53l-131 -114h9q49 0 77 -25t28 -67q0 -62 -50 -101.5t-124 -39.5q-73 0 -122 26z" />
    <glyph glyph-name="acute" unicode="&#xb4;" horiz-adv-x="579" 
d="M279 601l117 160h120l-157 -160h-80z" />
    <glyph glyph-name="mu" unicode="&#xb5;" 
d="M-26 -206l139 713h96l-51 -262q-15 -73 -15 -112q0 -69 68 -69q35 0 79.5 30t82.5 79l66 334h96l-64 -329q-11 -54 -11 -74q0 -33 34 -33q16 0 34 5l19 -58q-18 -10 -42.5 -16.5t-47.5 -6.5q-45 0 -68 24t-23 70v4q-21 -31 -49.5 -55.5t-59.5 -38.5t-60 -14q-63 0 -86 54
l-47 -245h-90z" />
    <glyph glyph-name="paragraph" unicode="&#xb6;" horiz-adv-x="591" 
d="M357 -104l140 723h-108l-160 -825h-81l89 452q-87 31 -125 79.5t-38 128.5q0 113 70 176t197 63h252l-155 -797h-81z" />
    <glyph glyph-name="periodcentered" unicode="&#xb7;" horiz-adv-x="245" 
d="M116 195q-28 0 -43.5 15t-15.5 41q0 31 21.5 53.5t52.5 22.5q28 0 43.5 -15t15.5 -41q0 -31 -21.5 -53.5t-52.5 -22.5z" />
    <glyph glyph-name="cedilla" unicode="&#xb8;" horiz-adv-x="579" 
d="M100 -243q53 30 77.5 53t24.5 42q0 25 -34 25q-14 0 -36 -3l11 54q28 9 60 9q37 0 58 -17t21 -47q0 -81 -147 -154z" />
    <glyph glyph-name="uni00B9" unicode="&#xb9;" horiz-adv-x="410" 
d="M224 390l60 313l-122 -41l12 62l132 56h71l-76 -390h-77z" />
    <glyph glyph-name="ordmasculine" unicode="&#xba;" horiz-adv-x="414" 
d="M223 333q-62 0 -99.5 37.5t-37.5 101.5t24.5 117t69.5 84.5t103 31.5q62 0 99.5 -37.5t37.5 -101.5t-24.5 -117t-69.5 -84.5t-103 -31.5zM230 394q49 0 80.5 47t31.5 120q0 38 -17.5 60.5t-48.5 22.5q-49 0 -80.5 -47t-31.5 -120q0 -38 17.5 -60.5t48.5 -22.5zM40 217
l11 59h312l-11 -59h-312z" />
    <glyph glyph-name="guillemotright" unicode="&#xbb;" horiz-adv-x="514" 
d="M11 51l174 212l-90 204h88l97 -208l-174 -208h-95zM204 51l174 212l-90 204h88l97 -208l-174 -208h-95z" />
    <glyph glyph-name="onequarter" unicode="&#xbc;" horiz-adv-x="940" 
d="M228 0l452 693h85l-452 -693h-85zM814 80l-15 -80h-71l15 80h-198l11 55l245 261h74l-50 -259h61l-11 -57h-61zM754 137l32 165l-156 -165h124zM195 303l60 313l-122 -41l12 62l132 56h71l-76 -390h-77z" />
    <glyph glyph-name="onehalf" unicode="&#xbd;" horiz-adv-x="940" 
d="M201 0l452 693h85l-452 -693h-85zM556 0l10 53q93 70 142 113t68.5 71t19.5 52q0 22 -14.5 34.5t-40.5 12.5q-22 0 -48.5 -10.5t-64.5 -34.5l-14 55q72 54 143 54q55 0 86.5 -26.5t31.5 -71.5q0 -48 -45 -100.5t-162 -139.5h179l-12 -62h-279zM195 303l60 313l-122 -41
l12 62l132 56h71l-76 -390h-77z" />
    <glyph glyph-name="threequarters" unicode="&#xbe;" horiz-adv-x="940" 
d="M239 0l452 693h85l-452 -693h-85zM814 80l-15 -80h-71l15 80h-198l11 55l245 261h74l-50 -259h61l-11 -57h-61zM754 137l32 165l-156 -165h124zM88 377q54 -22 111 -22q46 0 72.5 19.5t26.5 52.5q0 27 -18.5 39t-59.5 12q-20 0 -58 -4l9 41l130 117h-162l12 61h249
l-10 -53l-131 -114h9q49 0 77 -25t28 -67q0 -62 -50 -101.5t-124 -39.5q-73 0 -122 26z" />
    <glyph glyph-name="questiondown" unicode="&#xbf;" horiz-adv-x="420" 
d="M294 297l-23 -154l-45 -21q-79 -36 -116.5 -76.5t-37.5 -86.5q0 -38 25 -58t73 -20q62 0 132 39l16 -71q-82 -50 -171 -50q-78 0 -125 40.5t-47 109.5q0 142 216 232l24 116h79zM269 385q-28 0 -43.5 15t-15.5 41q0 31 21.5 53.5t52.5 22.5q28 0 43.5 -15t15.5 -41
q0 -31 -21.5 -53.5t-52.5 -22.5z" />
    <glyph glyph-name="Agrave" unicode="&#xc0;" horiz-adv-x="612" 
d="M459 0l-26 185h-272l-97 -185h-104l380 693h108l115 -693h-104zM200 260h224l-47 338zM346 769l-104 123h115l75 -123h-86z" />
    <glyph glyph-name="Aacute" unicode="&#xc1;" horiz-adv-x="612" 
d="M459 0l-26 185h-272l-97 -185h-104l380 693h108l115 -693h-104zM200 260h224l-47 338zM438 769h-87l116 123h123z" />
    <glyph glyph-name="Acircumflex" unicode="&#xc2;" horiz-adv-x="612" 
d="M459 0l-26 185h-272l-97 -185h-104l380 693h108l115 -693h-104zM200 260h224l-47 338zM488 769l-72 81l-106 -81h-98l160 135h103l104 -135h-91z" />
    <glyph glyph-name="Atilde" unicode="&#xc3;" horiz-adv-x="612" 
d="M459 0l-26 185h-272l-97 -185h-104l380 693h108l115 -693h-104zM200 260h224l-47 338zM426 863q25 -23 33.5 -28.5t18.5 -5.5q27 0 37 40l7 26h61q0 -11 -3 -31q-8 -44 -37.5 -70t-71.5 -26q-23 0 -41.5 8t-39.5 28q-25 23 -33.5 28.5t-18.5 5.5q-27 0 -37 -40l-7 -26
h-61q0 12 3 31q8 44 37.5 70t71.5 26q23 0 41.5 -8t39.5 -28z" />
    <glyph glyph-name="Adieresis" unicode="&#xc4;" horiz-adv-x="612" 
d="M459 0l-26 185h-272l-97 -185h-104l380 693h108l115 -693h-104zM200 260h224l-47 338zM309 779q-26 0 -39.5 12.5t-13.5 36.5q0 29 19.5 48t48.5 19q26 0 39.5 -12.5t13.5 -36.5q0 -29 -19.5 -48t-48.5 -19zM500 779q-26 0 -39.5 12.5t-13.5 36.5q0 29 19.5 48t48.5 19
q26 0 39.5 -12.5t13.5 -36.5q0 -29 -19.5 -48t-48.5 -19z" />
    <glyph glyph-name="Aring" unicode="&#xc5;" horiz-adv-x="612" 
d="M459 0l-26 185h-272l-97 -185h-104l380 693h108l115 -693h-104zM200 260h224l-47 338zM399 737q-44 0 -70 22t-26 60q0 49 36.5 81.5t89.5 32.5q44 0 70 -22t26 -60q0 -49 -36.5 -81.5t-89.5 -32.5zM405 786q24 0 40.5 18t16.5 43q0 17 -10.5 27t-28.5 10
q-24 0 -40.5 -18t-16.5 -43q0 -17 10.5 -27t28.5 -10z" />
    <glyph glyph-name="AE" unicode="&#xc6;" horiz-adv-x="914" 
d="M400 0l39 201h-237l-148 -201h-112l524 693h492l-16 -80h-324l-42 -216h272l-16 -80h-272l-46 -236h324l-15 -81h-423zM256 275h197l66 338h-14z" />
    <glyph glyph-name="Ccedilla" unicode="&#xc7;" horiz-adv-x="593" 
d="M539 53q-48 -34 -107 -52t-120 -18q-120 0 -187 73t-67 203q0 118 51 220.5t142.5 166t204.5 63.5q88 0 154 -36l-15 -77q-64 27 -136 27q-82 0 -149.5 -44.5t-107.5 -125.5t-40 -184q0 -97 43 -148t125 -51q42 0 90.5 14.5t94.5 40.5zM194 -242q52 30 76.5 52.5
t24.5 41.5q0 12 -7.5 17.5t-24.5 5.5q-14 0 -36 -3l11 56q28 9 60 9q37 0 58 -17t21 -47q0 -81 -147 -154z" />
    <glyph glyph-name="Egrave" unicode="&#xc8;" horiz-adv-x="557" 
d="M43 0l135 693h423l-16 -81h-324l-42 -215h272l-16 -80h-272l-46 -236h324l-15 -81h-423zM351 769l-104 123h115l75 -123h-86z" />
    <glyph glyph-name="Eacute" unicode="&#xc9;" horiz-adv-x="557" 
d="M43 0l135 693h423l-16 -81h-324l-42 -215h272l-16 -80h-272l-46 -236h324l-15 -81h-423zM443 769h-87l116 123h123z" />
    <glyph glyph-name="Ecircumflex" unicode="&#xca;" horiz-adv-x="557" 
d="M43 0l135 693h423l-16 -81h-324l-42 -215h272l-16 -80h-272l-46 -236h324l-15 -81h-423zM493 769l-72 81l-106 -81h-98l160 135h103l104 -135h-91z" />
    <glyph glyph-name="Edieresis" unicode="&#xcb;" horiz-adv-x="557" 
d="M43 0l135 693h423l-16 -81h-324l-42 -215h272l-16 -80h-272l-46 -236h324l-15 -81h-423zM314 779q-26 0 -39.5 12.5t-13.5 36.5q0 29 19.5 48t48.5 19q26 0 39.5 -12.5t13.5 -36.5q0 -29 -19.5 -48t-48.5 -19zM505 779q-26 0 -39.5 12.5t-13.5 36.5q0 29 19.5 48t48.5 19
q26 0 39.5 -12.5t13.5 -36.5q0 -29 -19.5 -48t-48.5 -19z" />
    <glyph glyph-name="Igrave" unicode="&#xcc;" horiz-adv-x="295" 
d="M47 0l135 693h99l-135 -693h-99zM196 769l-104 123h115l75 -123h-86z" />
    <glyph glyph-name="Iacute" unicode="&#xcd;" horiz-adv-x="295" 
d="M47 0l135 693h99l-135 -693h-99zM288 769h-87l116 123h123z" />
    <glyph glyph-name="Icircumflex" unicode="&#xce;" horiz-adv-x="295" 
d="M47 0l135 693h99l-135 -693h-99zM338 769l-72 81l-106 -81h-98l160 135h103l104 -135h-91z" />
    <glyph glyph-name="Idieresis" unicode="&#xcf;" horiz-adv-x="295" 
d="M47 0l135 693h99l-135 -693h-99zM159 779q-26 0 -39.5 12.5t-13.5 36.5q0 29 19.5 48t48.5 19q26 0 39.5 -12.5t13.5 -36.5q0 -29 -19.5 -48t-48.5 -19zM350 779q-26 0 -39.5 12.5t-13.5 36.5q0 29 19.5 48t48.5 19q26 0 39.5 -12.5t13.5 -36.5q0 -29 -19.5 -48
t-48.5 -19z" />
    <glyph glyph-name="Eth" unicode="&#xd0;" horiz-adv-x="709" 
d="M53 0l62 320h-81l15 73h80l59 300h218q126 0 199 -72t73 -196q0 -117 -48 -213.5t-136 -154t-199 -57.5h-242zM215 320l-47 -242h124q80 0 144 42t101.5 120t37.5 180q0 92 -46 143.5t-128 51.5h-129l-43 -222h157l-14 -73h-157z" />
    <glyph glyph-name="Ntilde" unicode="&#xd1;" horiz-adv-x="717" 
d="M465 0l-219 557l-108 -557h-95l135 693h107l219 -556l108 556h95l-135 -693h-107zM483 863q25 -23 33.5 -28.5t18.5 -5.5q27 0 37 40l7 26h61q0 -11 -3 -31q-8 -44 -37.5 -70t-71.5 -26q-23 0 -41.5 8t-39.5 28q-25 23 -33.5 28.5t-18.5 5.5q-27 0 -37 -40l-7 -26h-61
q0 12 3 31q8 44 37.5 70t71.5 26q23 0 41.5 -8t39.5 -28z" />
    <glyph glyph-name="Ograve" unicode="&#xd2;" horiz-adv-x="748" 
d="M337 67q77 0 138.5 44t98 125.5t36.5 186.5q0 94 -47.5 147.5t-129.5 53.5q-76 0 -138 -44t-98.5 -126t-36.5 -187q0 -93 47.5 -146.5t129.5 -53.5zM325 -17q-81 0 -141 33t-93 95t-33 148q0 124 48 226t136.5 162.5t202.5 60.5q123 0 195 -74.5t72 -202.5
q0 -124 -48 -225.5t-136.5 -162t-202.5 -60.5zM420 769l-104 123h115l75 -123h-86z" />
    <glyph glyph-name="Oacute" unicode="&#xd3;" horiz-adv-x="748" 
d="M337 67q77 0 138.5 44t98 125.5t36.5 186.5q0 94 -47.5 147.5t-129.5 53.5q-76 0 -138 -44t-98.5 -126t-36.5 -187q0 -93 47.5 -146.5t129.5 -53.5zM325 -17q-81 0 -141 33t-93 95t-33 148q0 124 48 226t136.5 162.5t202.5 60.5q123 0 195 -74.5t72 -202.5
q0 -124 -48 -225.5t-136.5 -162t-202.5 -60.5zM512 769h-87l116 123h123z" />
    <glyph glyph-name="Ocircumflex" unicode="&#xd4;" horiz-adv-x="748" 
d="M337 67q77 0 138.5 44t98 125.5t36.5 186.5q0 94 -47.5 147.5t-129.5 53.5q-76 0 -138 -44t-98.5 -126t-36.5 -187q0 -93 47.5 -146.5t129.5 -53.5zM325 -17q-81 0 -141 33t-93 95t-33 148q0 124 48 226t136.5 162.5t202.5 60.5q123 0 195 -74.5t72 -202.5
q0 -124 -48 -225.5t-136.5 -162t-202.5 -60.5zM562 769l-72 81l-106 -81h-98l160 135h103l104 -135h-91z" />
    <glyph glyph-name="Otilde" unicode="&#xd5;" horiz-adv-x="748" 
d="M337 67q77 0 138.5 44t98 125.5t36.5 186.5q0 94 -47.5 147.5t-129.5 53.5q-76 0 -138 -44t-98.5 -126t-36.5 -187q0 -93 47.5 -146.5t129.5 -53.5zM325 -17q-81 0 -141 33t-93 95t-33 148q0 124 48 226t136.5 162.5t202.5 60.5q123 0 195 -74.5t72 -202.5
q0 -124 -48 -225.5t-136.5 -162t-202.5 -60.5zM500 863q25 -23 33.5 -28.5t18.5 -5.5q27 0 37 40l7 26h61q0 -11 -3 -31q-8 -44 -37.5 -70t-71.5 -26q-23 0 -41.5 8t-39.5 28q-25 23 -33.5 28.5t-18.5 5.5q-27 0 -37 -40l-7 -26h-61q0 12 3 31q8 44 37.5 70t71.5 26
q23 0 41.5 -8t39.5 -28z" />
    <glyph glyph-name="Odieresis" unicode="&#xd6;" horiz-adv-x="748" 
d="M337 67q77 0 138.5 44t98 125.5t36.5 186.5q0 94 -47.5 147.5t-129.5 53.5q-76 0 -138 -44t-98.5 -126t-36.5 -187q0 -93 47.5 -146.5t129.5 -53.5zM325 -17q-81 0 -141 33t-93 95t-33 148q0 124 48 226t136.5 162.5t202.5 60.5q123 0 195 -74.5t72 -202.5
q0 -124 -48 -225.5t-136.5 -162t-202.5 -60.5zM383 779q-26 0 -39.5 12.5t-13.5 36.5q0 29 19.5 48t48.5 19q26 0 39.5 -12.5t13.5 -36.5q0 -29 -19.5 -48t-48.5 -19zM574 779q-26 0 -39.5 12.5t-13.5 36.5q0 29 19.5 48t48.5 19q26 0 39.5 -12.5t13.5 -36.5
q0 -29 -19.5 -48t-48.5 -19z" />
    <glyph glyph-name="multiply" unicode="&#xd7;" 
d="M421 129l-119 157l-180 -157l-47 58l181 157l-122 159l64 50l119 -157l180 157l47 -58l-181 -157l122 -159z" />
    <glyph glyph-name="Oslash" unicode="&#xd8;" horiz-adv-x="748" 
d="M-2 4l97 98q-37 66 -37 157q0 124 48 226t136.5 162.5t202.5 60.5t186 -66l87 87l48 -45l-93 -94q39 -67 39 -159q0 -124 -48 -225.5t-136.5 -162t-202.5 -60.5q-117 0 -189 67l-90 -91zM337 67q77 0 138.5 44t98 125.5t36.5 186.5q0 50 -14 90l-389 -392q46 -54 130 -54
zM160 267q0 -49 13 -87l388 391q-47 53 -128 53q-76 0 -138 -44t-98.5 -126t-36.5 -187z" />
    <glyph glyph-name="Ugrave" unicode="&#xd9;" horiz-adv-x="701" 
d="M599 693h99l-89 -457q-24 -122 -101 -187.5t-196 -65.5q-111 0 -171.5 53t-60.5 149q0 28 4.5 62t16.5 96l68 350h99l-69 -354q-22 -113 -22 -143q0 -62 36.5 -94.5t105.5 -32.5q78 0 126.5 41t63.5 120zM386 769l-104 123h115l75 -123h-86z" />
    <glyph glyph-name="Uacute" unicode="&#xda;" horiz-adv-x="701" 
d="M599 693h99l-89 -457q-24 -122 -101 -187.5t-196 -65.5q-111 0 -171.5 53t-60.5 149q0 28 4.5 62t16.5 96l68 350h99l-69 -354q-22 -113 -22 -143q0 -62 36.5 -94.5t105.5 -32.5q78 0 126.5 41t63.5 120zM478 769h-87l116 123h123z" />
    <glyph glyph-name="Ucircumflex" unicode="&#xdb;" horiz-adv-x="701" 
d="M599 693h99l-89 -457q-24 -122 -101 -187.5t-196 -65.5q-111 0 -171.5 53t-60.5 149q0 28 4.5 62t16.5 96l68 350h99l-69 -354q-22 -113 -22 -143q0 -62 36.5 -94.5t105.5 -32.5q78 0 126.5 41t63.5 120zM528 769l-72 81l-106 -81h-98l160 135h103l104 -135h-91z" />
    <glyph glyph-name="Udieresis" unicode="&#xdc;" horiz-adv-x="701" 
d="M599 693h99l-89 -457q-24 -122 -101 -187.5t-196 -65.5q-111 0 -171.5 53t-60.5 149q0 28 4.5 62t16.5 96l68 350h99l-69 -354q-22 -113 -22 -143q0 -62 36.5 -94.5t105.5 -32.5q78 0 126.5 41t63.5 120zM349 779q-26 0 -39.5 12.5t-13.5 36.5q0 29 19.5 48t48.5 19
q26 0 39.5 -12.5t13.5 -36.5q0 -29 -19.5 -48t-48.5 -19zM540 779q-26 0 -39.5 12.5t-13.5 36.5q0 29 19.5 48t48.5 19q26 0 39.5 -12.5t13.5 -36.5q0 -29 -19.5 -48t-48.5 -19z" />
    <glyph glyph-name="Yacute" unicode="&#xdd;" horiz-adv-x="551" 
d="M165 0l50 255l-144 438h104l102 -357l244 357h109l-319 -443l-49 -250h-97zM418 769h-87l116 123h123z" />
    <glyph glyph-name="Thorn" unicode="&#xde;" horiz-adv-x="579" 
d="M167 143l-27 -143h-97l135 693h97l-25 -129h100q102 0 157.5 -48t55.5 -135q0 -70 -35 -123.5t-101 -84t-154 -30.5h-106zM182 221h95q87 0 137.5 41.5t50.5 113.5q0 56 -33 83t-102 27h-96z" />
    <glyph glyph-name="germandbls" unicode="&#xdf;" horiz-adv-x="570" 
d="M17 0l101 518q22 116 85.5 176t163.5 60q51 0 92 -18t65 -51t24 -77q0 -45 -27.5 -85.5t-85.5 -81.5q-32 -22 -46 -39.5t-14 -38.5q0 -15 12 -29.5t46 -39.5l28 -21q74 -56 74 -123q0 -44 -25 -81.5t-70.5 -60.5t-101.5 -23q-88 0 -147 34l14 70q31 -13 66 -21t65 -8
q47 0 77 22.5t30 56.5q0 41 -54 80l-32 23q-38 28 -55 55t-17 56q0 41 21 72t75 68q73 51 73 105q0 36 -26 58.5t-67 22.5q-115 0 -148 -166l-100 -513h-96z" />
    <glyph glyph-name="agrave" unicode="&#xe0;" horiz-adv-x="548" 
d="M345 0l6 92q-40 -51 -88.5 -79t-98.5 -28q-63 0 -97 44.5t-34 125.5q0 92 40.5 175.5t112 137.5t155.5 54q39 0 88 -11t89 -29l-94 -482h-79zM200 64q75 0 162 109l52 261q-46 11 -74 11q-52 0 -99.5 -36.5t-78.5 -101.5t-31 -141q0 -51 16.5 -76.5t52.5 -25.5zM302 601
l-95 160h112l62 -160h-79z" />
    <glyph glyph-name="aacute" unicode="&#xe1;" horiz-adv-x="548" 
d="M345 0l6 92q-40 -51 -88.5 -79t-98.5 -28q-63 0 -97 44.5t-34 125.5q0 92 40.5 175.5t112 137.5t155.5 54q39 0 88 -11t89 -29l-94 -482h-79zM200 64q75 0 162 109l52 261q-46 11 -74 11q-52 0 -99.5 -36.5t-78.5 -101.5t-31 -141q0 -51 16.5 -76.5t52.5 -25.5zM309 601
l117 160h120l-157 -160h-80z" />
    <glyph glyph-name="acircumflex" unicode="&#xe2;" horiz-adv-x="548" 
d="M345 0l6 92q-40 -51 -88.5 -79t-98.5 -28q-63 0 -97 44.5t-34 125.5q0 92 40.5 175.5t112 137.5t155.5 54q39 0 88 -11t89 -29l-94 -482h-79zM200 64q75 0 162 109l52 261q-46 11 -74 11q-52 0 -99.5 -36.5t-78.5 -101.5t-31 -141q0 -51 16.5 -76.5t52.5 -25.5zM447 601
l-75 104l-114 -104h-88l160 161h101l98 -161h-82z" />
    <glyph glyph-name="atilde" unicode="&#xe3;" horiz-adv-x="548" 
d="M345 0l6 92q-40 -51 -88.5 -79t-98.5 -28q-63 0 -97 44.5t-34 125.5q0 92 40.5 175.5t112 137.5t155.5 54q39 0 88 -11t89 -29l-94 -482h-79zM200 64q75 0 162 109l52 261q-46 11 -74 11q-52 0 -99.5 -36.5t-78.5 -101.5t-31 -141q0 -51 16.5 -76.5t52.5 -25.5zM389 697
q25 -23 33.5 -29t18.5 -6q27 0 38 41l7 27h60q0 -17 -3 -32q-8 -44 -37 -69.5t-71 -25.5q-25 0 -43.5 8.5t-38.5 27.5q-25 23 -33.5 29t-18.5 6q-27 0 -38 -41l-7 -27h-60q0 17 3 32q8 44 37 69.5t71 25.5q25 0 43.5 -8.5t38.5 -27.5z" />
    <glyph glyph-name="adieresis" unicode="&#xe4;" horiz-adv-x="548" 
d="M345 0l6 92q-40 -51 -88.5 -79t-98.5 -28q-63 0 -97 44.5t-34 125.5q0 92 40.5 175.5t112 137.5t155.5 54q39 0 88 -11t89 -29l-94 -482h-79zM200 64q75 0 162 109l52 261q-46 11 -74 11q-52 0 -99.5 -36.5t-78.5 -101.5t-31 -141q0 -51 16.5 -76.5t52.5 -25.5zM255 594
q-52 0 -52 49q0 28 19.5 47t47.5 19q52 0 52 -49q0 -28 -19.5 -47t-47.5 -19zM470 594q-52 0 -52 49q0 28 19.5 47t47.5 19q52 0 52 -49q0 -28 -19.5 -47t-47.5 -19z" />
    <glyph glyph-name="aring" unicode="&#xe5;" horiz-adv-x="548" 
d="M345 0l6 92q-40 -51 -88.5 -79t-98.5 -28q-63 0 -97 44.5t-34 125.5q0 92 40.5 175.5t112 137.5t155.5 54q39 0 88 -11t89 -29l-94 -482h-79zM200 64q75 0 162 109l52 261q-46 11 -74 11q-52 0 -99.5 -36.5t-78.5 -101.5t-31 -141q0 -51 16.5 -76.5t52.5 -25.5zM356 585
q-47 0 -75 24.5t-28 66.5q0 52 38.5 87t95.5 35q47 0 75 -24.5t28 -66.5q0 -52 -38.5 -87t-95.5 -35zM362 637q27 0 45 19.5t18 47.5q0 19 -11.5 30.5t-32.5 11.5q-27 0 -45 -19.5t-18 -47.5q0 -19 11.5 -30.5t32.5 -11.5z" />
    <glyph glyph-name="ae" unicode="&#xe6;" horiz-adv-x="813" 
d="M666 522q61 0 96.5 -31t35.5 -84q0 -77 -72.5 -133t-205.5 -82l-64 -13q0 -64 23 -91.5t78 -27.5q71 0 163 50l26 -59q-95 -66 -214 -66q-65 0 -105.5 33t-52.5 96q-36 -62 -88 -95.5t-114 -33.5q-68 0 -103.5 43.5t-35.5 126.5q0 93 40.5 176.5t112.5 137t157 53.5
q91 0 167 -55q69 55 156 55zM380 265q28 90 73 146q-58 34 -110 34q-54 0 -102.5 -36t-79 -100.5t-30.5 -142.5q0 -52 18 -77t56 -25q54 0 100.5 53t74.5 148zM649 448q-44 0 -83 -25t-67 -72t-38 -107l63 15q88 20 136 56t48 83q0 23 -15.5 36.5t-43.5 13.5z" />
    <glyph glyph-name="ccedilla" unicode="&#xe7;" horiz-adv-x="447" 
d="M213 -15q-83 0 -131.5 49.5t-48.5 135.5q0 90 39 170t108.5 131t152.5 51q31 0 63 -7t55 -19l-14 -72q-49 18 -95 18q-59 0 -106 -32.5t-75 -92t-28 -136.5q0 -62 23.5 -89t76.5 -27q60 0 144 47l26 -61q-41 -32 -90 -49t-100 -17zM99 -243q53 30 77.5 53t24.5 42
q0 25 -34 25q-14 0 -36 -3l11 54q28 9 60 9q37 0 58 -17t21 -47q0 -81 -147 -154z" />
    <glyph glyph-name="egrave" unicode="&#xe8;" horiz-adv-x="482" 
d="M415 49q-95 -66 -214 -66q-80 0 -124 48t-44 136q0 68 21.5 131.5t61.5 114t97 81t122 30.5q61 0 96.5 -31t35.5 -84q0 -78 -73 -135t-205 -82l-62 -12q0 -65 23 -93.5t76 -28.5q71 0 163 50zM318 450q-43 0 -81.5 -25t-66.5 -72t-38 -108l61 14q87 20 135.5 57t48.5 84
q0 23 -15.5 36.5t-43.5 13.5zM289 601l-95 160h112l62 -160h-79z" />
    <glyph glyph-name="eacute" unicode="&#xe9;" horiz-adv-x="482" 
d="M415 49q-95 -66 -214 -66q-80 0 -124 48t-44 136q0 68 21.5 131.5t61.5 114t97 81t122 30.5q61 0 96.5 -31t35.5 -84q0 -78 -73 -135t-205 -82l-62 -12q0 -65 23 -93.5t76 -28.5q71 0 163 50zM318 450q-43 0 -81.5 -25t-66.5 -72t-38 -108l61 14q87 20 135.5 57t48.5 84
q0 23 -15.5 36.5t-43.5 13.5zM296 601l117 160h120l-157 -160h-80z" />
    <glyph glyph-name="ecircumflex" unicode="&#xea;" horiz-adv-x="482" 
d="M415 49q-95 -66 -214 -66q-80 0 -124 48t-44 136q0 68 21.5 131.5t61.5 114t97 81t122 30.5q61 0 96.5 -31t35.5 -84q0 -78 -73 -135t-205 -82l-62 -12q0 -65 23 -93.5t76 -28.5q71 0 163 50zM318 450q-43 0 -81.5 -25t-66.5 -72t-38 -108l61 14q87 20 135.5 57t48.5 84
q0 23 -15.5 36.5t-43.5 13.5zM434 601l-75 104l-114 -104h-88l160 161h101l98 -161h-82z" />
    <glyph glyph-name="edieresis" unicode="&#xeb;" horiz-adv-x="482" 
d="M415 49q-95 -66 -214 -66q-80 0 -124 48t-44 136q0 68 21.5 131.5t61.5 114t97 81t122 30.5q61 0 96.5 -31t35.5 -84q0 -78 -73 -135t-205 -82l-62 -12q0 -65 23 -93.5t76 -28.5q71 0 163 50zM318 450q-43 0 -81.5 -25t-66.5 -72t-38 -108l61 14q87 20 135.5 57t48.5 84
q0 23 -15.5 36.5t-43.5 13.5zM242 594q-52 0 -52 49q0 28 19.5 47t47.5 19q52 0 52 -49q0 -28 -19.5 -47t-47.5 -19zM457 594q-52 0 -52 49q0 28 19.5 47t47.5 19q52 0 52 -49q0 -28 -19.5 -47t-47.5 -19z" />
    <glyph glyph-name="igrave" unicode="&#xec;" horiz-adv-x="253" 
d="M31 0l99 507h96l-99 -507h-96zM137 601l-95 160h112l62 -160h-79z" />
    <glyph glyph-name="iacute" unicode="&#xed;" horiz-adv-x="253" 
d="M31 0l99 507h96l-99 -507h-96zM144 601l117 160h120l-157 -160h-80z" />
    <glyph glyph-name="icircumflex" unicode="&#xee;" horiz-adv-x="253" 
d="M31 0l99 507h96l-99 -507h-96zM282 601l-75 104l-114 -104h-88l160 161h101l98 -161h-82z" />
    <glyph glyph-name="idieresis" unicode="&#xef;" horiz-adv-x="253" 
d="M31 0l99 507h96l-99 -507h-96zM90 594q-52 0 -52 49q0 28 19.5 47t47.5 19q52 0 52 -49q0 -28 -19.5 -47t-47.5 -19zM305 594q-52 0 -52 49q0 28 19.5 47t47.5 19q52 0 52 -49q0 -28 -19.5 -47t-47.5 -19z" />
    <glyph glyph-name="eth" unicode="&#xf0;" horiz-adv-x="546" 
d="M220 580l81 59q-39 23 -104 43l15 77q90 -24 155 -73l117 84l29 -49l-103 -75q100 -109 100 -306q0 -106 -33.5 -185.5t-97.5 -124.5t-148 -45q-94 0 -146 50t-52 140q0 82 33.5 151.5t94.5 113t135 43.5q86 0 135 -60q-11 63 -30.5 106t-51.5 74l-100 -72zM239 58
q49 0 89 29t64.5 82.5t24.5 119.5q0 58 -29 89.5t-83 31.5q-48 0 -88 -28.5t-64 -81.5t-24 -119q0 -59 29 -91t81 -32z" />
    <glyph glyph-name="ntilde" unicode="&#xf1;" horiz-adv-x="579" 
d="M364 0l51 262q16 79 16 114q0 68 -69 68q-37 0 -83 -29.5t-90 -81.5l-66 -333h-96l99 507h79l-5 -95q45 53 96.5 81.5t101.5 28.5q62 0 96 -34t34 -98q0 -22 -3.5 -46.5t-13.5 -79.5l-51 -264h-96zM391 697q25 -23 33.5 -29t18.5 -6q27 0 38 41l7 27h60q0 -17 -3 -32
q-8 -44 -37 -69.5t-71 -25.5q-25 0 -43.5 8.5t-38.5 27.5q-25 23 -33.5 29t-18.5 6q-27 0 -38 -41l-7 -27h-60q0 17 3 32q8 44 37 69.5t71 25.5q25 0 43.5 -8.5t38.5 -27.5z" />
    <glyph glyph-name="ograve" unicode="&#xf2;" horiz-adv-x="539" 
d="M225 -15q-89 0 -140.5 54t-51.5 147q0 91 35.5 167.5t100 122.5t145.5 46q89 0 140.5 -54t51.5 -147q0 -91 -35.5 -167.5t-100 -122.5t-145.5 -46zM233 63q49 0 88.5 31.5t63 89.5t23.5 132q0 61 -26.5 94.5t-75.5 33.5t-88.5 -31.5t-63 -89.5t-23.5 -132
q0 -61 26.5 -94.5t75.5 -33.5zM291 601l-95 160h112l62 -160h-79z" />
    <glyph glyph-name="oacute" unicode="&#xf3;" horiz-adv-x="539" 
d="M225 -15q-89 0 -140.5 54t-51.5 147q0 91 35.5 167.5t100 122.5t145.5 46q89 0 140.5 -54t51.5 -147q0 -91 -35.5 -167.5t-100 -122.5t-145.5 -46zM233 63q49 0 88.5 31.5t63 89.5t23.5 132q0 61 -26.5 94.5t-75.5 33.5t-88.5 -31.5t-63 -89.5t-23.5 -132
q0 -61 26.5 -94.5t75.5 -33.5zM298 601l117 160h120l-157 -160h-80z" />
    <glyph glyph-name="ocircumflex" unicode="&#xf4;" horiz-adv-x="539" 
d="M225 -15q-89 0 -140.5 54t-51.5 147q0 91 35.5 167.5t100 122.5t145.5 46q89 0 140.5 -54t51.5 -147q0 -91 -35.5 -167.5t-100 -122.5t-145.5 -46zM233 63q49 0 88.5 31.5t63 89.5t23.5 132q0 61 -26.5 94.5t-75.5 33.5t-88.5 -31.5t-63 -89.5t-23.5 -132
q0 -61 26.5 -94.5t75.5 -33.5zM436 601l-75 104l-114 -104h-88l160 161h101l98 -161h-82z" />
    <glyph glyph-name="otilde" unicode="&#xf5;" horiz-adv-x="539" 
d="M225 -15q-89 0 -140.5 54t-51.5 147q0 91 35.5 167.5t100 122.5t145.5 46q89 0 140.5 -54t51.5 -147q0 -91 -35.5 -167.5t-100 -122.5t-145.5 -46zM233 63q49 0 88.5 31.5t63 89.5t23.5 132q0 61 -26.5 94.5t-75.5 33.5t-88.5 -31.5t-63 -89.5t-23.5 -132
q0 -61 26.5 -94.5t75.5 -33.5zM378 697q25 -23 33.5 -29t18.5 -6q27 0 38 41l7 27h60q0 -17 -3 -32q-8 -44 -37 -69.5t-71 -25.5q-25 0 -43.5 8.5t-38.5 27.5q-25 23 -33.5 29t-18.5 6q-27 0 -38 -41l-7 -27h-60q0 17 3 32q8 44 37 69.5t71 25.5q25 0 43.5 -8.5t38.5 -27.5z
" />
    <glyph glyph-name="odieresis" unicode="&#xf6;" horiz-adv-x="539" 
d="M225 -15q-89 0 -140.5 54t-51.5 147q0 91 35.5 167.5t100 122.5t145.5 46q89 0 140.5 -54t51.5 -147q0 -91 -35.5 -167.5t-100 -122.5t-145.5 -46zM233 63q49 0 88.5 31.5t63 89.5t23.5 132q0 61 -26.5 94.5t-75.5 33.5t-88.5 -31.5t-63 -89.5t-23.5 -132
q0 -61 26.5 -94.5t75.5 -33.5zM244 594q-52 0 -52 49q0 28 19.5 47t47.5 19q52 0 52 -49q0 -28 -19.5 -47t-47.5 -19zM459 594q-52 0 -52 49q0 28 19.5 47t47.5 19q52 0 52 -49q0 -28 -19.5 -47t-47.5 -19z" />
    <glyph glyph-name="divide" unicode="&#xf7;" 
d="M337 469q-23 0 -37 13t-14 35q0 28 19.5 48.5t46.5 20.5q23 0 37 -13t14 -35q0 -28 -19.5 -48.5t-46.5 -20.5zM77 309l15 78h451l-15 -78h-451zM270 110q-23 0 -37 13t-14 35q0 28 19.5 48.5t46.5 20.5q23 0 37 -13t14 -35q0 -28 -19.5 -48.5t-46.5 -20.5z" />
    <glyph glyph-name="oslash" unicode="&#xf8;" horiz-adv-x="539" 
d="M-16 7l72 72q-23 46 -23 107q0 91 35.5 167.5t100 122.5t145.5 46q83 0 134 -48l65 65l42 -40l-72 -73q23 -44 23 -105q0 -91 -35.5 -167.5t-100 -122.5t-145.5 -46q-82 0 -134 47l-65 -65zM131 191q0 -9 0.5 -17.5t1.5 -16.5l250 251q-28 36 -77 36t-88.5 -31.5
t-63 -89.5t-23.5 -132zM233 63q49 0 88.5 31.5t63 89.5t23.5 132q0 13 -2 33l-250 -251q27 -35 77 -35z" />
    <glyph glyph-name="ugrave" unicode="&#xf9;" horiz-adv-x="564" 
d="M361 0l6 93q-41 -51 -93 -79.5t-103 -28.5q-59 0 -90.5 33t-31.5 97q0 45 16 128l52 264h96l-51 -262q-15 -75 -15 -118q0 -33 14.5 -47.5t46.5 -14.5q37 0 82.5 29.5t87.5 79.5l65 333h96l-98 -507h-80zM288 601l-95 160h112l62 -160h-79z" />
    <glyph glyph-name="uacute" unicode="&#xfa;" horiz-adv-x="564" 
d="M361 0l6 93q-41 -51 -93 -79.5t-103 -28.5q-59 0 -90.5 33t-31.5 97q0 45 16 128l52 264h96l-51 -262q-15 -75 -15 -118q0 -33 14.5 -47.5t46.5 -14.5q37 0 82.5 29.5t87.5 79.5l65 333h96l-98 -507h-80zM295 601l117 160h120l-157 -160h-80z" />
    <glyph glyph-name="ucircumflex" unicode="&#xfb;" horiz-adv-x="564" 
d="M361 0l6 93q-41 -51 -93 -79.5t-103 -28.5q-59 0 -90.5 33t-31.5 97q0 45 16 128l52 264h96l-51 -262q-15 -75 -15 -118q0 -33 14.5 -47.5t46.5 -14.5q37 0 82.5 29.5t87.5 79.5l65 333h96l-98 -507h-80zM433 601l-75 104l-114 -104h-88l160 161h101l98 -161h-82z" />
    <glyph glyph-name="udieresis" unicode="&#xfc;" horiz-adv-x="564" 
d="M361 0l6 93q-41 -51 -93 -79.5t-103 -28.5q-59 0 -90.5 33t-31.5 97q0 45 16 128l52 264h96l-51 -262q-15 -75 -15 -118q0 -33 14.5 -47.5t46.5 -14.5q37 0 82.5 29.5t87.5 79.5l65 333h96l-98 -507h-80zM241 594q-52 0 -52 49q0 28 19.5 47t47.5 19q52 0 52 -49
q0 -28 -19.5 -47t-47.5 -19zM456 594q-52 0 -52 49q0 28 19.5 47t47.5 19q52 0 52 -49q0 -28 -19.5 -47t-47.5 -19z" />
    <glyph glyph-name="yacute" unicode="&#xfd;" horiz-adv-x="485" 
d="M-63 -151q72 26 111 54q47 34 101 99l-103 505h101l70 -420q50 87 103.5 201t93.5 219h99q-36 -91 -88 -194.5t-107.5 -198t-100.5 -150.5q-63 -80 -118.5 -123t-118.5 -60zM247 601l117 160h120l-157 -160h-80z" />
    <glyph glyph-name="thorn" unicode="&#xfe;" horiz-adv-x="547" 
d="M204 420q42 50 88 76t93 26q63 0 96 -46t33 -131q0 -97 -37.5 -179t-105.5 -131.5t-153 -49.5q-49 0 -95 20l-41 -211h-95l184 946h96zM346 443q-70 0 -159 -111l-51 -261q40 -10 77 -10q56 0 102 34t73.5 96.5t27.5 141.5q0 110 -70 110z" />
    <glyph glyph-name="ydieresis" unicode="&#xff;" horiz-adv-x="485" 
d="M-63 -151q72 26 111 54q47 34 101 99l-103 505h101l70 -420q50 87 103.5 201t93.5 219h99q-36 -91 -88 -194.5t-107.5 -198t-100.5 -150.5q-63 -80 -118.5 -123t-118.5 -60zM193 594q-52 0 -52 49q0 28 19.5 47t47.5 19q52 0 52 -49q0 -28 -19.5 -47t-47.5 -19zM408 594
q-52 0 -52 49q0 28 19.5 47t47.5 19q52 0 52 -49q0 -28 -19.5 -47t-47.5 -19z" />
    <glyph glyph-name="Amacron" unicode="&#x100;" horiz-adv-x="612" 
d="M459 0l-26 185h-272l-97 -185h-104l380 693h108l115 -693h-104zM200 260h224l-47 338zM246 799l12 67h315l-13 -67h-314z" />
    <glyph glyph-name="amacron" unicode="&#x101;" horiz-adv-x="548" 
d="M345 0l6 92q-40 -51 -88.5 -79t-98.5 -28q-63 0 -97 44.5t-34 125.5q0 92 40.5 175.5t112 137.5t155.5 54q39 0 88 -11t89 -29l-94 -482h-79zM200 64q75 0 162 109l52 261q-46 11 -74 11q-52 0 -99.5 -36.5t-78.5 -101.5t-31 -141q0 -51 16.5 -76.5t52.5 -25.5zM207 636
l13 64h315l-13 -64h-315z" />
    <glyph glyph-name="Abreve" unicode="&#x102;" horiz-adv-x="612" 
d="M459 0l-26 185h-272l-97 -185h-104l380 693h108l115 -693h-104zM200 260h224l-47 338zM396 766q-57 0 -89.5 23t-32.5 63q0 27 11 47h61q-3 -16 -3 -26q0 -22 15.5 -32t47.5 -10q37 0 60.5 15.5t30.5 42.5l3 10h65q0 -60 -46.5 -96.5t-122.5 -36.5z" />
    <glyph glyph-name="abreve" unicode="&#x103;" horiz-adv-x="548" 
d="M345 0l6 92q-40 -51 -88.5 -79t-98.5 -28q-63 0 -97 44.5t-34 125.5q0 92 40.5 175.5t112 137.5t155.5 54q39 0 88 -11t89 -29l-94 -482h-79zM200 64q75 0 162 109l52 261q-46 11 -74 11q-52 0 -99.5 -36.5t-78.5 -101.5t-31 -141q0 -51 16.5 -76.5t52.5 -25.5zM358 599
q-59 0 -92.5 26.5t-33.5 72.5q0 23 13 52h59q-4 -23 -4 -36q0 -25 16.5 -38.5t47.5 -13.5q35 0 58.5 17t32.5 51l5 20h63q-2 -68 -47 -109.5t-118 -41.5z" />
    <glyph glyph-name="Aogonek" unicode="&#x104;" horiz-adv-x="612" 
d="M567 -200q-45 -24 -100 -24q-46 0 -70.5 18.5t-24.5 54.5q0 40 29.5 78t86.5 73h-29l-26 185h-272l-97 -185h-104l380 693h108l115 -693q-107 -70 -107 -130q0 -31 39 -31q20 0 50 11zM200 260h224l-47 338z" />
    <glyph glyph-name="aogonek" unicode="&#x105;" horiz-adv-x="548" 
d="M427 -200q-45 -24 -100 -24q-46 0 -70 19t-24 54q0 80 116 151h-4l6 92q-40 -51 -88.5 -79t-98.5 -28q-63 0 -97 44.5t-34 125.5q0 92 40.5 175.5t112 137.5t155.5 54q39 0 88 -11t89 -29l-94 -482q-109 -72 -109 -130q0 -33 41 -33q23 0 50 11zM200 64q75 0 162 109
l52 261q-46 11 -74 11q-52 0 -99.5 -36.5t-78.5 -101.5t-31 -141q0 -51 16.5 -76.5t52.5 -25.5z" />
    <glyph glyph-name="Cacute" unicode="&#x106;" horiz-adv-x="593" 
d="M539 53q-48 -34 -107 -52t-120 -18q-120 0 -187 73t-67 203q0 118 51 220.5t142.5 166t204.5 63.5q88 0 154 -36l-15 -77q-64 27 -136 27q-82 0 -149.5 -44.5t-107.5 -125.5t-40 -184q0 -97 43 -148t125 -51q42 0 90.5 14.5t94.5 40.5zM506 769h-87l116 123h123z" />
    <glyph glyph-name="cacute" unicode="&#x107;" horiz-adv-x="447" 
d="M213 -15q-83 0 -131.5 49.5t-48.5 135.5q0 90 39 170t108.5 131t152.5 51q31 0 63 -7t55 -19l-14 -72q-49 18 -95 18q-59 0 -106 -32.5t-75 -92t-28 -136.5q0 -62 23.5 -89t76.5 -27q60 0 144 47l26 -61q-41 -32 -90 -49t-100 -17zM296 601l117 160h120l-157 -160h-80z
" />
    <glyph glyph-name="Ccircumflex" unicode="&#x108;" horiz-adv-x="593" 
d="M539 53q-48 -34 -107 -52t-120 -18q-120 0 -187 73t-67 203q0 118 51 220.5t142.5 166t204.5 63.5q88 0 154 -36l-15 -77q-64 27 -136 27q-82 0 -149.5 -44.5t-107.5 -125.5t-40 -184q0 -97 43 -148t125 -51q42 0 90.5 14.5t94.5 40.5zM556 769l-72 81l-106 -81h-98
l160 135h103l104 -135h-91z" />
    <glyph glyph-name="ccircumflex" unicode="&#x109;" horiz-adv-x="447" 
d="M213 -15q-83 0 -131.5 49.5t-48.5 135.5q0 90 39 170t108.5 131t152.5 51q31 0 63 -7t55 -19l-14 -72q-49 18 -95 18q-59 0 -106 -32.5t-75 -92t-28 -136.5q0 -62 23.5 -89t76.5 -27q60 0 144 47l26 -61q-41 -32 -90 -49t-100 -17zM434 601l-75 104l-114 -104h-88
l160 161h101l98 -161h-82z" />
    <glyph glyph-name="Cdotaccent" unicode="&#x10a;" horiz-adv-x="593" 
d="M539 53q-48 -34 -107 -52t-120 -18q-120 0 -187 73t-67 203q0 118 51 220.5t142.5 166t204.5 63.5q88 0 154 -36l-15 -77q-64 27 -136 27q-82 0 -149.5 -44.5t-107.5 -125.5t-40 -184q0 -97 43 -148t125 -51q42 0 90.5 14.5t94.5 40.5zM469 779q-27 0 -41.5 13.5
t-14.5 38.5q0 29 20.5 49.5t51.5 20.5q27 0 41.5 -13.5t14.5 -38.5q0 -30 -20.5 -50t-51.5 -20z" />
    <glyph glyph-name="cdotaccent" unicode="&#x10b;" horiz-adv-x="447" 
d="M213 -15q-83 0 -131.5 49.5t-48.5 135.5q0 90 39 170t108.5 131t152.5 51q31 0 63 -7t55 -19l-14 -72q-49 18 -95 18q-59 0 -106 -32.5t-75 -92t-28 -136.5q0 -62 23.5 -89t76.5 -27q60 0 144 47l26 -61q-41 -32 -90 -49t-100 -17zM350 597q-27 0 -41 13.5t-14 37.5
q0 29 20.5 49t50.5 20q27 0 41 -13.5t14 -37.5q0 -29 -20.5 -49t-50.5 -20z" />
    <glyph glyph-name="Ccaron" unicode="&#x10c;" horiz-adv-x="593" 
d="M539 53q-48 -34 -107 -52t-120 -18q-120 0 -187 73t-67 203q0 118 51 220.5t142.5 166t204.5 63.5q88 0 154 -36l-15 -77q-64 27 -136 27q-82 0 -149.5 -44.5t-107.5 -125.5t-40 -184q0 -97 43 -148t125 -51q42 0 90.5 14.5t94.5 40.5zM512 769h-102l-105 135h108l54 -90
l93 90h113z" />
    <glyph glyph-name="ccaron" unicode="&#x10d;" horiz-adv-x="447" 
d="M213 -15q-83 0 -131.5 49.5t-48.5 135.5q0 90 39 170t108.5 131t152.5 51q31 0 63 -7t55 -19l-14 -72q-49 18 -95 18q-59 0 -106 -32.5t-75 -92t-28 -136.5q0 -62 23.5 -89t76.5 -27q60 0 144 47l26 -61q-41 -32 -90 -49t-100 -17zM389 601h-99l-99 161h98l57 -114
l101 114h103z" />
    <glyph glyph-name="Dcaron" unicode="&#x10e;" horiz-adv-x="699" 
d="M43 0l135 693h218q126 0 199 -72t73 -196q0 -117 -48 -213.5t-136 -154t-199 -57.5h-242zM262 615l-104 -537h124q80 0 144 42t101.5 120t37.5 180q0 92 -46 143.5t-128 51.5h-129zM469 769h-102l-105 135h108l54 -90l93 90h113z" />
    <glyph glyph-name="dcaron" unicode="&#x10f;" horiz-adv-x="625" 
d="M345 0l6 93q-40 -52 -88.5 -80t-98.5 -28q-63 0 -97 44.5t-34 127.5q0 90 39 173t108 137.5t149 54.5q51 0 98 -21l46 239h96l-145 -740h-79zM200 64q37 0 79 28.5t83 81.5l51 260q-39 11 -73 11q-54 0 -101.5 -36t-77.5 -100t-30 -141q0 -53 17 -78.5t52 -25.5zM607 545
l39 198q23 9 48 9q32 0 47 -15l-70 -192h-64z" />
    <glyph glyph-name="Dcroat" unicode="&#x110;" horiz-adv-x="709" 
d="M53 0l62 320h-81l15 73h80l59 300h218q126 0 199 -72t73 -196q0 -117 -48 -213.5t-136 -154t-199 -57.5h-242zM215 320l-47 -242h124q80 0 144 42t101.5 120t37.5 180q0 92 -46 143.5t-128 51.5h-129l-43 -222h157l-14 -73h-157z" />
    <glyph glyph-name="dcroat" unicode="&#x111;" horiz-adv-x="548" 
d="M345 0l6 94q-41 -51 -89.5 -80t-94.5 -29q-64 0 -99 43.5t-35 122.5q0 93 39 177.5t109 139t152 54.5q49 0 94 -21l17 92h-169l13 67h169l16 80h96l-16 -80h77l-14 -67h-76l-116 -593h-79zM202 64q35 0 76.5 28.5t83.5 81.5l51 261q-40 10 -75 10q-53 0 -100 -37
t-77 -102.5t-30 -143.5q0 -98 71 -98z" />
    <glyph glyph-name="Emacron" unicode="&#x112;" horiz-adv-x="557" 
d="M43 0l135 693h423l-16 -81h-324l-42 -215h272l-16 -80h-272l-46 -236h324l-15 -81h-423zM251 799l12 67h315l-13 -67h-314z" />
    <glyph glyph-name="emacron" unicode="&#x113;" horiz-adv-x="482" 
d="M415 49q-95 -66 -214 -66q-80 0 -124 48t-44 136q0 68 21.5 131.5t61.5 114t97 81t122 30.5q61 0 96.5 -31t35.5 -84q0 -78 -73 -135t-205 -82l-62 -12q0 -65 23 -93.5t76 -28.5q71 0 163 50zM318 450q-43 0 -81.5 -25t-66.5 -72t-38 -108l61 14q87 20 135.5 57t48.5 84
q0 23 -15.5 36.5t-43.5 13.5zM194 636l13 64h315l-13 -64h-315z" />
    <glyph glyph-name="Ebreve" unicode="&#x114;" horiz-adv-x="557" 
d="M43 0l135 693h423l-16 -81h-324l-42 -215h272l-16 -80h-272l-46 -236h324l-15 -81h-423zM401 766q-57 0 -89.5 23t-32.5 63q0 27 11 47h61q-3 -16 -3 -26q0 -22 15.5 -32t47.5 -10q37 0 60.5 15.5t30.5 42.5l3 10h65q0 -60 -46.5 -96.5t-122.5 -36.5z" />
    <glyph glyph-name="ebreve" unicode="&#x115;" horiz-adv-x="482" 
d="M415 49q-95 -66 -214 -66q-80 0 -124 48t-44 136q0 68 21.5 131.5t61.5 114t97 81t122 30.5q61 0 96.5 -31t35.5 -84q0 -78 -73 -135t-205 -82l-62 -12q0 -65 23 -93.5t76 -28.5q71 0 163 50zM318 450q-43 0 -81.5 -25t-66.5 -72t-38 -108l61 14q87 20 135.5 57t48.5 84
q0 23 -15.5 36.5t-43.5 13.5zM345 599q-59 0 -92.5 26.5t-33.5 72.5q0 23 13 52h59q-4 -23 -4 -36q0 -25 16.5 -38.5t47.5 -13.5q35 0 58.5 17t32.5 51l5 20h63q-2 -68 -47 -109.5t-118 -41.5z" />
    <glyph glyph-name="Edotaccent" unicode="&#x116;" horiz-adv-x="557" 
d="M43 0l135 693h423l-16 -81h-324l-42 -215h272l-16 -80h-272l-46 -236h324l-15 -81h-423zM406 779q-27 0 -41.5 13.5t-14.5 38.5q0 29 20.5 49.5t51.5 20.5q27 0 41.5 -13.5t14.5 -38.5q0 -30 -20.5 -50t-51.5 -20z" />
    <glyph glyph-name="edotaccent" unicode="&#x117;" horiz-adv-x="482" 
d="M415 49q-95 -66 -214 -66q-80 0 -124 48t-44 136q0 68 21.5 131.5t61.5 114t97 81t122 30.5q61 0 96.5 -31t35.5 -84q0 -78 -73 -135t-205 -82l-62 -12q0 -65 23 -93.5t76 -28.5q71 0 163 50zM318 450q-43 0 -81.5 -25t-66.5 -72t-38 -108l61 14q87 20 135.5 57t48.5 84
q0 23 -15.5 36.5t-43.5 13.5zM350 597q-27 0 -41 13.5t-14 37.5q0 29 20.5 49t50.5 20q27 0 41 -13.5t14 -37.5q0 -29 -20.5 -49t-50.5 -20z" />
    <glyph glyph-name="Eogonek" unicode="&#x118;" horiz-adv-x="557" 
d="M470 -200q-45 -24 -100 -24q-46 0 -70.5 18.5t-24.5 54.5q0 40 29.5 78t86.5 73h-348l135 693h423l-16 -81h-324l-42 -215h272l-16 -80h-272l-46 -236h324l-15 -81q-107 -70 -107 -130q0 -31 39 -31q20 0 50 11z" />
    <glyph glyph-name="eogonek" unicode="&#x119;" horiz-adv-x="482" 
d="M211 -125q0 -19 9.5 -28.5t31.5 -9.5q23 0 50 11l21 -48q-45 -24 -100 -24q-46 0 -70 19t-24 54q0 38 22.5 71t69.5 64q-5 -1 -10 -1h-10q-80 0 -124 48t-44 136q0 68 21.5 131.5t61.5 114t97 81t122 30.5q61 0 96.5 -31t35.5 -84q0 -78 -73 -135t-205 -82l-62 -12
q0 -65 23 -93.5t76 -28.5q71 0 163 50l26 -59q-19 -13 -41 -25t-66 -31q-45 -20 -71 -52t-26 -66zM318 450q-43 0 -81.5 -25t-66.5 -72t-38 -108l61 14q87 20 135.5 57t48.5 84q0 23 -15.5 36.5t-43.5 13.5z" />
    <glyph glyph-name="Ecaron" unicode="&#x11a;" horiz-adv-x="557" 
d="M43 0l135 693h423l-16 -81h-324l-42 -215h272l-16 -80h-272l-46 -236h324l-15 -81h-423zM449 769h-102l-105 135h108l54 -90l93 90h113z" />
    <glyph glyph-name="ecaron" unicode="&#x11b;" horiz-adv-x="482" 
d="M415 49q-95 -66 -214 -66q-80 0 -124 48t-44 136q0 68 21.5 131.5t61.5 114t97 81t122 30.5q61 0 96.5 -31t35.5 -84q0 -78 -73 -135t-205 -82l-62 -12q0 -65 23 -93.5t76 -28.5q71 0 163 50zM318 450q-43 0 -81.5 -25t-66.5 -72t-38 -108l61 14q87 20 135.5 57t48.5 84
q0 23 -15.5 36.5t-43.5 13.5zM389 601h-99l-99 161h98l57 -114l101 114h103z" />
    <glyph glyph-name="Gcircumflex" unicode="&#x11c;" horiz-adv-x="674" 
d="M349 64q60 0 126 22l39 202h-150l15 79h244l-64 -329q-46 -27 -104.5 -41.5t-119.5 -14.5q-133 0 -205 73.5t-72 209.5q0 86 28 165t81 142t128 100t163 37q53 0 108 -12.5t86 -31.5l-15 -75q-40 16 -88 25.5t-88 9.5q-83 0 -151 -43.5t-108.5 -124t-40.5 -183.5
q0 -210 188 -210zM561 769l-72 81l-106 -81h-98l160 135h103l104 -135h-91z" />
    <glyph glyph-name="gcircumflex" unicode="&#x11d;" horiz-adv-x="548" 
d="M350 112q-40 -50 -87.5 -77.5t-94.5 -27.5q-65 0 -100 42.5t-35 120.5q0 88 40 168t110.5 132t155.5 52q40 0 88.5 -11t90.5 -29l-82 -421q-27 -138 -102.5 -208.5t-196.5 -70.5q-81 0 -147 37l15 72q69 -30 133 -30q87 0 135 49.5t69 159.5zM203 85q36 0 78.5 30.5
t86.5 87.5l46 231q-46 11 -76 11q-54 0 -101 -35t-77 -96.5t-30 -133.5q0 -95 73 -95zM446 601l-75 104l-114 -104h-88l160 161h101l98 -161h-82z" />
    <glyph glyph-name="Gbreve" unicode="&#x11e;" horiz-adv-x="674" 
d="M349 64q60 0 126 22l39 202h-150l15 79h244l-64 -329q-46 -27 -104.5 -41.5t-119.5 -14.5q-133 0 -205 73.5t-72 209.5q0 86 28 165t81 142t128 100t163 37q53 0 108 -12.5t86 -31.5l-15 -75q-40 16 -88 25.5t-88 9.5q-83 0 -151 -43.5t-108.5 -124t-40.5 -183.5
q0 -210 188 -210zM469 766q-57 0 -89.5 23t-32.5 63q0 27 11 47h61q-3 -16 -3 -26q0 -22 15.5 -32t47.5 -10q37 0 60.5 15.5t30.5 42.5l3 10h65q0 -60 -46.5 -96.5t-122.5 -36.5z" />
    <glyph glyph-name="gbreve" unicode="&#x11f;" horiz-adv-x="548" 
d="M350 112q-40 -50 -87.5 -77.5t-94.5 -27.5q-65 0 -100 42.5t-35 120.5q0 88 40 168t110.5 132t155.5 52q40 0 88.5 -11t90.5 -29l-82 -421q-27 -138 -102.5 -208.5t-196.5 -70.5q-81 0 -147 37l15 72q69 -30 133 -30q87 0 135 49.5t69 159.5zM203 85q36 0 78.5 30.5
t86.5 87.5l46 231q-46 11 -76 11q-54 0 -101 -35t-77 -96.5t-30 -133.5q0 -95 73 -95zM357 599q-59 0 -92.5 26.5t-33.5 72.5q0 23 13 52h59q-4 -23 -4 -36q0 -25 16.5 -38.5t47.5 -13.5q35 0 58.5 17t32.5 51l5 20h63q-2 -68 -47 -109.5t-118 -41.5z" />
    <glyph glyph-name="Gdotaccent" unicode="&#x120;" horiz-adv-x="674" 
d="M349 64q60 0 126 22l39 202h-150l15 79h244l-64 -329q-46 -27 -104.5 -41.5t-119.5 -14.5q-133 0 -205 73.5t-72 209.5q0 86 28 165t81 142t128 100t163 37q53 0 108 -12.5t86 -31.5l-15 -75q-40 16 -88 25.5t-88 9.5q-83 0 -151 -43.5t-108.5 -124t-40.5 -183.5
q0 -210 188 -210zM474 779q-27 0 -41.5 13.5t-14.5 38.5q0 29 20.5 49.5t51.5 20.5q27 0 41.5 -13.5t14.5 -38.5q0 -30 -20.5 -50t-51.5 -20z" />
    <glyph glyph-name="gdotaccent" unicode="&#x121;" horiz-adv-x="548" 
d="M350 112q-40 -50 -87.5 -77.5t-94.5 -27.5q-65 0 -100 42.5t-35 120.5q0 88 40 168t110.5 132t155.5 52q40 0 88.5 -11t90.5 -29l-82 -421q-27 -138 -102.5 -208.5t-196.5 -70.5q-81 0 -147 37l15 72q69 -30 133 -30q87 0 135 49.5t69 159.5zM203 85q36 0 78.5 30.5
t86.5 87.5l46 231q-46 11 -76 11q-54 0 -101 -35t-77 -96.5t-30 -133.5q0 -95 73 -95zM362 597q-27 0 -41 13.5t-14 37.5q0 29 20.5 49t50.5 20q27 0 41 -13.5t14 -37.5q0 -29 -20.5 -49t-50.5 -20z" />
    <glyph glyph-name="uni0122" unicode="&#x122;" horiz-adv-x="674" 
d="M349 64q60 0 126 22l39 202h-150l15 79h244l-64 -329q-46 -27 -104.5 -41.5t-119.5 -14.5q-133 0 -205 73.5t-72 209.5q0 86 28 165t81 142t128 100t163 37q53 0 108 -12.5t86 -31.5l-15 -75q-40 16 -88 25.5t-88 9.5q-83 0 -151 -43.5t-108.5 -124t-40.5 -183.5
q0 -210 188 -210zM220 -278l75 213h41q43 0 43 -26q0 -10 -5.5 -22.5t-22.5 -43.5l-67 -121h-64z" />
    <glyph glyph-name="uni0123" unicode="&#x123;" horiz-adv-x="548" 
d="M350 112q-40 -50 -87.5 -77.5t-94.5 -27.5q-65 0 -100 42.5t-35 120.5q0 88 40 168t110.5 132t155.5 52q40 0 88.5 -11t90.5 -29l-82 -421q-27 -138 -102.5 -208.5t-196.5 -70.5q-81 0 -147 37l15 72q69 -30 133 -30q87 0 135 49.5t69 159.5zM203 85q36 0 78.5 30.5
t86.5 87.5l46 231q-46 11 -76 11q-54 0 -101 -35t-77 -96.5t-30 -133.5q0 -95 73 -95zM366 588q-41 0 -41 26q0 8 3.5 17.5t23.5 48.5l67 128h62l-76 -220h-39z" />
    <glyph glyph-name="Hcircumflex" unicode="&#x124;" horiz-adv-x="725" 
d="M481 0l61 314h-339l-61 -314h-99l135 693h99l-58 -298h339l58 298h99l-135 -693h-99zM543 769l-72 81l-106 -81h-98l160 135h103l104 -135h-91z" />
    <glyph glyph-name="hcircumflex" unicode="&#x125;" horiz-adv-x="579" 
d="M204 416q46 52 95.5 79t98.5 27q62 0 96 -34t34 -98q0 -22 -3.5 -46.5t-13.5 -79.5l-51 -264h-96l51 262q16 79 16 114q0 68 -69 68q-37 0 -83.5 -30t-91.5 -82l-64 -332h-96l144 740h96zM321 789l-72 81l-106 -81h-98l160 135h103l104 -135h-91z" />
    <glyph glyph-name="Hbar" unicode="&#x126;" horiz-adv-x="745" 
d="M491 0l61 314h-339l-61 -314h-99l98 502h-80l15 69h78l24 122h99l-24 -122h339l24 122h99l-24 -122h81l-15 -69h-79l-98 -502h-99zM568 395l21 107h-339l-21 -107h339z" />
    <glyph glyph-name="hbar" unicode="&#x127;" horiz-adv-x="579" 
d="M238 593l-34 -177q46 52 95.5 79t98.5 27q62 0 96 -34t34 -98q0 -22 -3.5 -46.5t-13.5 -79.5l-51 -264h-96l51 262q16 79 16 114q0 68 -69 68q-37 0 -83.5 -30t-91.5 -82l-64 -332h-96l115 593h-79l13 67h79l16 80h96l-16 -80h171l-13 -67h-171z" />
    <glyph glyph-name="Itilde" unicode="&#x128;" horiz-adv-x="295" 
d="M47 0l135 693h99l-135 -693h-99zM276 863q25 -23 33.5 -28.5t18.5 -5.5q27 0 37 40l7 26h61q0 -11 -3 -31q-8 -44 -37.5 -70t-71.5 -26q-23 0 -41.5 8t-39.5 28q-25 23 -33.5 28.5t-18.5 5.5q-27 0 -37 -40l-7 -26h-61q0 12 3 31q8 44 37.5 70t71.5 26q23 0 41.5 -8
t39.5 -28z" />
    <glyph glyph-name="itilde" unicode="&#x129;" horiz-adv-x="253" 
d="M31 0l99 507h96l-99 -507h-96zM224 697q25 -23 33.5 -29t18.5 -6q27 0 38 41l7 27h60q0 -17 -3 -32q-8 -44 -37 -69.5t-71 -25.5q-25 0 -43.5 8.5t-38.5 27.5q-25 23 -33.5 29t-18.5 6q-27 0 -38 -41l-7 -27h-60q0 17 3 32q8 44 37 69.5t71 25.5q25 0 43.5 -8.5
t38.5 -27.5z" />
    <glyph glyph-name="Imacron" unicode="&#x12a;" horiz-adv-x="295" 
d="M47 0l135 693h99l-135 -693h-99zM96 799l12 67h315l-13 -67h-314z" />
    <glyph glyph-name="imacron" unicode="&#x12b;" horiz-adv-x="253" 
d="M31 0l99 507h96l-99 -507h-96zM42 636l13 64h315l-13 -64h-315z" />
    <glyph glyph-name="Ibreve" unicode="&#x12c;" horiz-adv-x="295" 
d="M47 0l135 693h99l-135 -693h-99zM246 766q-57 0 -89.5 23t-32.5 63q0 27 11 47h61q-3 -16 -3 -26q0 -22 15.5 -32t47.5 -10q37 0 60.5 15.5t30.5 42.5l3 10h65q0 -60 -46.5 -96.5t-122.5 -36.5z" />
    <glyph glyph-name="ibreve" unicode="&#x12d;" horiz-adv-x="253" 
d="M31 0l99 507h96l-99 -507h-96zM193 599q-59 0 -92.5 26.5t-33.5 72.5q0 23 13 52h59q-4 -23 -4 -36q0 -25 16.5 -38.5t47.5 -13.5q35 0 58.5 17t32.5 51l5 20h63q-2 -68 -47 -109.5t-118 -41.5z" />
    <glyph glyph-name="Iogonek" unicode="&#x12e;" horiz-adv-x="295" 
d="M150 -200q-45 -24 -100 -24q-46 0 -70.5 18.5t-24.5 54.5q0 39 29.5 77.5t86.5 73.5h-24l135 693h99l-135 -693q-107 -70 -107 -130q0 -31 39 -31q20 0 50 11z" />
    <glyph glyph-name="iogonek" unicode="&#x12f;" horiz-adv-x="253" 
d="M130 -200q-45 -24 -100 -24q-46 0 -70 19t-24 54q0 79 116 151h-21l99 507h96l-99 -507q-109 -72 -109 -130q0 -33 41 -33q23 0 50 11zM198 597q-26 0 -40.5 13t-14.5 38q0 29 20.5 49t50.5 20q26 0 40.5 -13t14.5 -38q0 -29 -20.5 -49t-50.5 -20z" />
    <glyph glyph-name="Idotaccent" unicode="&#x130;" horiz-adv-x="295" 
d="M47 0l135 693h99l-135 -693h-99zM251 779q-27 0 -41.5 13.5t-14.5 38.5q0 29 20.5 49.5t51.5 20.5q27 0 41.5 -13.5t14.5 -38.5q0 -30 -20.5 -50t-51.5 -20z" />
    <glyph glyph-name="dotlessi" unicode="&#x131;" horiz-adv-x="253" 
d="M31 0l99 507h96l-99 -507h-96z" />
    <glyph glyph-name="IJ" unicode="&#x132;" horiz-adv-x="695" 
d="M593 693h99l-98 -502q-40 -208 -223 -208q-61 0 -130 33l14 76q66 -22 114 -22q55 0 85 31.5t44 102.5zM47 0l135 693h99l-135 -693h-99z" />
    <glyph glyph-name="ij" unicode="&#x133;" horiz-adv-x="506" 
d="M143 -133q29 -8 56 -8q31 0 48 19t26 66l110 563h96l-110 -563q-31 -162 -147 -162q-55 0 -92 21zM451 597q-26 0 -40.5 13t-14.5 38q0 29 20.5 49t50.5 20q26 0 40.5 -13t14.5 -38q0 -29 -20.5 -49t-50.5 -20zM198 597q-26 0 -40.5 13t-14.5 38q0 29 20.5 49t50.5 20
q26 0 40.5 -13t14.5 -38q0 -29 -20.5 -49t-50.5 -20zM31 0l99 507h96l-99 -507h-96z" />
    <glyph glyph-name="Jcircumflex" unicode="&#x134;" horiz-adv-x="427" 
d="M325 693h99l-98 -502q-40 -208 -223 -208q-61 0 -130 33l14 76q66 -22 114 -22q55 0 85 31.5t44 102.5zM481 769l-72 81l-106 -81h-98l160 135h103l104 -135h-91z" />
    <glyph glyph-name="jcircumflex" unicode="&#x135;" horiz-adv-x="253" 
d="M-110 -133q29 -8 56 -8q31 0 48 19t26 66l110 563h96l-110 -563q-31 -162 -147 -162q-55 0 -92 21zM282 601l-75 104l-114 -104h-88l160 161h101l98 -161h-82z" />
    <glyph glyph-name="uni0136" unicode="&#x136;" horiz-adv-x="599" 
d="M43 0l135 693h99l-59 -302l336 302h126l-375 -333l254 -360h-115l-237 336l-65 -336h-99zM167 -278l75 213h41q43 0 43 -26q0 -10 -5.5 -22.5t-22.5 -43.5l-67 -121h-64z" />
    <glyph glyph-name="uni0137" unicode="&#x137;" horiz-adv-x="499" 
d="M27 0l144 740h96l-87 -445l232 212h125l-271 -237l199 -270h-112l-182 249l-48 -249h-96zM114 -278l75 213h39q21 0 31 -6.5t10 -20.5q0 -10 -5.5 -23.5t-21.5 -41.5l-66 -121h-62z" />
    <glyph glyph-name="kgreenlandic" unicode="&#x138;" horiz-adv-x="494" 
d="M27 0l99 507h96l-45 -231l235 231h120l-269 -253l205 -254h-115l-185 230l-45 -230h-96z" />
    <glyph glyph-name="Lacute" unicode="&#x139;" horiz-adv-x="518" 
d="M43 0l135 693h99l-119 -611h314l-16 -82h-413zM284 769h-87l116 123h123z" />
    <glyph glyph-name="lacute" unicode="&#x13a;" horiz-adv-x="283" 
d="M242 20q-44 -25 -96 -25q-46 0 -71 24.5t-25 70.5q0 31 11 83l110 567h96l-110 -567q-10 -51 -10 -70q0 -15 9.5 -23.5t26.5 -8.5q21 0 39 6zM270 789h-87l116 123h123z" />
    <glyph glyph-name="uni013B" unicode="&#x13b;" horiz-adv-x="518" 
d="M43 0l135 693h99l-119 -611h314l-16 -82h-413zM131 -278l75 213h41q43 0 43 -26q0 -10 -5.5 -22.5t-22.5 -43.5l-67 -121h-64z" />
    <glyph glyph-name="uni013C" unicode="&#x13c;" horiz-adv-x="283" 
d="M242 20q-44 -25 -96 -25q-46 0 -71 24.5t-25 70.5q0 31 11 83l110 567h96l-110 -567q-10 -51 -10 -70q0 -15 9.5 -23.5t26.5 -8.5q21 0 39 6zM-4 -278l75 213h39q21 0 31 -6.5t10 -20.5q0 -10 -5.5 -23.5t-21.5 -41.5l-66 -121h-62z" />
    <glyph glyph-name="Lcaron" unicode="&#x13d;" horiz-adv-x="518" 
d="M43 0l135 693h99l-119 -611h314l-16 -82h-413zM349 525l39 198q23 9 48 9q32 0 47 -15l-70 -192h-64z" />
    <glyph glyph-name="lcaron" unicode="&#x13e;" horiz-adv-x="323" 
d="M242 20q-44 -25 -96 -25q-46 0 -71 24.5t-25 70.5q0 31 11 83l110 567h96l-110 -567q-10 -51 -10 -70q0 -15 9.5 -23.5t26.5 -8.5q21 0 39 6zM305 545l39 198q23 9 48 9q32 0 47 -15l-70 -192h-64z" />
    <glyph glyph-name="Ldot" unicode="&#x13f;" horiz-adv-x="518" 
d="M43 0l135 693h99l-119 -611h314l-16 -82h-413zM408 319q-25 0 -39 13t-14 35q0 28 19 48t47 20q25 0 39 -13t14 -35q0 -28 -19 -48t-47 -20z" />
    <glyph glyph-name="ldot" unicode="&#x140;" horiz-adv-x="365" 
d="M242 20q-44 -25 -96 -25q-46 0 -71 24.5t-25 70.5q0 31 11 83l110 567h96l-110 -567q-10 -51 -10 -70q0 -15 9.5 -23.5t26.5 -8.5q21 0 39 6zM321 308q-25 0 -39 13t-14 35q0 28 19 48t47 20q25 0 39 -13t14 -35q0 -28 -19 -48t-47 -20z" />
    <glyph glyph-name="Lslash" unicode="&#x141;" horiz-adv-x="508" 
d="M43 0l48 247l-90 -48l16 84l90 48l71 362h99l-59 -304l192 102l-17 -83l-192 -102l-43 -224h314l-16 -82h-413z" />
    <glyph glyph-name="lslash" unicode="&#x142;" horiz-adv-x="283" 
d="M242 20q-44 -25 -96 -25q-46 0 -71 24.5t-25 70.5q0 31 11 83l24 125l-89 -47l15 77l89 47l71 365h96l-60 -308l104 55l-15 -77l-104 -55l-35 -182q-10 -51 -10 -70q0 -15 9.5 -23.5t26.5 -8.5q21 0 39 6z" />
    <glyph glyph-name="Nacute" unicode="&#x143;" horiz-adv-x="717" 
d="M465 0l-219 557l-108 -557h-95l135 693h107l219 -556l108 556h95l-135 -693h-107zM495 769h-87l116 123h123z" />
    <glyph glyph-name="nacute" unicode="&#x144;" horiz-adv-x="579" 
d="M364 0l51 262q16 79 16 114q0 68 -69 68q-37 0 -83 -29.5t-90 -81.5l-66 -333h-96l99 507h79l-5 -95q45 53 96.5 81.5t101.5 28.5q62 0 96 -34t34 -98q0 -22 -3.5 -46.5t-13.5 -79.5l-51 -264h-96zM311 601l117 160h120l-157 -160h-80z" />
    <glyph glyph-name="uni0145" unicode="&#x145;" horiz-adv-x="717" 
d="M465 0l-219 557l-108 -557h-95l135 693h107l219 -556l108 556h95l-135 -693h-107zM189 -278l75 213h41q43 0 43 -26q0 -10 -5.5 -22.5t-22.5 -43.5l-67 -121h-64z" />
    <glyph glyph-name="uni0146" unicode="&#x146;" horiz-adv-x="579" 
d="M364 0l51 262q16 79 16 114q0 68 -69 68q-37 0 -83 -29.5t-90 -81.5l-66 -333h-96l99 507h79l-5 -95q45 53 96.5 81.5t101.5 28.5q62 0 96 -34t34 -98q0 -22 -3.5 -46.5t-13.5 -79.5l-51 -264h-96zM127 -278l75 213h39q21 0 31 -6.5t10 -20.5q0 -10 -5.5 -23.5
t-21.5 -41.5l-66 -121h-62z" />
    <glyph glyph-name="Ncaron" unicode="&#x147;" horiz-adv-x="717" 
d="M465 0l-219 557l-108 -557h-95l135 693h107l219 -556l108 556h95l-135 -693h-107zM501 769h-102l-105 135h108l54 -90l93 90h113z" />
    <glyph glyph-name="ncaron" unicode="&#x148;" horiz-adv-x="579" 
d="M364 0l51 262q16 79 16 114q0 68 -69 68q-37 0 -83 -29.5t-90 -81.5l-66 -333h-96l99 507h79l-5 -95q45 53 96.5 81.5t101.5 28.5q62 0 96 -34t34 -98q0 -22 -3.5 -46.5t-13.5 -79.5l-51 -264h-96zM404 601h-99l-99 161h98l57 -114l101 114h103z" />
    <glyph glyph-name="napostrophe" unicode="&#x149;" horiz-adv-x="741" 
d="M526 0l51 262q16 79 16 114q0 68 -69 68q-37 0 -83 -29.5t-90 -81.5l-66 -333h-96l99 507h79l-5 -95q45 53 96.5 81.5t101.5 28.5q62 0 96 -34t34 -98q0 -22 -3.5 -46.5t-13.5 -79.5l-51 -264h-96zM228 693q25 0 36 -7.5t11 -24.5q0 -21 -23 -60l-92 -161h-69l92 253h45z
" />
    <glyph glyph-name="Eng" unicode="&#x14a;" horiz-adv-x="717" 
d="M246 559l-108 -559h-95l135 693h107l221 -546l106 546h95l-137 -703q-40 -208 -223 -208q-61 0 -130 33l14 76q66 -22 114 -22q54 0 85 30t44 94l1 5z" />
    <glyph glyph-name="eng" unicode="&#x14b;" horiz-adv-x="579" 
d="M274 -218q-57 0 -93 21l13 65q33 -9 68 -9q42 0 62 20t30 71l61 312q16 80 16 114q0 68 -69 68q-37 0 -83 -29.5t-90 -81.5l-66 -333h-96l99 507h79l-5 -95q45 53 96.5 81.5t101.5 28.5q62 0 96 -34t34 -98q0 -22 -3.5 -46.5t-13.5 -79.5l-61 -315q-16 -85 -59 -126
t-117 -41z" />
    <glyph glyph-name="Omacron" unicode="&#x14c;" horiz-adv-x="748" 
d="M337 67q77 0 138.5 44t98 125.5t36.5 186.5q0 94 -47.5 147.5t-129.5 53.5q-76 0 -138 -44t-98.5 -126t-36.5 -187q0 -93 47.5 -146.5t129.5 -53.5zM325 -17q-81 0 -141 33t-93 95t-33 148q0 124 48 226t136.5 162.5t202.5 60.5q123 0 195 -74.5t72 -202.5
q0 -124 -48 -225.5t-136.5 -162t-202.5 -60.5zM320 799l12 67h315l-13 -67h-314z" />
    <glyph glyph-name="omacron" unicode="&#x14d;" horiz-adv-x="539" 
d="M225 -15q-89 0 -140.5 54t-51.5 147q0 91 35.5 167.5t100 122.5t145.5 46q89 0 140.5 -54t51.5 -147q0 -91 -35.5 -167.5t-100 -122.5t-145.5 -46zM233 63q49 0 88.5 31.5t63 89.5t23.5 132q0 61 -26.5 94.5t-75.5 33.5t-88.5 -31.5t-63 -89.5t-23.5 -132
q0 -61 26.5 -94.5t75.5 -33.5zM196 636l13 64h315l-13 -64h-315z" />
    <glyph glyph-name="Obreve" unicode="&#x14e;" horiz-adv-x="748" 
d="M337 67q77 0 138.5 44t98 125.5t36.5 186.5q0 94 -47.5 147.5t-129.5 53.5q-76 0 -138 -44t-98.5 -126t-36.5 -187q0 -93 47.5 -146.5t129.5 -53.5zM325 -17q-81 0 -141 33t-93 95t-33 148q0 124 48 226t136.5 162.5t202.5 60.5q123 0 195 -74.5t72 -202.5
q0 -124 -48 -225.5t-136.5 -162t-202.5 -60.5zM470 766q-57 0 -89.5 23t-32.5 63q0 27 11 47h61q-3 -16 -3 -26q0 -22 15.5 -32t47.5 -10q37 0 60.5 15.5t30.5 42.5l3 10h65q0 -60 -46.5 -96.5t-122.5 -36.5z" />
    <glyph glyph-name="obreve" unicode="&#x14f;" horiz-adv-x="539" 
d="M225 -15q-89 0 -140.5 54t-51.5 147q0 91 35.5 167.5t100 122.5t145.5 46q89 0 140.5 -54t51.5 -147q0 -91 -35.5 -167.5t-100 -122.5t-145.5 -46zM233 63q49 0 88.5 31.5t63 89.5t23.5 132q0 61 -26.5 94.5t-75.5 33.5t-88.5 -31.5t-63 -89.5t-23.5 -132
q0 -61 26.5 -94.5t75.5 -33.5zM347 599q-59 0 -92.5 26.5t-33.5 72.5q0 23 13 52h59q-4 -23 -4 -36q0 -25 16.5 -38.5t47.5 -13.5q35 0 58.5 17t32.5 51l5 20h63q-2 -68 -47 -109.5t-118 -41.5z" />
    <glyph glyph-name="Ohungarumlaut" unicode="&#x150;" horiz-adv-x="748" 
d="M337 67q77 0 138.5 44t98 125.5t36.5 186.5q0 94 -47.5 147.5t-129.5 53.5q-76 0 -138 -44t-98.5 -126t-36.5 -187q0 -93 47.5 -146.5t129.5 -53.5zM325 -17q-81 0 -141 33t-93 95t-33 148q0 124 48 226t136.5 162.5t202.5 60.5q123 0 195 -74.5t72 -202.5
q0 -124 -48 -225.5t-136.5 -162t-202.5 -60.5zM409 769h-87l119 123h119zM590 769h-87l120 123h119z" />
    <glyph glyph-name="ohungarumlaut" unicode="&#x151;" horiz-adv-x="539" 
d="M225 -15q-89 0 -140.5 54t-51.5 147q0 91 35.5 167.5t100 122.5t145.5 46q89 0 140.5 -54t51.5 -147q0 -91 -35.5 -167.5t-100 -122.5t-145.5 -46zM233 63q49 0 88.5 31.5t63 89.5t23.5 132q0 61 -26.5 94.5t-75.5 33.5t-88.5 -31.5t-63 -89.5t-23.5 -132
q0 -61 26.5 -94.5t75.5 -33.5zM189 601l122 160h116l-157 -160h-81zM372 601l123 160h116l-158 -160h-81z" />
    <glyph glyph-name="OE" unicode="&#x152;" horiz-adv-x="1029" 
d="M517 0l14 74q-91 -91 -213 -91q-120 0 -190 75t-70 205q0 123 45.5 224t130.5 161t194 60q70 0 122.5 -29t82.5 -84l19 98h421l-16 -81h-324l-42 -215h272l-16 -80h-272l-46 -236h324l-15 -81h-421zM324 67q74 0 134.5 44t96 125.5t35.5 187.5q0 93 -45 146.5t-122 53.5
q-74 0 -133.5 -44t-94 -125.5t-34.5 -187.5q0 -94 43.5 -147t119.5 -53z" />
    <glyph glyph-name="oe" unicode="&#x153;" horiz-adv-x="846" 
d="M414 90q-36 -51 -84.5 -78t-104.5 -27q-89 0 -140.5 54t-51.5 147q0 91 35.5 167.5t100 122.5t145.5 46q60 0 103 -31t60 -87q41 56 99 87t123 31q61 0 96.5 -31t35.5 -84q0 -77 -72.5 -133t-205.5 -82l-65 -13q0 -64 23.5 -91.5t78.5 -27.5q71 0 163 50l26 -59
q-95 -66 -214 -66q-58 0 -96.5 26.5t-54.5 78.5zM233 63q49 0 88.5 31.5t63 89.5t23.5 132q0 61 -26.5 94.5t-75.5 33.5t-88.5 -31.5t-63 -89.5t-23.5 -132q0 -61 26.5 -94.5t75.5 -33.5zM682 448q-44 0 -83 -25t-67.5 -71.5t-38.5 -107.5l64 15q88 20 136 56t48 83
q0 23 -15.5 36.5t-43.5 13.5z" />
    <glyph glyph-name="Racute" unicode="&#x154;" horiz-adv-x="610" 
d="M442 0l-114 280h-24h-110l-54 -280h-97l135 693h201q101 0 157 -48t56 -134q0 -79 -45.5 -135t-128.5 -80l125 -296h-101zM210 359h101q86 0 134.5 39t48.5 108q0 54 -33 81t-102 27h-100zM428 769h-87l116 123h123z" />
    <glyph glyph-name="racute" unicode="&#x155;" horiz-adv-x="369" 
d="M27 0l99 507h79l-6 -98q71 102 163 102q22 0 41 -4l-17 -89q-30 4 -45 4q-85 0 -152 -85l-66 -337h-96zM226 601l117 160h120l-157 -160h-80z" />
    <glyph glyph-name="uni0156" unicode="&#x156;" horiz-adv-x="610" 
d="M442 0l-114 280h-24h-110l-54 -280h-97l135 693h201q101 0 157 -48t56 -134q0 -79 -45.5 -135t-128.5 -80l125 -296h-101zM210 359h101q86 0 134.5 39t48.5 108q0 54 -33 81t-102 27h-100zM165 -278l75 213h41q43 0 43 -26q0 -10 -5.5 -22.5t-22.5 -43.5l-67 -121h-64z
" />
    <glyph glyph-name="uni0157" unicode="&#x157;" horiz-adv-x="369" 
d="M27 0l99 507h79l-6 -98q71 102 163 102q22 0 41 -4l-17 -89q-30 4 -45 4q-85 0 -152 -85l-66 -337h-96zM-48 -278l75 213h39q21 0 31 -6.5t10 -20.5q0 -10 -5.5 -23.5t-21.5 -41.5l-66 -121h-62z" />
    <glyph glyph-name="Rcaron" unicode="&#x158;" horiz-adv-x="610" 
d="M442 0l-114 280h-24h-110l-54 -280h-97l135 693h201q101 0 157 -48t56 -134q0 -79 -45.5 -135t-128.5 -80l125 -296h-101zM210 359h101q86 0 134.5 39t48.5 108q0 54 -33 81t-102 27h-100zM434 769h-102l-105 135h108l54 -90l93 90h113z" />
    <glyph glyph-name="rcaron" unicode="&#x159;" horiz-adv-x="369" 
d="M27 0l99 507h79l-6 -98q71 102 163 102q22 0 41 -4l-17 -89q-30 4 -45 4q-85 0 -152 -85l-66 -337h-96zM319 601h-99l-99 161h98l57 -114l101 114h103z" />
    <glyph glyph-name="Sacute" unicode="&#x15a;" horiz-adv-x="541" 
d="M231 326q-72 34 -104 74t-32 98q0 59 31.5 107t89.5 76.5t133 28.5q47 0 92 -12t81 -34l-15 -74q-36 18 -76.5 28t-77.5 10q-74 0 -117 -32t-43 -87q0 -33 21 -57t69 -45l70 -32q71 -32 100.5 -70.5t29.5 -96.5q0 -63 -33 -114t-95 -81t-143 -30q-121 0 -201 51l16 74
q96 -42 186 -42q48 0 86.5 15.5t61.5 44.5t23 67q0 34 -21.5 58.5t-73.5 47.5zM393 769h-87l116 123h123z" />
    <glyph glyph-name="sacute" unicode="&#x15b;" horiz-adv-x="430" 
d="M165 236q-47 26 -69 56.5t-22 71.5q0 44 23.5 80t67 57t100.5 21q82 0 143 -33l-13 -69q-29 13 -63.5 20t-65.5 7q-47 0 -73 -19.5t-26 -53.5q0 -39 56 -69l60 -34q48 -26 68.5 -54t20.5 -69q0 -74 -54 -118.5t-144 -44.5q-46 0 -91.5 10t-77.5 28l14 70q33 -15 76.5 -24
t80.5 -9q48 0 75 20.5t27 57.5q0 21 -12.5 36t-42.5 31zM242 601l117 160h120l-157 -160h-80z" />
    <glyph glyph-name="Scircumflex" unicode="&#x15c;" horiz-adv-x="541" 
d="M231 326q-72 34 -104 74t-32 98q0 59 31.5 107t89.5 76.5t133 28.5q47 0 92 -12t81 -34l-15 -74q-36 18 -76.5 28t-77.5 10q-74 0 -117 -32t-43 -87q0 -33 21 -57t69 -45l70 -32q71 -32 100.5 -70.5t29.5 -96.5q0 -63 -33 -114t-95 -81t-143 -30q-121 0 -201 51l16 74
q96 -42 186 -42q48 0 86.5 15.5t61.5 44.5t23 67q0 34 -21.5 58.5t-73.5 47.5zM443 769l-72 81l-106 -81h-98l160 135h103l104 -135h-91z" />
    <glyph glyph-name="scircumflex" unicode="&#x15d;" horiz-adv-x="430" 
d="M165 236q-47 26 -69 56.5t-22 71.5q0 44 23.5 80t67 57t100.5 21q82 0 143 -33l-13 -69q-29 13 -63.5 20t-65.5 7q-47 0 -73 -19.5t-26 -53.5q0 -39 56 -69l60 -34q48 -26 68.5 -54t20.5 -69q0 -74 -54 -118.5t-144 -44.5q-46 0 -91.5 10t-77.5 28l14 70q33 -15 76.5 -24
t80.5 -9q48 0 75 20.5t27 57.5q0 21 -12.5 36t-42.5 31zM380 601l-75 104l-114 -104h-88l160 161h101l98 -161h-82z" />
    <glyph glyph-name="Scedilla" unicode="&#x15e;" horiz-adv-x="541" 
d="M231 326q-72 34 -104 74t-32 98q0 59 31.5 107t89.5 76.5t133 28.5q47 0 92 -12t81 -34l-15 -74q-36 18 -76.5 28t-77.5 10q-74 0 -117 -32t-43 -87q0 -33 21 -57t69 -45l70 -32q71 -32 100.5 -70.5t29.5 -96.5q0 -63 -33 -114t-95 -81t-143 -30q-121 0 -201 51l16 74
q96 -42 186 -42q48 0 86.5 15.5t61.5 44.5t23 67q0 34 -21.5 58.5t-73.5 47.5zM95 -242q52 30 76.5 52.5t24.5 41.5q0 12 -7.5 17.5t-24.5 5.5q-14 0 -36 -3l11 56q28 9 60 9q37 0 58 -17t21 -47q0 -81 -147 -154z" />
    <glyph glyph-name="scedilla" unicode="&#x15f;" horiz-adv-x="430" 
d="M165 236q-47 26 -69 56.5t-22 71.5q0 44 23.5 80t67 57t100.5 21q82 0 143 -33l-13 -69q-29 13 -63.5 20t-65.5 7q-47 0 -73 -19.5t-26 -53.5q0 -39 56 -69l60 -34q48 -26 68.5 -54t20.5 -69q0 -74 -54 -118.5t-144 -44.5q-46 0 -91.5 10t-77.5 28l14 70q33 -15 76.5 -24
t80.5 -9q48 0 75 20.5t27 57.5q0 21 -12.5 36t-42.5 31zM45 -243q53 30 77.5 53t24.5 42q0 25 -34 25q-14 0 -36 -3l11 54q28 9 60 9q37 0 58 -17t21 -47q0 -81 -147 -154z" />
    <glyph glyph-name="Scaron" unicode="&#x160;" horiz-adv-x="541" 
d="M231 326q-72 34 -104 74t-32 98q0 59 31.5 107t89.5 76.5t133 28.5q47 0 92 -12t81 -34l-15 -74q-36 18 -76.5 28t-77.5 10q-74 0 -117 -32t-43 -87q0 -33 21 -57t69 -45l70 -32q71 -32 100.5 -70.5t29.5 -96.5q0 -63 -33 -114t-95 -81t-143 -30q-121 0 -201 51l16 74
q96 -42 186 -42q48 0 86.5 15.5t61.5 44.5t23 67q0 34 -21.5 58.5t-73.5 47.5zM399 769h-102l-105 135h108l54 -90l93 90h113z" />
    <glyph glyph-name="scaron" unicode="&#x161;" horiz-adv-x="430" 
d="M165 236q-47 26 -69 56.5t-22 71.5q0 44 23.5 80t67 57t100.5 21q82 0 143 -33l-13 -69q-29 13 -63.5 20t-65.5 7q-47 0 -73 -19.5t-26 -53.5q0 -39 56 -69l60 -34q48 -26 68.5 -54t20.5 -69q0 -74 -54 -118.5t-144 -44.5q-46 0 -91.5 10t-77.5 28l14 70q33 -15 76.5 -24
t80.5 -9q48 0 75 20.5t27 57.5q0 21 -12.5 36t-42.5 31zM335 601h-99l-99 161h98l57 -114l101 114h103z" />
    <glyph glyph-name="uni0162" unicode="&#x162;" horiz-adv-x="563" 
d="M176 0l119 611h-215l16 82h527l-16 -82h-213l-119 -611h-99zM91 -242q52 30 76.5 52.5t24.5 41.5q0 12 -7.5 17.5t-24.5 5.5q-14 0 -36 -3l11 56q28 9 60 9q37 0 58 -17t21 -47q0 -81 -147 -154z" />
    <glyph glyph-name="uni0163" unicode="&#x163;" horiz-adv-x="386" 
d="M340 36q-27 -20 -63 -31.5t-72 -11.5q-128 0 -128 109q0 27 15 103l45 226h-92l12 62l97 12l43 144h78l-28 -142h147l-14 -76h-147l-43 -220q-14 -71 -14 -93q0 -25 13 -36t43 -11q41 0 86 21zM60 -243q53 30 77.5 53t24.5 42q0 25 -34 25q-14 0 -36 -3l11 54q28 9 60 9
q37 0 58 -17t21 -47q0 -81 -147 -154z" />
    <glyph glyph-name="Tcaron" unicode="&#x164;" horiz-adv-x="563" 
d="M176 0l119 611h-215l16 82h527l-16 -82h-213l-119 -611h-99zM423 769h-102l-105 135h108l54 -90l93 90h113z" />
    <glyph glyph-name="tcaron" unicode="&#x165;" horiz-adv-x="431" 
d="M340 36q-27 -20 -63 -31.5t-72 -11.5q-128 0 -128 109q0 27 15 103l45 226h-92l12 62l97 12l43 144h78l-28 -142h147l-14 -76h-147l-43 -220q-14 -71 -14 -93q0 -25 13 -36t43 -11q41 0 86 21zM341 574l31 174q23 9 48 9q32 0 47 -14l-63 -169h-63z" />
    <glyph glyph-name="Tbar" unicode="&#x166;" horiz-adv-x="563" 
d="M176 0l61 315h-140l13 69h141l44 227h-215l16 82h527l-16 -82h-213l-44 -227h140l-13 -69h-141l-61 -315h-99z" />
    <glyph glyph-name="tbar" unicode="&#x167;" horiz-adv-x="426" 
d="M360 36q-27 -20 -63 -31.5t-72 -11.5q-128 0 -128 109q0 27 15 103l5 26h-90l13 66h90l27 134h-92l12 62l97 12l43 144h78l-28 -142h147l-14 -76h-147l-26 -134h144l-13 -66h-144l-4 -20q-14 -71 -14 -93q0 -25 13 -36t43 -11q41 0 86 21z" />
    <glyph glyph-name="Utilde" unicode="&#x168;" horiz-adv-x="701" 
d="M599 693h99l-89 -457q-24 -122 -101 -187.5t-196 -65.5q-111 0 -171.5 53t-60.5 149q0 28 4.5 62t16.5 96l68 350h99l-69 -354q-22 -113 -22 -143q0 -62 36.5 -94.5t105.5 -32.5q78 0 126.5 41t63.5 120zM466 863q25 -23 33.5 -28.5t18.5 -5.5q27 0 37 40l7 26h61
q0 -11 -3 -31q-8 -44 -37.5 -70t-71.5 -26q-23 0 -41.5 8t-39.5 28q-25 23 -33.5 28.5t-18.5 5.5q-27 0 -37 -40l-7 -26h-61q0 12 3 31q8 44 37.5 70t71.5 26q23 0 41.5 -8t39.5 -28z" />
    <glyph glyph-name="utilde" unicode="&#x169;" horiz-adv-x="564" 
d="M361 0l6 93q-41 -51 -93 -79.5t-103 -28.5q-59 0 -90.5 33t-31.5 97q0 45 16 128l52 264h96l-51 -262q-15 -75 -15 -118q0 -33 14.5 -47.5t46.5 -14.5q37 0 82.5 29.5t87.5 79.5l65 333h96l-98 -507h-80zM375 697q25 -23 33.5 -29t18.5 -6q27 0 38 41l7 27h60
q0 -17 -3 -32q-8 -44 -37 -69.5t-71 -25.5q-25 0 -43.5 8.5t-38.5 27.5q-25 23 -33.5 29t-18.5 6q-27 0 -38 -41l-7 -27h-60q0 17 3 32q8 44 37 69.5t71 25.5q25 0 43.5 -8.5t38.5 -27.5z" />
    <glyph glyph-name="Umacron" unicode="&#x16a;" horiz-adv-x="701" 
d="M599 693h99l-89 -457q-24 -122 -101 -187.5t-196 -65.5q-111 0 -171.5 53t-60.5 149q0 28 4.5 62t16.5 96l68 350h99l-69 -354q-22 -113 -22 -143q0 -62 36.5 -94.5t105.5 -32.5q78 0 126.5 41t63.5 120zM286 799l12 67h315l-13 -67h-314z" />
    <glyph glyph-name="umacron" unicode="&#x16b;" horiz-adv-x="564" 
d="M361 0l6 93q-41 -51 -93 -79.5t-103 -28.5q-59 0 -90.5 33t-31.5 97q0 45 16 128l52 264h96l-51 -262q-15 -75 -15 -118q0 -33 14.5 -47.5t46.5 -14.5q37 0 82.5 29.5t87.5 79.5l65 333h96l-98 -507h-80zM193 636l13 64h315l-13 -64h-315z" />
    <glyph glyph-name="Ubreve" unicode="&#x16c;" horiz-adv-x="701" 
d="M599 693h99l-89 -457q-24 -122 -101 -187.5t-196 -65.5q-111 0 -171.5 53t-60.5 149q0 28 4.5 62t16.5 96l68 350h99l-69 -354q-22 -113 -22 -143q0 -62 36.5 -94.5t105.5 -32.5q78 0 126.5 41t63.5 120zM436 766q-57 0 -89.5 23t-32.5 63q0 27 11 47h61q-3 -16 -3 -26
q0 -22 15.5 -32t47.5 -10q37 0 60.5 15.5t30.5 42.5l3 10h65q0 -60 -46.5 -96.5t-122.5 -36.5z" />
    <glyph glyph-name="ubreve" unicode="&#x16d;" horiz-adv-x="564" 
d="M361 0l6 93q-41 -51 -93 -79.5t-103 -28.5q-59 0 -90.5 33t-31.5 97q0 45 16 128l52 264h96l-51 -262q-15 -75 -15 -118q0 -33 14.5 -47.5t46.5 -14.5q37 0 82.5 29.5t87.5 79.5l65 333h96l-98 -507h-80zM344 599q-59 0 -92.5 26.5t-33.5 72.5q0 23 13 52h59
q-4 -23 -4 -36q0 -25 16.5 -38.5t47.5 -13.5q35 0 58.5 17t32.5 51l5 20h63q-2 -68 -47 -109.5t-118 -41.5z" />
    <glyph glyph-name="Uring" unicode="&#x16e;" horiz-adv-x="701" 
d="M599 693h99l-89 -457q-24 -122 -101 -187.5t-196 -65.5q-111 0 -171.5 53t-60.5 149q0 28 4.5 62t16.5 96l68 350h99l-69 -354q-22 -113 -22 -143q0 -62 36.5 -94.5t105.5 -32.5q78 0 126.5 41t63.5 120zM439 737q-44 0 -70 22t-26 60q0 49 36.5 81.5t89.5 32.5
q44 0 70 -22t26 -60q0 -49 -36.5 -81.5t-89.5 -32.5zM445 786q24 0 40.5 18t16.5 43q0 17 -10.5 27t-28.5 10q-24 0 -40.5 -18t-16.5 -43q0 -17 10.5 -27t28.5 -10z" />
    <glyph glyph-name="uring" unicode="&#x16f;" horiz-adv-x="564" 
d="M361 0l6 93q-41 -51 -93 -79.5t-103 -28.5q-59 0 -90.5 33t-31.5 97q0 45 16 128l52 264h96l-51 -262q-15 -75 -15 -118q0 -33 14.5 -47.5t46.5 -14.5q37 0 82.5 29.5t87.5 79.5l65 333h96l-98 -507h-80zM342 585q-47 0 -75 24.5t-28 66.5q0 52 38.5 87t95.5 35
q47 0 75 -24.5t28 -66.5q0 -52 -38.5 -87t-95.5 -35zM348 637q27 0 45 19.5t18 47.5q0 19 -11.5 30.5t-32.5 11.5q-27 0 -45 -19.5t-18 -47.5q0 -19 11.5 -30.5t32.5 -11.5z" />
    <glyph glyph-name="Uhungarumlaut" unicode="&#x170;" horiz-adv-x="701" 
d="M599 693h99l-89 -457q-24 -122 -101 -187.5t-196 -65.5q-111 0 -171.5 53t-60.5 149q0 28 4.5 62t16.5 96l68 350h99l-69 -354q-22 -113 -22 -143q0 -62 36.5 -94.5t105.5 -32.5q78 0 126.5 41t63.5 120zM375 769h-87l119 123h119zM556 769h-87l120 123h119z" />
    <glyph glyph-name="uhungarumlaut" unicode="&#x171;" horiz-adv-x="564" 
d="M361 0l6 93q-41 -51 -93 -79.5t-103 -28.5q-59 0 -90.5 33t-31.5 97q0 45 16 128l52 264h96l-51 -262q-15 -75 -15 -118q0 -33 14.5 -47.5t46.5 -14.5q37 0 82.5 29.5t87.5 79.5l65 333h96l-98 -507h-80zM186 601l122 160h116l-157 -160h-81zM369 601l123 160h116
l-158 -160h-81z" />
    <glyph glyph-name="Uogonek" unicode="&#x172;" horiz-adv-x="701" 
d="M314 -127q0 -34 39 -34q20 0 50 11l22 -50q-45 -24 -100 -24q-46 0 -70.5 18.5t-24.5 54.5q0 73 87 134h-5q-111 0 -171.5 53t-60.5 149q0 28 4.5 62t16.5 96l68 350h99l-69 -354q-22 -113 -22 -143q0 -62 36.5 -94.5t105.5 -32.5q78 0 126.5 41t63.5 120l90 463h99
l-89 -457q-16 -83 -57.5 -139.5t-111.5 -89.5q-61 -28 -93.5 -62.5t-32.5 -71.5z" />
    <glyph glyph-name="uogonek" unicode="&#x173;" horiz-adv-x="564" 
d="M444 -200q-45 -24 -100 -24q-46 0 -70 19t-24 54q0 80 116 151h-5l6 93q-41 -51 -93 -79.5t-103 -28.5q-59 0 -90.5 33t-31.5 97q0 45 16 128l52 264h96l-51 -262q-15 -75 -15 -118q0 -33 14.5 -47.5t46.5 -14.5q37 0 82.5 29.5t87.5 79.5l65 333h96l-98 -507
q-109 -72 -109 -130q0 -33 41 -33q23 0 50 11z" />
    <glyph glyph-name="Wcircumflex" unicode="&#x174;" horiz-adv-x="903" 
d="M525 0l-26 549l-236 -549h-110l-61 693h104l34 -580l237 560h112l24 -565l257 585h107l-332 -693h-110zM622 769l-72 81l-106 -81h-98l160 135h103l104 -135h-91z" />
    <glyph glyph-name="wcircumflex" unicode="&#x175;" horiz-adv-x="741" 
d="M423 0l-30 395l-175 -395h-95l-66 507h100l35 -408l172 408h95l32 -417q112 215 175 417h97q-38 -109 -109 -256.5t-136 -250.5h-95zM509 601l-75 104l-114 -104h-88l160 161h101l98 -161h-82z" />
    <glyph glyph-name="Ycircumflex" unicode="&#x176;" horiz-adv-x="551" 
d="M165 0l50 255l-144 438h104l102 -357l244 357h109l-319 -443l-49 -250h-97zM468 769l-72 81l-106 -81h-98l160 135h103l104 -135h-91z" />
    <glyph glyph-name="ycircumflex" unicode="&#x177;" horiz-adv-x="485" 
d="M-63 -151q72 26 111 54q47 34 101 99l-103 505h101l70 -420q50 87 103.5 201t93.5 219h99q-36 -91 -88 -194.5t-107.5 -198t-100.5 -150.5q-63 -80 -118.5 -123t-118.5 -60zM385 601l-75 104l-114 -104h-88l160 161h101l98 -161h-82z" />
    <glyph glyph-name="Ydieresis" unicode="&#x178;" horiz-adv-x="551" 
d="M165 0l50 255l-144 438h104l102 -357l244 357h109l-319 -443l-49 -250h-97zM289 779q-26 0 -39.5 12.5t-13.5 36.5q0 29 19.5 48t48.5 19q26 0 39.5 -12.5t13.5 -36.5q0 -29 -19.5 -48t-48.5 -19zM480 779q-26 0 -39.5 12.5t-13.5 36.5q0 29 19.5 48t48.5 19
q26 0 39.5 -12.5t13.5 -36.5q0 -29 -19.5 -48t-48.5 -19z" />
    <glyph glyph-name="Zacute" unicode="&#x179;" horiz-adv-x="551" 
d="M-18 0l14 74l468 538h-343l16 81h459l-14 -74l-468 -538h363l-16 -81h-479zM418 769h-87l116 123h123z" />
    <glyph glyph-name="zacute" unicode="&#x17a;" horiz-adv-x="454" 
d="M-15 0l14 71l339 360h-261l15 76h379l-14 -71l-341 -360h276l-15 -76h-392zM251 601l117 160h120l-157 -160h-80z" />
    <glyph glyph-name="Zdotaccent" unicode="&#x17b;" horiz-adv-x="551" 
d="M-18 0l14 74l468 538h-343l16 81h459l-14 -74l-468 -538h363l-16 -81h-479zM381 779q-27 0 -41.5 13.5t-14.5 38.5q0 29 20.5 49.5t51.5 20.5q27 0 41.5 -13.5t14.5 -38.5q0 -30 -20.5 -50t-51.5 -20z" />
    <glyph glyph-name="zdotaccent" unicode="&#x17c;" horiz-adv-x="454" 
d="M-15 0l14 71l339 360h-261l15 76h379l-14 -71l-341 -360h276l-15 -76h-392zM305 597q-27 0 -41 13.5t-14 37.5q0 29 20.5 49t50.5 20q27 0 41 -13.5t14 -37.5q0 -29 -20.5 -49t-50.5 -20z" />
    <glyph glyph-name="Zcaron" unicode="&#x17d;" horiz-adv-x="551" 
d="M-18 0l14 74l468 538h-343l16 81h459l-14 -74l-468 -538h363l-16 -81h-479zM424 769h-102l-105 135h108l54 -90l93 90h113z" />
    <glyph glyph-name="zcaron" unicode="&#x17e;" horiz-adv-x="454" 
d="M-15 0l14 71l339 360h-261l15 76h379l-14 -71l-341 -360h276l-15 -76h-392zM344 601h-99l-99 161h98l57 -114l101 114h103z" />
    <glyph glyph-name="longs" unicode="&#x17f;" horiz-adv-x="252" 
d="M142 586q32 168 185 168q25 0 52 -6t45 -16l-14 -70q-39 12 -78 12q-41 0 -62.5 -18.5t-29.5 -58.5l-116 -597h-96z" />
    <glyph glyph-name="florin" unicode="&#x192;" horiz-adv-x="378" 
d="M-29 -218q-58 0 -97 23l13 65q34 -11 72 -11q43 0 63 20t30 71l94 481h-93l12 62l95 12l16 82q33 167 185 167q25 0 52 -6t45 -16l-14 -70q-39 12 -78 12q-41 0 -62.5 -18.5t-29.5 -60.5l-17 -88h156l-14 -76h-157l-94 -482q-16 -85 -59 -126t-118 -41z" />
    <glyph glyph-name="uni01D3" unicode="&#x1d3;" horiz-adv-x="701" 
d="M599 693h99l-89 -457q-24 -122 -101 -187.5t-196 -65.5q-111 0 -171.5 53t-60.5 149q0 28 4.5 62t16.5 96l68 350h99l-69 -354q-22 -113 -22 -143q0 -62 36.5 -94.5t105.5 -32.5q78 0 126.5 41t63.5 120zM484 769h-102l-105 135h108l54 -90l93 90h113z" />
    <glyph glyph-name="uni01D4" unicode="&#x1d4;" horiz-adv-x="564" 
d="M361 0l6 93q-41 -51 -93 -79.5t-103 -28.5q-59 0 -90.5 33t-31.5 97q0 45 16 128l52 264h96l-51 -262q-15 -75 -15 -118q0 -33 14.5 -47.5t46.5 -14.5q37 0 82.5 29.5t87.5 79.5l65 333h96l-98 -507h-80zM388 601h-99l-99 161h98l57 -114l101 114h103z" />
    <glyph glyph-name="Aringacute" unicode="&#x1fa;" horiz-adv-x="612" 
d="M459 0l-26 185h-272l-97 -185h-104l357 641q-28 23 -28 62q0 49 36.5 81.5t89.5 32.5q44 0 70 -22t26 -60q0 -31 -15.5 -56.5t-43.5 -41.5l111 -637h-104zM201 261h222l-46 337zM471 851h-87l116 123h123zM391 670q24 0 40.5 18t16.5 43q0 17 -10.5 27t-28.5 10
q-24 0 -40.5 -18t-16.5 -43q0 -17 10.5 -27t28.5 -10z" />
    <glyph glyph-name="aringacute" unicode="&#x1fb;" horiz-adv-x="548" 
d="M345 0l6 92q-40 -51 -88.5 -79t-98.5 -28q-63 0 -97 44.5t-34 125.5q0 92 40.5 175.5t112 137.5t155.5 54q39 0 88 -11t89 -29l-94 -482h-79zM200 64q75 0 162 109l52 261q-46 11 -74 11q-52 0 -99.5 -36.5t-78.5 -101.5t-31 -141q0 -51 16.5 -76.5t52.5 -25.5zM353 582
q-44 0 -70 22t-26 60q0 49 36.5 81.5t89.5 32.5q44 0 70 -22t26 -60q0 -49 -36.5 -81.5t-89.5 -32.5zM359 631q24 0 40.5 18t16.5 43q0 17 -10.5 27t-28.5 10q-24 0 -40.5 -18t-16.5 -43q0 -17 10.5 -27t28.5 -10zM439 812h-87l116 123h123z" />
    <glyph glyph-name="AEacute" unicode="&#x1fc;" horiz-adv-x="914" 
d="M400 0l39 201h-237l-148 -201h-112l524 693h492l-16 -80h-324l-42 -216h272l-16 -80h-272l-46 -236h324l-15 -81h-423zM256 275h197l66 338h-14zM763 769h-87l116 123h123z" />
    <glyph glyph-name="aeacute" unicode="&#x1fd;" horiz-adv-x="813" 
d="M666 522q61 0 96.5 -31t35.5 -84q0 -77 -72.5 -133t-205.5 -82l-64 -13q0 -64 23 -91.5t78 -27.5q71 0 163 50l26 -59q-95 -66 -214 -66q-65 0 -105.5 33t-52.5 96q-36 -62 -88 -95.5t-114 -33.5q-68 0 -103.5 43.5t-35.5 126.5q0 93 40.5 176.5t112.5 137t157 53.5
q91 0 167 -55q69 55 156 55zM380 265q28 90 73 146q-58 34 -110 34q-54 0 -102.5 -36t-79 -100.5t-30.5 -142.5q0 -52 18 -77t56 -25q54 0 100.5 53t74.5 148zM649 448q-44 0 -83 -25t-67 -72t-38 -107l63 15q88 20 136 56t48 83q0 23 -15.5 36.5t-43.5 13.5zM478 601
l117 160h120l-157 -160h-80z" />
    <glyph glyph-name="Oslashacute" unicode="&#x1fe;" horiz-adv-x="748" 
d="M-2 4l97 98q-37 66 -37 157q0 124 48 226t136.5 162.5t202.5 60.5t186 -66l87 87l48 -45l-93 -94q39 -67 39 -159q0 -124 -48 -225.5t-136.5 -162t-202.5 -60.5q-117 0 -189 67l-90 -91zM337 67q77 0 138.5 44t98 125.5t36.5 186.5q0 50 -14 90l-389 -392q46 -54 130 -54
zM160 267q0 -49 13 -87l388 391q-47 53 -128 53q-76 0 -138 -44t-98.5 -126t-36.5 -187zM519 769h-87l116 123h123z" />
    <glyph glyph-name="oslashacute" unicode="&#x1ff;" horiz-adv-x="539" 
d="M-16 7l72 72q-23 46 -23 107q0 91 35.5 167.5t100 122.5t145.5 46q83 0 134 -48l65 65l42 -40l-72 -73q23 -44 23 -105q0 -91 -35.5 -167.5t-100 -122.5t-145.5 -46q-82 0 -134 47l-65 -65zM131 191q0 -9 0.5 -17.5t1.5 -16.5l250 251q-28 36 -77 36t-88.5 -31.5
t-63 -89.5t-23.5 -132zM233 63q49 0 88.5 31.5t63 89.5t23.5 132q0 13 -2 33l-250 -251q27 -35 77 -35zM298 601l117 160h120l-157 -160h-80z" />
    <glyph glyph-name="uni0218" unicode="&#x218;" horiz-adv-x="541" 
d="M231 326q-72 34 -104 74t-32 98q0 59 31.5 107t89.5 76.5t133 28.5q47 0 92 -12t81 -34l-15 -74q-36 18 -76.5 28t-77.5 10q-74 0 -117 -32t-43 -87q0 -33 21 -57t69 -45l70 -32q71 -32 100.5 -70.5t29.5 -96.5q0 -63 -33 -114t-95 -81t-143 -30q-121 0 -201 51l16 74
q96 -42 186 -42q48 0 86.5 15.5t61.5 44.5t23 67q0 34 -21.5 58.5t-73.5 47.5zM102 -278l75 213h41q43 0 43 -26q0 -10 -5.5 -22.5t-22.5 -43.5l-67 -121h-64z" />
    <glyph glyph-name="uni0219" unicode="&#x219;" horiz-adv-x="430" 
d="M165 236q-47 26 -69 56.5t-22 71.5q0 44 23.5 80t67 57t100.5 21q82 0 143 -33l-13 -69q-29 13 -63.5 20t-65.5 7q-47 0 -73 -19.5t-26 -53.5q0 -39 56 -69l60 -34q48 -26 68.5 -54t20.5 -69q0 -74 -54 -118.5t-144 -44.5q-46 0 -91.5 10t-77.5 28l14 70q33 -15 76.5 -24
t80.5 -9q48 0 75 20.5t27 57.5q0 21 -12.5 36t-42.5 31zM49 -278l75 213h39q21 0 31 -6.5t10 -20.5q0 -10 -5.5 -23.5t-21.5 -41.5l-66 -121h-62z" />
    <glyph glyph-name="uni021A" unicode="&#x21a;" horiz-adv-x="563" 
d="M176 0l119 611h-215l16 82h527l-16 -82h-213l-119 -611h-99zM98 -278l75 213h41q43 0 43 -26q0 -10 -5.5 -22.5t-22.5 -43.5l-67 -121h-64z" />
    <glyph glyph-name="uni021B" unicode="&#x21b;" horiz-adv-x="386" 
d="M340 36q-27 -20 -63 -31.5t-72 -11.5q-128 0 -128 109q0 27 15 103l45 226h-92l12 62l97 12l43 144h78l-28 -142h147l-14 -76h-147l-43 -220q-14 -71 -14 -93q0 -25 13 -36t43 -11q41 0 86 21zM64 -278l75 213h39q21 0 31 -6.5t10 -20.5q0 -10 -5.5 -23.5t-21.5 -41.5
l-66 -121h-62z" />
    <glyph glyph-name="uni0237" unicode="&#x237;" horiz-adv-x="253" 
d="M-110 -133q29 -8 56 -8q31 0 48 19t26 66l110 563h96l-110 -563q-31 -162 -147 -162q-55 0 -92 21z" />
    <glyph glyph-name="uni02B9" unicode="&#x2b9;" horiz-adv-x="264" 
d="M88 474l112 218q31 13 59 13q31 0 52 -13l-150 -218h-73z" />
    <glyph glyph-name="uni02BA" unicode="&#x2ba;" horiz-adv-x="442" 
d="M88 474l112 218q31 13 59 13q31 0 52 -13l-150 -218h-73zM266 474l112 218q31 13 59 13q31 0 52 -13l-150 -218h-73z" />
    <glyph glyph-name="uni02BB" unicode="&#x2bb;" horiz-adv-x="245" 
d="M298 669q-69 -74 -98 -160q-8 -26 -18 -78h-47q-21 0 -32.5 8t-11.5 22q0 48 48.5 119.5t116.5 124.5z" />
    <glyph glyph-name="uni02BC" unicode="&#x2bc;" horiz-adv-x="245" 
d="M68 455q69 74 98 160q9 28 18 78h46q45 0 45 -32q0 -48 -48 -118.5t-117 -123.5z" />
    <glyph glyph-name="circumflex" unicode="&#x2c6;" horiz-adv-x="579" 
d="M448 601l-75 104l-114 -104h-88l160 161h101l98 -161h-82z" />
    <glyph glyph-name="caron" unicode="&#x2c7;" horiz-adv-x="579" 
d="M403 601h-99l-99 161h98l57 -114l101 114h103z" />
    <glyph glyph-name="uni02C9" unicode="&#x2c9;" horiz-adv-x="579" 
d="M208 636l13 64h315l-13 -64h-315z" />
    <glyph glyph-name="uni02CA" unicode="&#x2ca;" horiz-adv-x="579" 
d="M279 601l117 160h120l-157 -160h-80z" />
    <glyph glyph-name="uni02CB" unicode="&#x2cb;" horiz-adv-x="579" 
d="M348 601l-95 160h112l62 -160h-79z" />
    <glyph glyph-name="breve" unicode="&#x2d8;" horiz-adv-x="579" 
d="M359 599q-59 0 -92.5 26.5t-33.5 72.5q0 23 13 52h59q-4 -23 -4 -36q0 -25 16.5 -38.5t47.5 -13.5q35 0 58.5 17t32.5 51l5 20h63q-2 -68 -47 -109.5t-118 -41.5z" />
    <glyph glyph-name="dotaccent" unicode="&#x2d9;" horiz-adv-x="579" 
d="M364 597q-27 0 -41 13.5t-14 37.5q0 29 20.5 49t50.5 20q27 0 41 -13.5t14 -37.5q0 -29 -20.5 -49t-50.5 -20z" />
    <glyph glyph-name="ring" unicode="&#x2da;" horiz-adv-x="579" 
d="M357 585q-47 0 -75 24.5t-28 66.5q0 52 38.5 87t95.5 35q47 0 75 -24.5t28 -66.5q0 -52 -38.5 -87t-95.5 -35zM363 637q27 0 45 19.5t18 47.5q0 19 -11.5 30.5t-32.5 11.5q-27 0 -45 -19.5t-18 -47.5q0 -19 11.5 -30.5t32.5 -11.5z" />
    <glyph glyph-name="ogonek" unicode="&#x2db;" horiz-adv-x="579" 
d="M290 -200q-45 -24 -100 -24q-46 0 -70 19t-24 54q0 87 139 164l52 -13q-109 -72 -109 -130q0 -33 41 -33q22 0 50 11z" />
    <glyph glyph-name="tilde" unicode="&#x2dc;" horiz-adv-x="579" 
d="M390 697q25 -23 33.5 -29t18.5 -6q27 0 38 41l7 27h60q0 -17 -3 -32q-8 -44 -37 -69.5t-71 -25.5q-25 0 -43.5 8.5t-38.5 27.5q-25 23 -33.5 29t-18.5 6q-27 0 -38 -41l-7 -27h-60q0 17 3 32q8 44 37 69.5t71 25.5q25 0 43.5 -8.5t38.5 -27.5z" />
    <glyph glyph-name="hungarumlaut" unicode="&#x2dd;" horiz-adv-x="579" 
d="M177 601l122 160h116l-157 -160h-81zM360 601l123 160h116l-158 -160h-81z" />
    <glyph glyph-name="gravecomb" unicode="&#x300;" horiz-adv-x="0" 
d="M-47 601l-95 160h112l62 -160h-79z" />
    <glyph glyph-name="acutecomb" unicode="&#x301;" horiz-adv-x="0" 
d="M-40 601l117 160h120l-157 -160h-80z" />
    <glyph glyph-name="uni0302" unicode="&#x302;" horiz-adv-x="0" 
d="M98 601l-75 104l-114 -104h-88l160 161h101l98 -161h-82z" />
    <glyph glyph-name="tildecomb" unicode="&#x303;" horiz-adv-x="0" 
d="M40 697q25 -23 33.5 -29t18.5 -6q27 0 38 41l7 27h60q0 -17 -3 -32q-8 -44 -37 -69.5t-71 -25.5q-25 0 -43.5 8.5t-38.5 27.5q-25 23 -33.5 29t-18.5 6q-27 0 -38 -41l-7 -27h-60q0 17 3 32q8 44 37 69.5t71 25.5q25 0 43.5 -8.5t38.5 -27.5z" />
    <glyph glyph-name="uni0304" unicode="&#x304;" horiz-adv-x="0" 
d="M-142 636l13 64h315l-13 -64h-315z" />
    <glyph glyph-name="uni0306" unicode="&#x306;" horiz-adv-x="0" 
d="M9 599q-59 0 -92.5 26.5t-33.5 72.5q0 23 13 52h59q-4 -23 -4 -36q0 -25 16.5 -38.5t47.5 -13.5q35 0 58.5 17t32.5 51l5 20h63q-2 -68 -47 -109.5t-118 -41.5z" />
    <glyph glyph-name="uni0307" unicode="&#x307;" horiz-adv-x="0" 
d="M14 597q-27 0 -41 13.5t-14 37.5q0 29 20.5 49t50.5 20q27 0 41 -13.5t14 -37.5q0 -29 -20.5 -49t-50.5 -20z" />
    <glyph glyph-name="uni0308" unicode="&#x308;" horiz-adv-x="0" 
d="M-94 594q-52 0 -52 49q0 28 19.5 47t47.5 19q52 0 52 -49q0 -28 -19.5 -47t-47.5 -19zM121 594q-52 0 -52 49q0 28 19.5 47t47.5 19q52 0 52 -49q0 -28 -19.5 -47t-47.5 -19z" />
    <glyph glyph-name="uni030A" unicode="&#x30a;" horiz-adv-x="0" 
d="M7 585q-47 0 -75 24.5t-28 66.5q0 52 38.5 87t95.5 35q47 0 75 -24.5t28 -66.5q0 -52 -38.5 -87t-95.5 -35zM13 637q27 0 45 19.5t18 47.5q0 19 -11.5 30.5t-32.5 11.5q-27 0 -45 -19.5t-18 -47.5q0 -19 11.5 -30.5t32.5 -11.5z" />
    <glyph glyph-name="uni030B" unicode="&#x30b;" horiz-adv-x="0" 
d="M-149 601l122 160h116l-157 -160h-81zM34 601l123 160h116l-158 -160h-81z" />
    <glyph glyph-name="uni030C" unicode="&#x30c;" horiz-adv-x="0" 
d="M53 601h-99l-99 161h98l57 -114l101 114h103z" />
    <glyph glyph-name="uni0312" unicode="&#x312;" horiz-adv-x="0" 
d="M18 588q-41 0 -41 26q0 8 3.5 17.5t23.5 48.5l67 128h62l-76 -220h-39z" />
    <glyph glyph-name="uni0315" unicode="&#x315;" horiz-adv-x="0" 
d="M-51 545l39 198q23 9 48 9q32 0 47 -15l-70 -192h-64z" />
    <glyph glyph-name="uni0326" unicode="&#x326;" horiz-adv-x="0" 
d="M-111 -278l75 213h39q21 0 31 -6.5t10 -20.5q0 -10 -5.5 -23.5t-21.5 -41.5l-66 -121h-62z" />
    <glyph glyph-name="uni0327" unicode="&#x327;" horiz-adv-x="0" 
d="M-115 -243q53 30 77.5 53t24.5 42q0 25 -34 25q-14 0 -36 -3l11 54q28 9 60 9q37 0 58 -17t21 -47q0 -81 -147 -154z" />
    <glyph glyph-name="uni0328" unicode="&#x328;" horiz-adv-x="0" 
d="M3 -200q-45 -24 -100 -24q-46 0 -70 19t-24 54q0 87 139 164l52 -13q-109 -72 -109 -130q0 -33 41 -33q22 0 50 11z" />
    <glyph glyph-name="uni0344" unicode="&#x344;" horiz-adv-x="0" 
d="M-79 708q24 0 37 -12t13 -34q0 -28 -18.5 -46t-46.5 -18q-24 0 -37 12t-13 34q0 28 18.5 46t46.5 18zM141 708q24 0 37 -12t13 -34q0 -28 -18.5 -46t-46.5 -18q-24 0 -37 12t-13 34q0 28 18.5 46t46.5 18zM-4 727l88 161h110l-129 -161h-69z" />
    <glyph glyph-name="uni0374" unicode="&#x374;" horiz-adv-x="265" 
d="M88 474l112 218q31 13 59 13q31 0 52 -13l-150 -218h-73z" />
    <glyph glyph-name="uni0375" unicode="&#x375;" horiz-adv-x="265" 
d="M66 0q31 13 59 13q30 0 53 -13l-152 -219h-71z" />
    <glyph glyph-name="uni037E" unicode="&#x37e;" horiz-adv-x="245" 
d="M-40 -153l102 269h46q25 0 36 -7.5t11 -23.5q0 -10 -4.5 -23t-19.5 -39l-104 -176h-67zM157 385q-28 0 -43.5 15t-15.5 41q0 31 21.5 53.5t52.5 22.5q28 0 43.5 -15t15.5 -41q0 -31 -21.5 -53.5t-52.5 -22.5z" />
    <glyph glyph-name="tonos" unicode="&#x384;" horiz-adv-x="579" 
d="M280 773h111l-132 -172h-70z" />
    <glyph glyph-name="dieresistonos" unicode="&#x385;" horiz-adv-x="579" 
d="M186 708q24 0 37 -12t13 -34q0 -28 -18.5 -46t-46.5 -18q-24 0 -37 12t-13 34q0 28 18.5 46t46.5 18zM406 708q24 0 37 -12t13 -34q0 -28 -18.5 -46t-46.5 -18q-24 0 -37 12t-13 34q0 28 18.5 46t46.5 18zM261 727l88 161h110l-129 -161h-69z" />
    <glyph glyph-name="Alphatonos" unicode="&#x386;" horiz-adv-x="617" 
d="M464 0l-26 185h-272l-97 -185h-104l380 693h108l115 -693h-104zM205 260h224l-47 338zM133 693h113l-132 -172h-72z" />
    <glyph glyph-name="anoteleia" unicode="&#x387;" horiz-adv-x="246" 
d="M157 385q-28 0 -43.5 15t-15.5 41q0 31 21.5 53.5t52.5 22.5q28 0 43.5 -15t15.5 -41q0 -31 -21.5 -53.5t-52.5 -22.5z" />
    <glyph glyph-name="Epsilontonos" unicode="&#x388;" horiz-adv-x="669" 
d="M155 0l135 693h423l-16 -81h-324l-42 -215h272l-16 -80h-272l-46 -236h324l-15 -81h-423zM120 693h113l-132 -172h-72z" />
    <glyph glyph-name="Etatonos" unicode="&#x389;" horiz-adv-x="837" 
d="M593 0l61 314h-339l-61 -314h-99l135 693h99l-58 -298h339l58 298h99l-135 -693h-99zM120 693h113l-132 -172h-72z" />
    <glyph glyph-name="Iotatonos" unicode="&#x38a;" horiz-adv-x="403" 
d="M155 0l135 693h99l-135 -693h-99zM120 693h113l-132 -172h-72z" />
    <glyph glyph-name="Omicrontonos" unicode="&#x38c;" horiz-adv-x="844" 
d="M433 67q77 0 138.5 44t98 125.5t36.5 186.5q0 94 -47.5 147.5t-129.5 53.5q-76 0 -138 -44t-98.5 -126t-36.5 -187q0 -93 47.5 -146.5t129.5 -53.5zM421 -17q-81 0 -141 33t-93 95t-33 148q0 124 48 226t136.5 162.5t202.5 60.5q123 0 195 -74.5t72 -202.5
q0 -124 -48 -225.5t-136.5 -162t-202.5 -60.5zM123 693h113l-132 -172h-72z" />
    <glyph glyph-name="Upsilontonos" unicode="&#x38e;" horiz-adv-x="756" 
d="M370 0l50 255l-144 438h104l102 -357l244 357h109l-319 -443l-49 -250h-97zM123 693h113l-132 -172h-72z" />
    <glyph glyph-name="Omegatonos" unicode="&#x38f;" horiz-adv-x="838" 
d="M103 77h152q-41 44 -62.5 104t-21.5 129q0 109 46 199.5t130.5 145t190.5 54.5q124 0 195 -74.5t71 -204.5q0 -107 -49 -200.5t-136 -152.5h153l-13 -77h-281l14 74q98 53 154 146t56 205q0 97 -45 148.5t-128 51.5q-70 0 -128.5 -39t-93 -110t-34.5 -163
q0 -76 24.5 -137.5t70.5 -101.5l-14 -74h-265zM123 693h113l-132 -172h-72z" />
    <glyph glyph-name="iotadieresistonos" unicode="&#x390;" horiz-adv-x="289" 
d="M149 -5q-46 0 -72 24t-26 68q0 32 10 87l65 333h96l-65 -333q-10 -53 -10 -69q0 -35 40 -35q26 0 48 9l19 -57q-48 -27 -105 -27zM100 708q24 0 37 -12t13 -34q0 -28 -18.5 -46t-46.5 -18q-24 0 -37 12t-13 34q0 28 18.5 46t46.5 18zM320 708q24 0 37 -12t13 -34
q0 -28 -18.5 -46t-46.5 -18q-24 0 -37 12t-13 34q0 28 18.5 46t46.5 18zM175 727l88 161h110l-129 -161h-69z" />
    <glyph glyph-name="Alpha" unicode="&#x391;" horiz-adv-x="612" 
d="M459 0l-26 185h-272l-97 -185h-104l380 693h108l115 -693h-104zM200 260h224l-47 338z" />
    <glyph glyph-name="Beta" unicode="&#x392;" horiz-adv-x="608" 
d="M43 0l135 693h216q86 0 135.5 -43.5t49.5 -119.5q0 -60 -32 -105t-89 -67q47 -19 72.5 -56t25.5 -86q0 -63 -31.5 -111.5t-90.5 -76.5t-138 -28h-253zM201 319l-47 -244h150q70 0 111 39t41 105q0 46 -27 73t-73 27h-155zM259 618l-44 -228h140q57 0 93 37.5t36 97.5
q0 44 -27.5 68.5t-77.5 24.5h-120z" />
    <glyph glyph-name="Gamma" unicode="&#x393;" horiz-adv-x="515" 
d="M43 0l135 693h393l-16 -82h-294l-119 -611h-99z" />
    <glyph glyph-name="uni0394" unicode="&#x394;" horiz-adv-x="610" 
d="M-7 74l344 619h112l104 -619l-14 -74h-561zM452 79l-77 522l-281 -522h358z" />
    <glyph glyph-name="Epsilon" unicode="&#x395;" horiz-adv-x="557" 
d="M43 0l135 693h423l-16 -81h-324l-42 -215h272l-16 -80h-272l-46 -236h324l-15 -81h-423z" />
    <glyph glyph-name="Zeta" unicode="&#x396;" horiz-adv-x="551" 
d="M-18 0l14 74l468 538h-343l16 81h459l-14 -74l-468 -538h363l-16 -81h-479z" />
    <glyph glyph-name="Eta" unicode="&#x397;" horiz-adv-x="725" 
d="M481 0l61 314h-339l-61 -314h-99l135 693h99l-58 -298h339l58 298h99l-135 -693h-99z" />
    <glyph glyph-name="Theta" unicode="&#x398;" horiz-adv-x="748" 
d="M258 390h270l-16 -81h-270zM337 67q77 0 138.5 44t98 125.5t36.5 186.5q0 94 -47.5 147.5t-129.5 53.5q-76 0 -138 -44t-98.5 -126t-36.5 -187q0 -93 47.5 -146.5t129.5 -53.5zM325 -17q-81 0 -141 33t-93 95t-33 148q0 124 48 226t136.5 162.5t202.5 60.5
q123 0 195 -74.5t72 -202.5q0 -124 -48 -225.5t-136.5 -162t-202.5 -60.5z" />
    <glyph glyph-name="Iota" unicode="&#x399;" horiz-adv-x="295" 
d="M47 0l135 693h99l-135 -693h-99z" />
    <glyph glyph-name="Kappa" unicode="&#x39a;" horiz-adv-x="599" 
d="M43 0l135 693h99l-59 -302l336 302h126l-375 -333l254 -360h-115l-237 336l-65 -336h-99z" />
    <glyph glyph-name="Lambda" unicode="&#x39b;" horiz-adv-x="600" 
d="M368 583l-301 -583h-107l374 693h108l109 -693h-107z" />
    <glyph glyph-name="Mu" unicode="&#x39c;" horiz-adv-x="840" 
d="M600 0l107 549l-259 -371h-86l-116 379l-108 -557h-95l135 693h112l132 -428l297 428h111l-135 -693h-95z" />
    <glyph glyph-name="Nu" unicode="&#x39d;" horiz-adv-x="717" 
d="M465 0l-219 557l-108 -557h-95l135 693h107l219 -556l108 556h95l-135 -693h-107z" />
    <glyph glyph-name="Xi" unicode="&#x39e;" horiz-adv-x="561" 
d="M13 85h470l-16 -85h-471zM132 395h353l-16 -85h-354zM141 693h450l-17 -85h-449z" />
    <glyph glyph-name="Omicron" unicode="&#x39f;" horiz-adv-x="748" 
d="M337 67q77 0 138.5 44t98 125.5t36.5 186.5q0 94 -47.5 147.5t-129.5 53.5q-76 0 -138 -44t-98.5 -126t-36.5 -187q0 -93 47.5 -146.5t129.5 -53.5zM325 -17q-81 0 -141 33t-93 95t-33 148q0 124 48 226t136.5 162.5t202.5 60.5q123 0 195 -74.5t72 -202.5
q0 -124 -48 -225.5t-136.5 -162t-202.5 -60.5z" />
    <glyph glyph-name="Pi" unicode="&#x3a0;" horiz-adv-x="702" 
d="M458 0l120 611h-317l-119 -611h-99l135 693h514l-135 -693h-99z" />
    <glyph glyph-name="Rho" unicode="&#x3a1;" horiz-adv-x="593" 
d="M43 0l135 693h201q101 0 157 -48.5t56 -136.5q0 -70 -35 -124t-101 -85t-154 -31h-110l-52 -268h-97zM207 347h99q87 0 137.5 42t50.5 114q0 56 -33.5 83.5t-101.5 27.5h-100z" />
    <glyph glyph-name="Sigma" unicode="&#x3a3;" horiz-adv-x="532" 
d="M-3 74l264 287l-148 254l15 78h458l-16 -82h-351l150 -255l-253 -274h365l-15 -82h-484z" />
    <glyph glyph-name="Tau" unicode="&#x3a4;" horiz-adv-x="563" 
d="M176 0l119 611h-215l16 82h527l-16 -82h-213l-119 -611h-99z" />
    <glyph glyph-name="Upsilon" unicode="&#x3a5;" horiz-adv-x="551" 
d="M165 0l50 255l-144 438h104l102 -357l244 357h109l-319 -443l-49 -250h-97z" />
    <glyph glyph-name="Phi" unicode="&#x3a6;" horiz-adv-x="802" 
d="M315 57q-126 11 -194 74.5t-68 171.5q0 93 45 166.5t130 118.5t200 51l17 84h86l-17 -85q126 -11 194.5 -75t68.5 -171q0 -93 -45 -167t-130.5 -118.5t-200.5 -50.5l-16 -86h-87zM679 388q0 160 -179 178l-85 -438q125 10 194.5 78t69.5 182zM151 307q0 -160 178 -178
l85 437q-125 -10 -194 -77.5t-69 -181.5z" />
    <glyph glyph-name="Chi" unicode="&#x3a7;" horiz-adv-x="572" 
d="M419 0l-123 284l-229 -284h-116l305 368l-145 325h106l109 -259l209 259h116l-284 -341l158 -352h-106z" />
    <glyph glyph-name="Psi" unicode="&#x3a8;" horiz-adv-x="764" 
d="M277 0l35 181q-104 8 -162.5 62t-58.5 143q0 36 15 110l39 197h96l-40 -202q-8 -41 -11 -62.5t-3 -42.5q0 -56 36.5 -88t104.5 -37l84 432h96l-84 -431q86 9 140.5 60t71.5 139l46 232h96l-44 -223q-26 -133 -109.5 -207t-216.5 -82l-35 -181h-96z" />
    <glyph glyph-name="uni03A9" unicode="&#x3a9;" horiz-adv-x="730" 
d="M-5 77h152q-41 44 -62.5 104t-21.5 129q0 109 46 199.5t130.5 145t190.5 54.5q124 0 195 -74.5t71 -204.5q0 -107 -49 -200.5t-136 -152.5h153l-13 -77h-281l14 74q98 53 154 146t56 205q0 97 -45 148.5t-128 51.5q-70 0 -128.5 -39t-93 -110t-34.5 -163
q0 -76 24.5 -137.5t70.5 -101.5l-14 -74h-265z" />
    <glyph glyph-name="Iotadieresis" unicode="&#x3aa;" horiz-adv-x="295" 
d="M47 0l135 693h99l-135 -693h-99zM159 779q-26 0 -39.5 12.5t-13.5 36.5q0 29 19.5 48t48.5 19q26 0 39.5 -12.5t13.5 -36.5q0 -29 -19.5 -48t-48.5 -19zM350 779q-26 0 -39.5 12.5t-13.5 36.5q0 29 19.5 48t48.5 19q26 0 39.5 -12.5t13.5 -36.5q0 -29 -19.5 -48
t-48.5 -19z" />
    <glyph glyph-name="Upsilondieresis" unicode="&#x3ab;" horiz-adv-x="551" 
d="M165 0l50 255l-144 438h104l102 -357l244 357h109l-319 -443l-49 -250h-97zM289 779q-26 0 -39.5 12.5t-13.5 36.5q0 29 19.5 48t48.5 19q26 0 39.5 -12.5t13.5 -36.5q0 -29 -19.5 -48t-48.5 -19zM480 779q-26 0 -39.5 12.5t-13.5 36.5q0 29 19.5 48t48.5 19
q26 0 39.5 -12.5t13.5 -36.5q0 -29 -19.5 -48t-48.5 -19z" />
    <glyph glyph-name="alphatonos" unicode="&#x3ac;" horiz-adv-x="598" 
d="M568 18q-40 -23 -92 -23q-91 0 -91 102q0 25 3 45q-39 -75 -94 -116t-115 -41q-70 0 -108 46.5t-38 132.5q0 91 33.5 172.5t93 133.5t130.5 52q60 0 94.5 -35t47.5 -109q22 81 42 129h100l-29 -74q-36 -92 -56 -172t-20 -131q0 -22 2.5 -33t8.5 -17q10 -10 30 -10
q19 0 40 6zM203 63q54 0 106 54t90 148q-3 92 -27.5 135.5t-73.5 43.5q-42 0 -80 -35.5t-62.5 -98.5t-24.5 -137q0 -54 18.5 -82t53.5 -28zM347 773h111l-132 -172h-70z" />
    <glyph glyph-name="epsilontonos" unicode="&#x3ad;" horiz-adv-x="449" 
d="M202 -15q-79 0 -126.5 36.5t-47.5 95.5q0 58 35.5 97.5t101.5 53.5q-37 14 -56.5 40t-19.5 62q0 69 55.5 110.5t141.5 41.5q40 0 81 -9t74 -26l-14 -68q-67 26 -132 26q-51 0 -81.5 -21t-30.5 -59q0 -31 24 -48t69 -17h86l-15 -73h-87q-65 0 -101.5 -25t-36.5 -70
q0 -33 26 -51.5t75 -18.5q78 0 157 48l25 -59q-38 -30 -92.5 -48t-110.5 -18zM353 773h111l-132 -172h-70z" />
    <glyph glyph-name="etatonos" unicode="&#x3ae;" horiz-adv-x="603" 
d="M434 262q16 81 16 114q0 68 -69 68q-37 0 -83 -29.5t-90 -81.5l-65 -333h-96l64 331q10 52 10 71q0 34 -35 34q-11 0 -30 -4l-19 59q41 22 87 22q44 0 68.5 -25.5t24.5 -70.5v-9q45 55 97 84.5t104 29.5q62 0 96 -34.5t34 -97.5q0 -24 -3.5 -50t-13.5 -76l-92 -470h-96z
M438 773h111l-132 -172h-70z" />
    <glyph glyph-name="iotatonos" unicode="&#x3af;" horiz-adv-x="289" 
d="M149 -5q-46 0 -72 24t-26 68q0 32 10 87l65 333h96l-65 -333q-10 -53 -10 -69q0 -35 40 -35q26 0 48 9l19 -57q-48 -27 -105 -27zM235 773h111l-132 -172h-70z" />
    <glyph glyph-name="upsilondieresistonos" unicode="&#x3b0;" horiz-adv-x="545" 
d="M236 -15q-76 0 -117.5 41.5t-41.5 117.5q0 31 7 66l23 121q10 53 10 71q0 34 -35 34q-10 0 -30 -4l-19 59q39 22 88 22q44 0 69 -25.5t25 -70.5q0 -24 -7 -59l-28 -148q-8 -45 -8 -74q0 -75 74 -75q77 0 121.5 74t44.5 202q0 78 -23 170h88q30 -76 30 -174
q0 -102 -33 -180.5t-94.5 -123t-143.5 -44.5zM225 708q24 0 37 -12t13 -34q0 -28 -18.5 -46t-46.5 -18q-24 0 -37 12t-13 34q0 28 18.5 46t46.5 18zM445 708q24 0 37 -12t13 -34q0 -28 -18.5 -46t-46.5 -18q-24 0 -37 12t-13 34q0 28 18.5 46t46.5 18zM300 727l88 161h110
l-129 -161h-69z" />
    <glyph glyph-name="alpha" unicode="&#x3b1;" horiz-adv-x="598" 
d="M568 18q-40 -23 -92 -23q-91 0 -91 102q0 25 3 45q-39 -75 -94 -116t-115 -41q-70 0 -108 46.5t-38 132.5q0 91 33.5 172.5t93 133.5t130.5 52q60 0 94.5 -35t47.5 -109q22 81 42 129h100l-29 -74q-36 -92 -56 -172t-20 -131q0 -22 2.5 -33t8.5 -17q10 -10 30 -10
q19 0 40 6zM203 63q54 0 106 54t90 148q-3 92 -27.5 135.5t-73.5 43.5q-42 0 -80 -35.5t-62.5 -98.5t-24.5 -137q0 -54 18.5 -82t53.5 -28z" />
    <glyph glyph-name="beta" unicode="&#x3b2;" horiz-adv-x="554" 
d="M124 499q25 126 85.5 190.5t154.5 64.5q73 0 118.5 -43.5t45.5 -111.5q0 -73 -36 -125.5t-103 -75.5q57 -15 87 -59.5t30 -111.5q0 -65 -31 -120t-88.5 -88.5t-129.5 -33.5q-77 0 -136 36l-44 -227h-91zM134 87q19 -11 50 -18.5t58 -7.5q80 0 124 42.5t44 118.5
q0 63 -33.5 96.5t-97.5 33.5h-24l14 73h20q41 0 75 21t54.5 58.5t20.5 84.5q0 41 -23 65.5t-61 24.5q-52 0 -88 -45.5t-52 -131.5z" />
    <glyph glyph-name="gamma" unicode="&#x3b3;" horiz-adv-x="480" 
d="M97 -206q20 125 20 218q0 90 -13.5 195.5t-53.5 299.5h100q48 -251 51 -430q139 190 197 430h100q-29 -128 -109 -273.5t-179 -254.5q-1 -93 -18 -185h-95z" />
    <glyph glyph-name="delta" unicode="&#x3b4;" horiz-adv-x="533" 
d="M215 -15q-84 0 -133 50.5t-49 138.5q0 104 58 184t159 115q-36 26 -52.5 55t-16.5 63q0 73 55 118t145 45q42 0 84 -10t73 -28l-15 -70q-66 30 -143 30q-51 0 -78.5 -19.5t-27.5 -55.5q0 -23 17.5 -44.5t64.5 -53.5q69 -47 100.5 -100.5t31.5 -121.5q0 -80 -34.5 -147
t-97.5 -108t-141 -41zM390 273q0 55 -19 91t-65 71q-86 -36 -130.5 -100.5t-44.5 -153.5q0 -56 25.5 -87t71.5 -31q44 0 81 26t59 74.5t22 109.5z" />
    <glyph glyph-name="epsilon" unicode="&#x3b5;" horiz-adv-x="449" 
d="M202 -15q-79 0 -126.5 36.5t-47.5 95.5q0 58 35.5 97.5t101.5 53.5q-37 14 -56.5 40t-19.5 62q0 69 55.5 110.5t141.5 41.5q40 0 81 -9t74 -26l-14 -68q-67 26 -132 26q-51 0 -81.5 -21t-30.5 -59q0 -31 24 -48t69 -17h86l-15 -73h-87q-65 0 -101.5 -25t-36.5 -70
q0 -33 26 -51.5t75 -18.5q78 0 157 48l25 -59q-38 -30 -92.5 -48t-110.5 -18z" />
    <glyph glyph-name="zeta" unicode="&#x3b6;" horiz-adv-x="419" 
d="M196 -160q45 24 70.5 48t25.5 43q0 18 -13.5 29t-52.5 25l-49 18q-74 27 -109 70t-35 109q0 117 86 233t272 249h-248l15 76h354l-14 -72q-189 -140 -278 -253t-89 -212q0 -48 21 -75.5t78 -49.5l50 -20q58 -23 81 -46.5t23 -58.5q0 -49 -39 -92.5t-113 -75.5z" />
    <glyph glyph-name="eta" unicode="&#x3b7;" horiz-adv-x="603" 
d="M434 262q16 81 16 114q0 68 -69 68q-37 0 -83 -29.5t-90 -81.5l-65 -333h-96l64 331q10 52 10 71q0 34 -35 34q-11 0 -30 -4l-19 59q41 22 87 22q44 0 68.5 -25.5t24.5 -70.5v-9q45 55 97 84.5t104 29.5q62 0 96 -34.5t34 -97.5q0 -24 -3.5 -50t-13.5 -76l-92 -470h-96z
" />
    <glyph glyph-name="theta" unicode="&#x3b8;" horiz-adv-x="570" 
d="M364 754q93 0 137 -62t44 -194q0 -124 -31 -233t-86 -179q-80 -101 -192 -101q-93 0 -137 62t-44 194q0 124 31 233t86 179q80 101 192 101zM249 62q65 0 115 73q50 75 73 198h-285q-4 -40 -4 -90q0 -95 24 -138t77 -43zM236 604q-50 -75 -73 -197h284q5 48 5 89
q0 95 -24 138t-78 43q-64 0 -114 -73z" />
    <glyph glyph-name="iota" unicode="&#x3b9;" horiz-adv-x="289" 
d="M149 -5q-46 0 -72 24t-26 68q0 32 10 87l65 333h96l-65 -333q-10 -53 -10 -69q0 -35 40 -35q26 0 48 9l19 -57q-48 -27 -105 -27z" />
    <glyph glyph-name="kappa" unicode="&#x3ba;" horiz-adv-x="522" 
d="M299 291q33 -71 80.5 -148t100.5 -143h-111q-41 58 -72 111t-64 124l-79 -68l-32 -167h-95l99 507h95l-46 -233l255 233h122z" />
    <glyph glyph-name="lambda" unicode="&#x3bb;" horiz-adv-x="492" 
d="M338 0l-58 401q-61 -89 -114.5 -197t-85.5 -204h-96q39 121 117 261t160 237l-15 95q-7 47 -19.5 64.5t-39.5 17.5q-21 0 -47 -8l-19 58q51 30 93 30q52 0 81 -35.5t42 -116.5l99 -603h-98z" />
    <glyph glyph-name="uni03BC" unicode="&#x3bc;" horiz-adv-x="608" 
d="M-13 -206l139 713h96l-51 -262q-15 -73 -15 -112q0 -69 68 -69q35 0 79.5 30t82.5 79l66 334h96l-64 -329q-11 -54 -11 -74q0 -33 34 -33q16 0 34 5l19 -58q-18 -10 -42.5 -16.5t-47.5 -6.5q-45 0 -68 24t-23 70v4q-21 -31 -49.5 -55.5t-59.5 -38.5t-60 -14q-63 0 -86 54
l-47 -245h-90z" />
    <glyph glyph-name="nu" unicode="&#x3bd;" horiz-adv-x="490" 
d="M50 507h101l51 -426q71 104 125.5 215.5t82.5 210.5h98q-27 -113 -106 -253t-177 -254h-89z" />
    <glyph glyph-name="xi" unicode="&#x3be;" horiz-adv-x="427" 
d="M201 -160q45 24 70 48t25 43q0 18 -13.5 29t-52.5 25l-52 20q-79 29 -112 68.5t-33 100.5q0 85 50 145.5t135 78.5q-44 17 -69 53t-25 84q0 63 30.5 112.5t87.5 78t133 28.5q66 0 131 -28l-14 -70q-60 21 -116 21q-69 0 -112.5 -39t-43.5 -102q0 -52 32 -80.5t91 -28.5
h55l-15 -76h-74q-82 0 -130 -43.5t-48 -116.5q0 -42 21 -66t79 -46l54 -21q56 -21 79.5 -45t23.5 -60q0 -49 -39 -92.5t-113 -75.5z" />
    <glyph glyph-name="omicron" unicode="&#x3bf;" horiz-adv-x="535" 
d="M222 -15q-87 0 -138 54t-51 147t35 169t99.5 121.5t146.5 45.5q87 0 137.5 -54.5t50.5 -146.5q0 -93 -35 -169t-99 -121.5t-146 -45.5zM231 63q48 0 87 31.5t62.5 89.5t23.5 132q0 59 -26.5 93.5t-72.5 34.5q-48 0 -87.5 -31.5t-63 -89.5t-23.5 -132q0 -59 27 -93.5
t73 -34.5z" />
    <glyph glyph-name="pi" unicode="&#x3c0;" horiz-adv-x="610" 
d="M451 -5q-47 0 -72.5 24t-25.5 70q0 30 11 85l50 255h-157q-24 -115 -41.5 -181t-38 -126t-46.5 -122h-98q50 117 79.5 214.5t50.5 214.5h-115l15 78h565l-16 -78h-104l-50 -255q-9 -49 -9 -69q0 -35 39 -35q27 0 49 9l18 -57q-46 -27 -104 -27z" />
    <glyph glyph-name="rho" unicode="&#x3c1;" horiz-adv-x="537" 
d="M69 268q24 122 90 188t163 66q83 0 132.5 -49.5t49.5 -134.5q0 -93 -38 -173t-106 -130t-152 -50q-45 0 -95 20l-41 -211h-95zM126 71q37 -10 77 -10q56 0 102 34t73.5 96t27.5 140q0 54 -24.5 83.5t-70.5 29.5q-55 0 -92.5 -45t-54.5 -133z" />
    <glyph glyph-name="sigma1" unicode="&#x3c2;" horiz-adv-x="440" 
d="M187 -160q44 23 70 47.5t26 43.5q0 18 -13 29t-53 25l-48 18q-73 28 -104.5 71t-31.5 116q0 85 38.5 160.5t107.5 123.5t152 48q63 0 118 -26l-14 -72q-48 18 -99 18q-39 0 -75 -17t-65 -50t-46 -78.5t-17 -97.5q0 -50 18.5 -75.5t69.5 -45.5l50 -20q58 -23 81 -46.5
t23 -58.5q0 -50 -39 -93t-113 -75z" />
    <glyph glyph-name="sigma" unicode="&#x3c3;" horiz-adv-x="571" 
d="M221 -15q-88 0 -138 54t-50 149q0 87 36 159.5t101.5 116t148.5 43.5h262l-15 -78h-136q28 -34 42.5 -76t14.5 -88q0 -74 -33.5 -137.5t-94.5 -103t-138 -39.5zM394 282q0 44 -12 83t-33 64h-39q-50 0 -90.5 -29t-64.5 -83t-24 -124q0 -62 26.5 -96t74.5 -34
q45 0 81.5 27.5t58.5 78t22 113.5z" />
    <glyph glyph-name="tau" unicode="&#x3c4;" horiz-adv-x="461" 
d="M249 -5q-112 0 -112 100q0 32 12 93l47 241h-153l16 78h424l-15 -78h-176l-47 -237q-11 -55 -11 -80q0 -41 46 -41q33 0 71 14l19 -59q-55 -31 -121 -31z" />
    <glyph glyph-name="upsilon" unicode="&#x3c5;" horiz-adv-x="545" 
d="M236 -15q-76 0 -117.5 41.5t-41.5 117.5q0 31 7 66l23 121q10 53 10 71q0 34 -35 34q-10 0 -30 -4l-19 59q39 22 88 22q44 0 69 -25.5t25 -70.5q0 -24 -7 -59l-28 -148q-8 -45 -8 -74q0 -75 74 -75q77 0 121.5 74t44.5 202q0 78 -23 170h88q30 -76 30 -174
q0 -102 -33 -180.5t-94.5 -123t-143.5 -44.5z" />
    <glyph glyph-name="phi" unicode="&#x3c6;" horiz-adv-x="736" 
d="M270 -15q-115 4 -176 58.5t-61 152.5q0 87 42.5 159t121.5 117.5t178 49.5l23 117h91l-23 -117q115 -4 176 -59t61 -153q0 -87 -42.5 -159t-121 -117t-178.5 -49l-37 -191h-91zM375 55q65 5 117.5 37.5t84 89.5t31.5 124t-40 104t-116 41zM128 201q0 -67 39.5 -104
t116.5 -42l77 396q-66 -5 -118.5 -37.5t-83.5 -89t-31 -123.5z" />
    <glyph glyph-name="chi" unicode="&#x3c7;" horiz-adv-x="472" 
d="M182 169l-51 214q-6 26 -19 38.5t-34 12.5q-17 0 -33 -4l-14 62q40 21 81 21q42 0 67 -24t37 -77l36 -163l175 258h100l-249 -351l52 -237q6 -27 18 -39t34 -12q17 0 32 4l15 -62q-40 -21 -81 -21q-83 0 -102 97l-39 190l-188 -282h-100z" />
    <glyph glyph-name="psi" unicode="&#x3c8;" horiz-adv-x="744" 
d="M110 344q7 40 7 57q0 35 -35 35q-11 0 -30 -4l-19 59q39 22 88 22q43 0 66.5 -24t23.5 -67q0 -25 -9 -72l-21 -106q-5 -28 -5 -52q0 -58 32 -91.5t93 -39.5l113 578h92l-114 -579q102 4 162 76t60 190q0 44 -6 86t-20 95h86q32 -87 32 -174q0 -100 -39.5 -178t-114 -123
t-174.5 -47l-37 -191h-92l38 192q-97 8 -149.5 60t-52.5 139q0 31 6 59z" />
    <glyph glyph-name="omega" unicode="&#x3c9;" horiz-adv-x="718" 
d="M167 -9q-64 0 -99 43t-35 121q0 90 43.5 185.5t116.5 166.5h97q-77 -86 -118.5 -174t-41.5 -167q0 -99 65 -99q38 0 65.5 35.5t40.5 103.5l27 138h93l-27 -138q-5 -30 -5 -54q0 -41 17 -63t49 -22q35 0 63.5 27.5t45.5 79t17 117.5q0 52 -12.5 101.5t-42.5 114.5h93
q26 -44 41.5 -101.5t15.5 -111.5q0 -83 -27.5 -151.5t-78.5 -110t-115 -41.5q-51 0 -83 29.5t-42 84.5q-25 -54 -68 -84t-95 -30z" />
    <glyph glyph-name="iotadieresis" unicode="&#x3ca;" horiz-adv-x="289" 
d="M149 -5q-46 0 -72 24t-26 68q0 32 10 87l65 333h96l-65 -333q-10 -53 -10 -69q0 -35 40 -35q26 0 48 9l19 -57q-48 -27 -105 -27zM85 594q-52 0 -52 49q0 28 19.5 47t47.5 19q52 0 52 -49q0 -28 -19.5 -47t-47.5 -19zM300 594q-52 0 -52 49q0 28 19.5 47t47.5 19
q52 0 52 -49q0 -28 -19.5 -47t-47.5 -19z" />
    <glyph glyph-name="upsilondieresis" unicode="&#x3cb;" horiz-adv-x="545" 
d="M236 -15q-76 0 -117.5 41.5t-41.5 117.5q0 31 7 66l23 121q10 53 10 71q0 34 -35 34q-10 0 -30 -4l-19 59q39 22 88 22q44 0 69 -25.5t25 -70.5q0 -24 -7 -59l-28 -148q-8 -45 -8 -74q0 -75 74 -75q77 0 121.5 74t44.5 202q0 78 -23 170h88q30 -76 30 -174
q0 -102 -33 -180.5t-94.5 -123t-143.5 -44.5zM210 594q-52 0 -52 49q0 28 19.5 47t47.5 19q52 0 52 -49q0 -28 -19.5 -47t-47.5 -19zM425 594q-52 0 -52 49q0 28 19.5 47t47.5 19q52 0 52 -49q0 -28 -19.5 -47t-47.5 -19z" />
    <glyph glyph-name="omicrontonos" unicode="&#x3cc;" horiz-adv-x="535" 
d="M222 -15q-87 0 -138 54t-51 147t35 169t99.5 121.5t146.5 45.5q87 0 137.5 -54.5t50.5 -146.5q0 -93 -35 -169t-99 -121.5t-146 -45.5zM231 63q48 0 87 31.5t62.5 89.5t23.5 132q0 59 -26.5 93.5t-72.5 34.5q-48 0 -87.5 -31.5t-63 -89.5t-23.5 -132q0 -59 27 -93.5
t73 -34.5zM390 773h111l-132 -172h-70z" />
    <glyph glyph-name="upsilontonos" unicode="&#x3cd;" horiz-adv-x="545" 
d="M236 -15q-76 0 -117.5 41.5t-41.5 117.5q0 31 7 66l23 121q10 53 10 71q0 34 -35 34q-10 0 -30 -4l-19 59q39 22 88 22q44 0 69 -25.5t25 -70.5q0 -24 -7 -59l-28 -148q-8 -45 -8 -74q0 -75 74 -75q77 0 121.5 74t44.5 202q0 78 -23 170h88q30 -76 30 -174
q0 -102 -33 -180.5t-94.5 -123t-143.5 -44.5zM360 773h111l-132 -172h-70z" />
    <glyph glyph-name="omegatonos" unicode="&#x3ce;" horiz-adv-x="718" 
d="M167 -9q-64 0 -99 43t-35 121q0 90 43.5 185.5t116.5 166.5h97q-77 -86 -118.5 -174t-41.5 -167q0 -99 65 -99q38 0 65.5 35.5t40.5 103.5l27 138h93l-27 -138q-5 -30 -5 -54q0 -41 17 -63t49 -22q35 0 63.5 27.5t45.5 79t17 117.5q0 52 -12.5 101.5t-42.5 114.5h93
q26 -44 41.5 -101.5t15.5 -111.5q0 -83 -27.5 -151.5t-78.5 -110t-115 -41.5q-51 0 -83 29.5t-42 84.5q-25 -54 -68 -84t-95 -30zM468 773h111l-132 -172h-70z" />
    <glyph glyph-name="uni03D7" unicode="&#x3d7;" horiz-adv-x="518" 
d="M477 31q-18 -126 -82.5 -187.5t-176.5 -61.5q-66 0 -116 21l13 64q45 -12 97 -12q74 0 114.5 34.5t56.5 112.5q-40 38 -75 91.5t-75 141.5l-79 -68l-32 -167h-95l99 507h95l-46 -233l255 233h122l-253 -216q37 -82 83.5 -150t94.5 -110z" />
    <glyph glyph-name="uni0400" unicode="&#x400;" horiz-adv-x="557" 
d="M43 0l135 693h423l-16 -81h-324l-42 -215h272l-16 -80h-272l-46 -236h324l-15 -81h-423zM351 769l-104 123h115l75 -123h-86z" />
    <glyph glyph-name="uni0401" unicode="&#x401;" horiz-adv-x="557" 
d="M43 0l135 693h423l-16 -81h-324l-42 -215h272l-16 -80h-272l-46 -236h324l-15 -81h-423zM314 779q-26 0 -39.5 12.5t-13.5 36.5q0 29 19.5 48t48.5 19q26 0 39.5 -12.5t13.5 -36.5q0 -29 -19.5 -48t-48.5 -19zM505 779q-26 0 -39.5 12.5t-13.5 36.5q0 29 19.5 48t48.5 19
q26 0 39.5 -12.5t13.5 -36.5q0 -29 -19.5 -48t-48.5 -19z" />
    <glyph glyph-name="uni0402" unicode="&#x402;" horiz-adv-x="741" 
d="M267 611h-187l16 82h519l-16 -82h-233l-44 -226q97 40 194 40q87 0 135 -46t48 -128q0 -75 -32.5 -134.5t-94 -94t-143.5 -34.5q-41 0 -84 13l14 72q23 -6 66 -6q82 1 128 47.5t46 128.5q0 53 -28 78.5t-84 25.5q-88 0 -179 -32l-61 -315h-99z" />
    <glyph glyph-name="uni0403" unicode="&#x403;" horiz-adv-x="515" 
d="M43 0l135 693h393l-16 -82h-294l-119 -611h-99zM424 769h-87l116 123h123z" />
    <glyph glyph-name="uni0404" unicode="&#x404;" horiz-adv-x="593" 
d="M539 53q-48 -34 -107 -52t-120 -18q-120 0 -187 73t-67 203q0 118 51 220.5t142.5 166t204.5 63.5q88 0 154 -36l-15 -77q-64 27 -136 27q-99 0 -175 -62t-107 -167h339l-15 -78h-339q-1 -12 -1.5 -23.5t-0.5 -23.5q0 -98 43.5 -148.5t126.5 -50.5q42 0 90.5 14.5
t94.5 40.5z" />
    <glyph glyph-name="uni0405" unicode="&#x405;" horiz-adv-x="541" 
d="M231 326q-72 34 -104 74t-32 98q0 59 31.5 107t89.5 76.5t133 28.5q47 0 92 -12t81 -34l-15 -74q-36 18 -76.5 28t-77.5 10q-74 0 -117 -32t-43 -87q0 -33 21 -57t69 -45l70 -32q71 -32 100.5 -70.5t29.5 -96.5q0 -63 -33 -114t-95 -81t-143 -30q-121 0 -201 51l16 74
q96 -42 186 -42q48 0 86.5 15.5t61.5 44.5t23 67q0 34 -21.5 58.5t-73.5 47.5z" />
    <glyph glyph-name="uni0406" unicode="&#x406;" horiz-adv-x="295" 
d="M47 0l135 693h99l-135 -693h-99z" />
    <glyph glyph-name="uni0407" unicode="&#x407;" horiz-adv-x="295" 
d="M47 0l135 693h99l-135 -693h-99zM159 779q-26 0 -39.5 12.5t-13.5 36.5q0 29 19.5 48t48.5 19q26 0 39.5 -12.5t13.5 -36.5q0 -29 -19.5 -48t-48.5 -19zM350 779q-26 0 -39.5 12.5t-13.5 36.5q0 29 19.5 48t48.5 19q26 0 39.5 -12.5t13.5 -36.5q0 -29 -19.5 -48
t-48.5 -19z" />
    <glyph glyph-name="uni0408" unicode="&#x408;" horiz-adv-x="427" 
d="M325 693h99l-98 -502q-40 -208 -223 -208q-61 0 -130 33l14 76q66 -22 114 -22q55 0 85 31.5t44 102.5z" />
    <glyph glyph-name="uni0409" unicode="&#x409;" horiz-adv-x="937" 
d="M527 612h-159q-67 -252 -120 -383t-108 -184t-127 -53q-24 0 -45 6l15 81q4 -1 20 -1q71 0 135.5 130t140.5 423l16 62h345l-54 -278h96q96 0 151 -49.5t55 -135.5q0 -105 -69 -167.5t-185 -62.5h-226zM571 338l-51 -261h124q68 0 107 40t39 109q0 54 -30.5 83t-88.5 29
h-100z" />
    <glyph glyph-name="uni040A" unicode="&#x40a;" horiz-adv-x="957" 
d="M428 0l61 314h-286l-61 -314h-99l135 693h99l-58 -298h286l58 298h99l-57 -290h97q97 0 151.5 -47.5t54.5 -131.5q0 -101 -69.5 -162.5t-184.5 -61.5h-226zM590 326l-48 -249h122q67 0 106.5 38.5t39.5 104.5q0 52 -30 79t-89 27h-101z" />
    <glyph glyph-name="uni040B" unicode="&#x40b;" horiz-adv-x="774" 
d="M148 0l119 611h-187l16 82h519l-16 -82h-233l-45 -231q113 47 208 47q80 0 125.5 -34.5t45.5 -95.5q0 -30 -8 -73l-43 -224h-99l44 226q6 30 6 51q0 71 -101 71q-86 0 -192 -40l-60 -308h-99z" />
    <glyph glyph-name="uni040C" unicode="&#x40c;" horiz-adv-x="599" 
d="M43 0l135 693h99l-61 -312l338 312h126l-366 -334l240 -359h-116l-228 350l-68 -350h-99zM438 769h-87l116 123h123z" />
    <glyph glyph-name="uni040D" unicode="&#x40d;" horiz-adv-x="729" 
d="M487 0l104 538l-450 -538h-98l135 693h97l-105 -538l451 538h98l-135 -693h-97zM396 769l-104 123h115l75 -123h-86z" />
    <glyph glyph-name="uni040E" unicode="&#x40e;" horiz-adv-x="595" 
d="M196 693l110 -423l246 423h109l-335 -552q-52 -85 -102 -121t-115 -36q-31 0 -60 7l16 81q23 -3 42 -3q45 0 75 22.5t63 80.5l-156 521h107zM374 765q-58 0 -96 28t-38 72q0 28 16 57h65q-7 -24 -7 -43q0 -50 70 -50q81 0 99 69l6 24h70q-1 -73 -50.5 -115t-134.5 -42z
" />
    <glyph glyph-name="uni040F" unicode="&#x40f;" horiz-adv-x="688" 
d="M248 0h-205l135 693h99l-119 -612h302l119 612h99l-135 -693h-205l-34 -176h-90z" />
    <glyph glyph-name="uni0410" unicode="&#x410;" horiz-adv-x="612" 
d="M459 0l-26 185h-272l-97 -185h-104l380 693h108l115 -693h-104zM200 260h224l-47 338z" />
    <glyph glyph-name="uni0411" unicode="&#x411;" horiz-adv-x="589" 
d="M43 0l135 693h407l-16 -81h-310l-40 -204h118q96 0 150.5 -48.5t54.5 -135.5q0 -67 -30.5 -117.5t-88 -78.5t-135.5 -28h-245zM204 331l-49 -254h142q69 0 108 38.5t39 105.5q0 110 -119 110h-121z" />
    <glyph glyph-name="uni0412" unicode="&#x412;" horiz-adv-x="608" 
d="M43 0l135 693h216q86 0 135.5 -43.5t49.5 -119.5q0 -60 -32 -105t-89 -67q47 -19 72.5 -56t25.5 -86q0 -63 -31.5 -111.5t-90.5 -76.5t-138 -28h-253zM201 319l-47 -244h150q70 0 111 39t41 105q0 46 -27 73t-73 27h-155zM259 618l-44 -228h140q57 0 93 37.5t36 97.5
q0 44 -27.5 68.5t-77.5 24.5h-120z" />
    <glyph glyph-name="uni0413" unicode="&#x413;" horiz-adv-x="515" 
d="M43 0l135 693h393l-16 -82h-294l-119 -611h-99z" />
    <glyph glyph-name="uni0414" unicode="&#x414;" horiz-adv-x="709" 
d="M-9 81h46q68 59 126 185t122 352l21 75h371l-120 -612h90l-50 -257h-90l34 176h-476l-34 -176h-90zM377 612q-117 -417 -238 -531h320l104 531h-186z" />
    <glyph glyph-name="uni0415" unicode="&#x415;" horiz-adv-x="557" 
d="M43 0l135 693h423l-16 -81h-324l-42 -215h272l-16 -80h-272l-46 -236h324l-15 -81h-423z" />
    <glyph glyph-name="uni0416" unicode="&#x416;" horiz-adv-x="800" 
d="M-56 0l340 375l-191 318h103l180 -312l61 312h94l-61 -312l296 312h113l-322 -334l210 -359h-107l-196 348l-68 -348h-94l68 350l-308 -350h-118z" />
    <glyph glyph-name="uni0417" unicode="&#x417;" horiz-adv-x="551" 
d="M204 -15q-51 0 -100 13t-88 37l15 76q37 -19 84 -30.5t89 -11.5q82 0 129.5 40t47.5 108q0 101 -124 101h-92l14 76h95q68 0 109.5 35.5t41.5 93.5q0 49 -32.5 74.5t-93.5 25.5q-74 0 -162 -37l-24 69q38 23 92 37.5t105 14.5q96 0 154 -47t58 -124q0 -64 -34.5 -110.5
t-99.5 -68.5q95 -35 95 -146q0 -66 -33.5 -117t-97 -80t-148.5 -29z" />
    <glyph glyph-name="uni0418" unicode="&#x418;" horiz-adv-x="729" 
d="M487 0l104 538l-450 -538h-98l135 693h97l-105 -538l451 538h98l-135 -693h-97z" />
    <glyph glyph-name="uni0419" unicode="&#x419;" horiz-adv-x="729" 
d="M487 0l104 538l-450 -538h-98l135 693h97l-105 -538l451 538h98l-135 -693h-97zM453 765q-58 0 -96 28t-38 72q0 28 16 57h65q-7 -24 -7 -43q0 -50 70 -50q81 0 99 69l6 24h70q-1 -73 -50.5 -115t-134.5 -42z" />
    <glyph glyph-name="uni041A" unicode="&#x41a;" horiz-adv-x="599" 
d="M43 0l135 693h99l-61 -312l338 312h126l-366 -334l240 -359h-116l-228 350l-68 -350h-99z" />
    <glyph glyph-name="uni041B" unicode="&#x41b;" horiz-adv-x="674" 
d="M554 612h-186q-67 -252 -120 -383t-108 -184t-127 -53q-24 0 -45 6l15 81q4 -1 20 -1q71 0 135.5 130t140.5 423l16 62h373l-134 -693h-99z" />
    <glyph glyph-name="uni041C" unicode="&#x41c;" horiz-adv-x="840" 
d="M600 0l107 549l-259 -371h-86l-116 379l-108 -557h-95l135 693h112l132 -428l297 428h111l-135 -693h-95z" />
    <glyph glyph-name="uni041D" unicode="&#x41d;" horiz-adv-x="725" 
d="M481 0l61 314h-339l-61 -314h-99l135 693h99l-58 -298h339l58 298h99l-135 -693h-99z" />
    <glyph glyph-name="uni041E" unicode="&#x41e;" horiz-adv-x="748" 
d="M337 67q77 0 138.5 44t98 125.5t36.5 186.5q0 94 -47.5 147.5t-129.5 53.5q-76 0 -138 -44t-98.5 -126t-36.5 -187q0 -93 47.5 -146.5t129.5 -53.5zM325 -17q-81 0 -141 33t-93 95t-33 148q0 124 48 226t136.5 162.5t202.5 60.5q123 0 195 -74.5t72 -202.5
q0 -124 -48 -225.5t-136.5 -162t-202.5 -60.5z" />
    <glyph glyph-name="uni041F" unicode="&#x41f;" horiz-adv-x="702" 
d="M458 0l120 611h-317l-119 -611h-99l135 693h514l-135 -693h-99z" />
    <glyph glyph-name="uni0420" unicode="&#x420;" horiz-adv-x="593" 
d="M43 0l135 693h201q101 0 157 -48.5t56 -136.5q0 -70 -35 -124t-101 -85t-154 -31h-110l-52 -268h-97zM207 347h99q87 0 137.5 42t50.5 114q0 56 -33.5 83.5t-101.5 27.5h-100z" />
    <glyph glyph-name="uni0421" unicode="&#x421;" horiz-adv-x="593" 
d="M539 53q-48 -34 -107 -52t-120 -18q-120 0 -187 73t-67 203q0 118 51 220.5t142.5 166t204.5 63.5q88 0 154 -36l-15 -77q-64 27 -136 27q-82 0 -149.5 -44.5t-107.5 -125.5t-40 -184q0 -97 43 -148t125 -51q42 0 90.5 14.5t94.5 40.5z" />
    <glyph glyph-name="uni0422" unicode="&#x422;" horiz-adv-x="563" 
d="M176 0l119 611h-215l16 82h527l-16 -82h-213l-119 -611h-99z" />
    <glyph glyph-name="uni0423" unicode="&#x423;" horiz-adv-x="595" 
d="M196 693l110 -423l246 423h109l-335 -552q-52 -85 -102 -121t-115 -36q-31 0 -60 7l16 81q23 -3 42 -3q45 0 75 22.5t63 80.5l-156 521h107z" />
    <glyph glyph-name="uni0424" unicode="&#x424;" horiz-adv-x="802" 
d="M315 57q-126 11 -194 74.5t-68 171.5q0 93 45 166.5t130 118.5t200 51l17 84h86l-17 -85q126 -11 194.5 -75t68.5 -171q0 -93 -45 -167t-130.5 -118.5t-200.5 -50.5l-16 -86h-87zM679 388q0 160 -179 178l-85 -438q125 10 194.5 78t69.5 182zM151 307q0 -160 178 -178
l85 437q-125 -10 -194 -77.5t-69 -181.5z" />
    <glyph glyph-name="uni0425" unicode="&#x425;" horiz-adv-x="572" 
d="M419 0l-123 284l-229 -284h-116l305 368l-145 325h106l109 -259l209 259h116l-284 -341l158 -352h-106z" />
    <glyph glyph-name="uni0426" unicode="&#x426;" horiz-adv-x="699" 
d="M498 -176l34 176h-489l135 693h99l-119 -612h291l119 612h99l-119 -612h90l-50 -257h-90z" />
    <glyph glyph-name="uni0427" unicode="&#x427;" horiz-adv-x="650" 
d="M406 0l59 303q-92 -45 -212 -45q-78 0 -121.5 34t-43.5 93q0 39 18 130l35 178h99l-34 -176q-17 -86 -17 -109q0 -37 22 -53.5t71 -16.5q100 0 198 42l61 313h99l-135 -693h-99z" />
    <glyph glyph-name="uni0428" unicode="&#x428;" horiz-adv-x="975" 
d="M178 693h97l-119 -612h248l119 612h97l-119 -612h248l119 612h97l-135 -693h-787z" />
    <glyph glyph-name="uni0429" unicode="&#x429;" horiz-adv-x="979" 
d="M778 -176l34 176h-769l135 693h97l-119 -612h239l119 612h97l-119 -612h239l119 612h97l-119 -612h90l-50 -257h-90z" />
    <glyph glyph-name="uni042A" unicode="&#x42a;" horiz-adv-x="677" 
d="M257 611h-186l17 82h284l-54 -278h104q96 0 151 -49.5t55 -135.5q0 -105 -69 -167.5t-185 -62.5h-235zM303 338l-51 -261h131q69 0 108 40t39 109q0 54 -30.5 83t-88.5 29h-108z" />
    <glyph glyph-name="uni042B" unicode="&#x42b;" horiz-adv-x="807" 
d="M43 0l135 693h99l-54 -278h94q96 0 151 -49.5t55 -135.5q0 -105 -69 -167.5t-185 -62.5h-226zM563 0l135 693h99l-135 -693h-99zM208 338l-51 -261h121q69 0 108 40t39 109q0 54 -30.5 83t-88.5 29h-98z" />
    <glyph glyph-name="uni042C" unicode="&#x42c;" horiz-adv-x="605" 
d="M43 0l135 693h99l-54 -278h127q96 0 151 -49.5t55 -135.5q0 -105 -69 -167.5t-185 -62.5h-259zM208 338l-51 -261h155q68 0 107 40t39 109q0 54 -30.5 83t-88.5 29h-131z" />
    <glyph glyph-name="uni042D" unicode="&#x42d;" horiz-adv-x="624" 
d="M198 -17q-90 0 -158 36l15 78q65 -27 140 -27q109 0 185 65.5t99 180.5h-310l15 78h304v14q0 106 -45.5 160.5t-133.5 54.5q-42 0 -89 -14.5t-90 -40.5l-25 72q46 33 103 51t115 18q125 0 195 -77t70 -214q0 -122 -48.5 -220.5t-137.5 -156.5t-204 -58z" />
    <glyph glyph-name="uni042E" unicode="&#x42e;" horiz-adv-x="967" 
d="M580 -17q-110 0 -176 76t-66 204q0 34 2 51h-137l-61 -314h-99l135 693h99l-58 -298h133q20 92 67.5 163t116.5 111t150 40q112 0 178.5 -76t66.5 -204q0 -123 -43.5 -224t-124 -161.5t-183.5 -60.5zM585 67q68 0 123.5 44.5t88.5 126t33 186.5q0 94 -39.5 147.5
t-109.5 53.5q-68 0 -123.5 -44.5t-88.5 -126t-33 -186.5q0 -94 39.5 -147.5t109.5 -53.5z" />
    <glyph glyph-name="uni042F" unicode="&#x42f;" horiz-adv-x="610" 
d="M211 305q-50 19 -77 60.5t-27 99.5q0 67 30 118.5t86.5 80.5t134.5 29h242l-135 -693h-96l56 288h-127l-216 -288h-118zM214 465q0 -49 30 -75.5t85 -26.5h110l50 252h-125q-71 0 -110.5 -39.5t-39.5 -110.5z" />
    <glyph glyph-name="uni0430" unicode="&#x430;" horiz-adv-x="552" 
d="M345 0l6 92q-40 -51 -88.5 -79t-98.5 -28q-63 0 -97 44.5t-34 125.5q0 92 40.5 175.5t112 137.5t155.5 54q39 0 88 -11t89 -29l-94 -482h-79zM200 64q75 0 162 109l52 261q-46 11 -74 11q-52 0 -99.5 -36.5t-78.5 -101.5t-31 -141q0 -51 16.5 -76.5t52.5 -25.5z" />
    <glyph glyph-name="uni0431" unicode="&#x431;" horiz-adv-x="542" 
d="M235 -15q-94 0 -142 57t-48 167q0 137 38.5 248.5t104.5 167.5q66 57 199 84l186 37l-21 -87l-170 -31q-55 -10 -86 -22t-55 -32q-57 -48 -84 -173q37 29 87 46t98 17q79 0 124 -47.5t45 -129.5q0 -83 -34 -151.5t-97.5 -109.5t-144.5 -41zM315 390q-39 0 -83 -13
t-80 -35q-12 -64 -12 -119q0 -160 107 -160q45 0 82.5 26t60 74.5t22.5 109.5q0 117 -97 117z" />
    <glyph glyph-name="uni0432" unicode="&#x432;" horiz-adv-x="511" 
d="M474 413q0 -96 -123 -144q44 -11 68 -40.5t24 -71.5q0 -78 -61 -126.5t-160 -48.5q-92 0 -140.5 49t-48.5 143q0 95 37 175t105.5 128t154.5 48q68 0 106 -29.5t38 -82.5zM121 211v-32q0 -124 110 -124q58 0 92 27t34 74q0 38 -23.5 60t-65.5 25zM317 454
q-67 0 -118.5 -50t-70.5 -133l97 20q84 18 123.5 44.5t39.5 65.5q0 53 -71 53z" />
    <glyph glyph-name="uni0433" unicode="&#x433;" horiz-adv-x="442" 
d="M181 -15q-77 0 -119 34t-42 96q0 57 38 97.5t118 69.5l54 20q56 21 78 39.5t22 45.5q0 29 -22 44.5t-63 15.5q-64 0 -134 -33l-25 59q80 49 179 49q72 0 114 -34t42 -92q0 -54 -38.5 -94t-118.5 -69l-60 -22q-48 -18 -70 -38.5t-22 -49.5q0 -31 21.5 -46.5t62.5 -15.5
q67 0 149 36l24 -58q-39 -25 -89.5 -39.5t-98.5 -14.5z" />
    <glyph glyph-name="uni0434" unicode="&#x434;" horiz-adv-x="561" 
d="M229 -15q-90 0 -143 54.5t-53 147.5q0 80 34 148t95.5 109t138.5 41q51 0 91 -27.5t55 -74.5q3 30 3 66q0 103 -36 154.5t-119 64.5q-16 3 -39 3l9 79q30 0 55 -4q110 -15 164 -87t54 -203q0 -135 -37.5 -241.5t-108 -168t-163.5 -61.5zM236 62q46 0 86 30t66 83.5
t26 115.5q0 54 -29.5 85.5t-80.5 31.5q-49 0 -88 -27.5t-62.5 -78t-23.5 -115.5q0 -58 28.5 -91.5t77.5 -33.5z" />
    <glyph glyph-name="uni0435" unicode="&#x435;" horiz-adv-x="482" 
d="M415 49q-95 -66 -214 -66q-80 0 -124 48t-44 136q0 68 21.5 131.5t61.5 114t97 81t122 30.5q61 0 96.5 -31t35.5 -84q0 -78 -73 -135t-205 -82l-62 -12q0 -65 23 -93.5t76 -28.5q71 0 163 50zM318 450q-43 0 -81.5 -25t-66.5 -72t-38 -108l61 14q87 20 135.5 57t48.5 84
q0 23 -15.5 36.5t-43.5 13.5z" />
    <glyph glyph-name="uni0436" unicode="&#x436;" horiz-adv-x="913" 
d="M403 222h-104q-29 -106 -95.5 -171.5t-147.5 -65.5q-45 0 -77 19l14 66q35 -12 59 -12q46 0 86 35t65 98t25 140q0 116 -81 116q-35 0 -74 -24l-27 55q26 21 60 32.5t67 11.5q66 0 104 -46.5t38 -129.5q0 -25 -3 -49h105l41 210h85l-41 -210h104q30 102 96 164.5
t145 62.5q45 0 77 -19l-14 -66q-34 12 -59 12q-46 0 -86 -35t-65 -98t-25 -140q0 -116 81 -116q35 0 74 24l27 -55q-26 -21 -60 -32.5t-67 -11.5q-66 0 -104 46.5t-38 129.5q0 15 1 29.5t2 29.5h-103l-43 -222h-85z" />
    <glyph glyph-name="uni0437" unicode="&#x437;" horiz-adv-x="432" 
d="M145 -15q-85 0 -152 31l13 69q76 -24 141 -24q63 0 99 25t36 71q0 68 -111 68h-72l12 66h70q58 0 90 24t32 67q0 32 -23 49.5t-65 17.5q-54 0 -122 -31l-25 55q31 22 77 35.5t90 13.5q72 0 116 -35t44 -93q0 -47 -27 -82.5t-75 -50.5q39 -15 60 -43.5t21 -65.5
q0 -50 -27.5 -87.5t-79 -58.5t-122.5 -21z" />
    <glyph glyph-name="uni0438" unicode="&#x438;" horiz-adv-x="572" 
d="M365 0l6 93q-41 -51 -93 -79.5t-103 -28.5q-59 0 -90.5 33t-31.5 97q0 45 16 128l52 264h96l-51 -262q-15 -75 -15 -118q0 -33 14.5 -47.5t46.5 -14.5q37 0 82.5 29.5t87.5 79.5l65 333h96l-98 -507h-80z" />
    <glyph glyph-name="uni0439" unicode="&#x439;" horiz-adv-x="572" 
d="M365 0l6 93q-41 -51 -93 -79.5t-103 -28.5q-59 0 -90.5 33t-31.5 97q0 45 16 128l52 264h96l-51 -262q-15 -75 -15 -118q0 -33 14.5 -47.5t46.5 -14.5q37 0 82.5 29.5t87.5 79.5l65 333h96l-98 -507h-80zM346 597q-61 0 -99 29t-38 77q0 36 17 64h63q-7 -18 -7 -50
q0 -28 19 -42.5t54 -14.5q39 0 63 19.5t35 60.5l7 27h68q-1 -78 -50 -124t-132 -46z" />
    <glyph glyph-name="uni043A" unicode="&#x43a;" horiz-adv-x="502" 
d="M31 0l99 507h96l-45 -229l239 229h120l-272 -253l203 -254h-114l-185 231l-45 -231h-96z" />
    <glyph glyph-name="uni043B" unicode="&#x43b;" horiz-adv-x="584" 
d="M33 -15q-32 0 -58 12l14 67q9 -2 22 -2q28 0 49 21.5t38 64.5l59 151q36 91 69 138t72.5 66t96.5 19q34 0 77.5 -7t78.5 -18l-96 -497h-95l86 443q-31 5 -56 5q-36 0 -59 -14.5t-43.5 -49.5t-45.5 -99l-57 -146q-34 -86 -68 -120t-84 -34z" />
    <glyph glyph-name="uni043C" unicode="&#x43c;" horiz-adv-x="681" 
d="M467 0l71 370l-186 -266h-80l-82 273l-73 -377h-86l98 507h104l93 -320l221 320h104l-98 -507h-86z" />
    <glyph glyph-name="uni043D" unicode="&#x43d;" horiz-adv-x="587" 
d="M364 0l42 221h-236l-43 -221h-96l98 507h96l-40 -210h236l41 210h96l-98 -507h-96z" />
    <glyph glyph-name="uni043E" unicode="&#x43e;" horiz-adv-x="539" 
d="M225 -15q-89 0 -140.5 54t-51.5 147q0 91 35.5 167.5t100 122.5t145.5 46q89 0 140.5 -54t51.5 -147q0 -91 -35.5 -167.5t-100 -122.5t-145.5 -46zM233 63q49 0 88.5 31.5t63 89.5t23.5 132q0 61 -26.5 94.5t-75.5 33.5t-88.5 -31.5t-63 -89.5t-23.5 -132
q0 -61 26.5 -94.5t75.5 -33.5z" />
    <glyph glyph-name="uni043F" unicode="&#x43f;" horiz-adv-x="587" 
d="M368 0l51 262q16 79 16 114q0 68 -69 68q-37 0 -83 -29.5t-90 -81.5l-66 -333h-96l99 507h79l-5 -95q45 53 96.5 81.5t101.5 28.5q62 0 96 -34t34 -98q0 -22 -3.5 -46.5t-13.5 -79.5l-51 -264h-96z" />
    <glyph glyph-name="uni0440" unicode="&#x440;" horiz-adv-x="551" 
d="M-9 -206l139 713h79l-6 -94q86 109 186 109q63 0 96 -46t33 -131q0 -97 -37.5 -179t-105.5 -131.5t-153 -49.5q-49 0 -95 20l-41 -211h-95zM350 443q-70 0 -159 -111l-51 -261q40 -10 77 -10q56 0 102 34t73.5 96.5t27.5 141.5q0 110 -70 110z" />
    <glyph glyph-name="uni0441" unicode="&#x441;" horiz-adv-x="447" 
d="M213 -15q-83 0 -131.5 49.5t-48.5 135.5q0 90 39 170t108.5 131t152.5 51q31 0 63 -7t55 -19l-14 -72q-49 18 -95 18q-59 0 -106 -32.5t-75 -92t-28 -136.5q0 -62 23.5 -89t76.5 -27q60 0 144 47l26 -61q-41 -32 -90 -49t-100 -17z" />
    <glyph glyph-name="uni0442" unicode="&#x442;" horiz-adv-x="894" 
d="M675 0l51 262q16 79 16 114q0 68 -64 68q-35 0 -78.5 -26.5t-85.5 -73.5l-14 -80l-51 -264h-96l51 262q16 79 16 114q0 68 -64 68q-35 0 -78 -29t-85 -80l-66 -335h-96l99 507h79l-5 -93q43 52 91.5 80t96.5 28q55 0 87 -28.5t37 -82.5q44 54 94.5 82.5t103.5 28.5
q60 0 92.5 -34t32.5 -98q0 -22 -3.5 -46.5t-13.5 -79.5l-51 -264h-96z" />
    <glyph glyph-name="uni0443" unicode="&#x443;" horiz-adv-x="485" 
d="M-63 -151q72 26 111 54q47 34 101 99l-103 505h101l70 -420q50 87 103.5 201t93.5 219h99q-36 -91 -88 -194.5t-107.5 -198t-100.5 -150.5q-63 -80 -118.5 -123t-118.5 -60z" />
    <glyph glyph-name="uni0444" unicode="&#x444;" horiz-adv-x="757" 
d="M294 36q-61 -51 -129 -51q-65 0 -98.5 43t-33.5 128q0 96 33 179t93 135t133 52q24 0 48.5 -6.5t42.5 -18.5l47 243h85l-52 -270q63 52 129 52q65 0 98.5 -43t33.5 -128q0 -96 -33 -179t-93 -135t-133 -52q-50 0 -92 24l-41 -215h-85zM202 63q48 0 105 42l64 331
q-40 10 -73 10q-45 0 -84 -35t-63 -99t-24 -143q0 -54 18.5 -80t56.5 -26zM555 444q-46 0 -106 -43l-64 -330q34 -10 74 -10q45 0 84 35t63 99t24 143q0 54 -18.5 80t-56.5 26z" />
    <glyph glyph-name="uni0445" unicode="&#x445;" horiz-adv-x="471" 
d="M315 0l-89 195l-156 -195h-109l230 263l-121 244h101l81 -181l145 181h108l-215 -248l127 -259h-102z" />
    <glyph glyph-name="uni0446" unicode="&#x446;" horiz-adv-x="584" 
d="M496 -164h-88l32 163q-32 2 -50 23.5t-18 57.5v14q-43 -52 -94.5 -80.5t-102.5 -28.5q-59 0 -90.5 33t-31.5 97q0 45 16 128l52 264h96l-51 -262q-15 -75 -15 -118q0 -33 14.5 -47.5t46.5 -14.5q37 0 82.5 29t87.5 79v2l65 332h96l-64 -333q-10 -49 -10 -71q0 -17 9 -24
t30 -7q14 0 34 4z" />
    <glyph glyph-name="uni0447" unicode="&#x447;" horiz-adv-x="535" 
d="M311 0l42 218q-77 -36 -158 -36q-63 0 -98 30.5t-35 84.5q0 36 14 109l20 101h96l-20 -99q-12 -58 -12 -91q0 -32 17 -46t55 -14q61 0 134 29l43 221h96l-98 -507h-96z" />
    <glyph glyph-name="uni0448" unicode="&#x448;" horiz-adv-x="854" 
d="M508 65q34 0 75 26.5t80 73.5l67 342h95l-98 -507h-79l7 88q-40 -49 -88.5 -76t-95.5 -27q-103 0 -112 115q-40 -54 -91.5 -84.5t-101.5 -30.5q-55 0 -84 33t-29 97q0 45 16 128l52 264h94l-51 -262q-15 -75 -15 -118q0 -32 13 -47t41 -15q34 0 77 28t83 77q4 35 12 73
l52 264h94l-51 -262q-15 -75 -15 -118q0 -33 12.5 -47.5t40.5 -14.5z" />
    <glyph glyph-name="uni0449" unicode="&#x449;" horiz-adv-x="866" 
d="M778 -164h-88l32 163q-32 2 -49.5 23.5t-17.5 57.5v8q-40 -49 -88.5 -76t-95.5 -27q-103 0 -112 115q-40 -54 -91.5 -84.5t-101.5 -30.5q-55 0 -84 33t-29 97q0 45 16 128l52 264h94l-51 -262q-15 -75 -15 -118q0 -32 13 -47t41 -15q34 0 77 28t83 77q4 35 12 73l52 264
h94l-51 -262q-15 -75 -15 -118q0 -33 12.5 -47.5t40.5 -14.5q34 0 75 27t80 74l67 341h95l-64 -333q-10 -49 -10 -71q0 -17 9 -24t30 -7q14 0 34 4z" />
    <glyph glyph-name="uni044A" unicode="&#x44a;" horiz-adv-x="539" 
d="M266 -15q-77 0 -118.5 35t-41.5 102q0 34 9 73l55 236h-145l15 76h241l-46 -198q63 33 121 33q67 0 107.5 -38t40.5 -100q0 -59 -30 -108.5t-84.5 -80t-123.5 -30.5zM317 267q-44 0 -97 -22l-11 -46q-10 -45 -10 -70q0 -36 18.5 -52.5t57.5 -16.5q57 0 94 36.5t37 91.5
q0 39 -22.5 59t-66.5 20z" />
    <glyph glyph-name="uni044B" unicode="&#x44b;" horiz-adv-x="687" 
d="M197 -15q-76 0 -116.5 35.5t-40.5 101.5q0 34 8 72l62 313h93l-40 -201q62 36 124 36q63 0 101.5 -38t38.5 -100q0 -59 -29 -109t-82 -80t-119 -30zM462 0l99 507h96l-99 -507h-96zM248 267q-45 0 -98 -22l-9 -47q-8 -42 -8 -69q0 -35 17.5 -52t55.5 -17q53 0 88 36.5
t35 91.5q0 79 -81 79z" />
    <glyph glyph-name="uni044C" unicode="&#x44c;" horiz-adv-x="476" 
d="M200 -15q-77 0 -118.5 35t-41.5 102q0 34 8 72l62 313h93l-40 -201q63 36 127 36q68 0 109.5 -38t41.5 -100q0 -60 -30.5 -109.5t-85.5 -79.5t-125 -30zM251 267q-47 0 -101 -23l-9 -46q-8 -42 -8 -69q0 -36 18.5 -52.5t57.5 -16.5q58 0 96 36t38 92q0 79 -92 79z" />
    <glyph glyph-name="uni044D" unicode="&#x44d;" horiz-adv-x="477" 
d="M103 291h243q1 6 1 12v13q0 61 -32.5 94t-93.5 33q-55 0 -123 -29l-25 57q35 24 79 37.5t88 13.5q94 0 149 -56t55 -152q0 -89 -39.5 -164t-111 -120t-163.5 -45q-74 0 -127 27l14 70q52 -19 100 -19q84 0 141 42t78 120h-246z" />
    <glyph glyph-name="uni044E" unicode="&#x44e;" horiz-adv-x="779" 
d="M476 -15q-83 0 -131.5 54.5t-48.5 148.5v16.5t1 16.5h-130l-43 -221h-93l98 507h93l-41 -210h128q27 103 96 164t158 61q83 0 133 -54.5t50 -146.5q0 -93 -34 -169t-96 -121.5t-140 -45.5zM484 62q46 0 83.5 32t59.5 91.5t22 135.5q0 59 -25 91.5t-70 32.5t-82.5 -32
t-60 -91t-22.5 -134q0 -61 24.5 -93.5t70.5 -32.5z" />
    <glyph glyph-name="uni044F" unicode="&#x44f;" horiz-adv-x="518" 
d="M160 221q-41 16 -63.5 48t-22.5 77q0 51 26.5 90.5t76 62.5t115.5 23q95 0 193 -27l-96 -495h-92l40 207h-92l-154 -207h-112zM172 346q0 -38 25.5 -57.5t75.5 -19.5h76l33 172q-49 7 -81 7q-62 0 -95.5 -26.5t-33.5 -75.5z" />
    <glyph glyph-name="uni0450" unicode="&#x450;" horiz-adv-x="482" 
d="M415 49q-95 -66 -214 -66q-80 0 -124 48t-44 136q0 68 21.5 131.5t61.5 114t97 81t122 30.5q61 0 96.5 -31t35.5 -84q0 -78 -73 -135t-205 -82l-62 -12q0 -65 23 -93.5t76 -28.5q71 0 163 50zM318 450q-43 0 -81.5 -25t-66.5 -72t-38 -108l61 14q87 20 135.5 57t48.5 84
q0 23 -15.5 36.5t-43.5 13.5zM289 601l-95 160h112l62 -160h-79z" />
    <glyph glyph-name="uni0451" unicode="&#x451;" horiz-adv-x="482" 
d="M415 49q-95 -66 -214 -66q-80 0 -124 48t-44 136q0 68 21.5 131.5t61.5 114t97 81t122 30.5q61 0 96.5 -31t35.5 -84q0 -78 -73 -135t-205 -82l-62 -12q0 -65 23 -93.5t76 -28.5q71 0 163 50zM318 450q-43 0 -81.5 -25t-66.5 -72t-38 -108l61 14q87 20 135.5 57t48.5 84
q0 23 -15.5 36.5t-43.5 13.5zM242 594q-52 0 -52 49q0 28 19.5 47t47.5 19q52 0 52 -49q0 -28 -19.5 -47t-47.5 -19zM457 594q-52 0 -52 49q0 28 19.5 47t47.5 19q52 0 52 -49q0 -28 -19.5 -47t-47.5 -19z" />
    <glyph glyph-name="uni0452" unicode="&#x452;" horiz-adv-x="579" 
d="M66 630h87l22 110h96l-22 -110h175l-13 -67h-175l-42 -219q44 51 94 78.5t100 27.5q58 0 90 -44t32 -125q0 -130 -38 -244.5t-106.5 -184.5t-154.5 -70q-34 0 -64 13l13 68q23 -4 47 -4q52 0 98 53.5t76.5 149.5t30.5 203t-60 107q-37 0 -83.5 -30t-91.5 -82l-50 -260
h-96l109 563h-87z" />
    <glyph glyph-name="uni0453" unicode="&#x453;" horiz-adv-x="442" 
d="M181 -15q-77 0 -119 34t-42 96q0 57 38 97.5t118 69.5l54 20q56 21 78 39.5t22 45.5q0 29 -22 44.5t-63 15.5q-64 0 -134 -33l-25 59q80 49 179 49q72 0 114 -34t42 -92q0 -54 -38.5 -94t-118.5 -69l-60 -22q-48 -18 -70 -38.5t-22 -49.5q0 -31 21.5 -46.5t62.5 -15.5
q67 0 149 36l24 -58q-39 -25 -89.5 -39.5t-98.5 -14.5zM207 601l117 160h120l-157 -160h-80z" />
    <glyph glyph-name="uni0454" unicode="&#x454;" horiz-adv-x="459" 
d="M379 225h-247q-2 -14 -2 -41q0 -59 29 -90t84 -31q69 0 146 44l25 -58q-41 -30 -91.5 -47t-101.5 -17q-86 0 -137 51t-51 139q0 91 40.5 170t113 128t160.5 49q67 0 116 -26l-13 -70q-51 18 -99 18q-70 0 -124.5 -41t-79.5 -112h245z" />
    <glyph glyph-name="uni0455" unicode="&#x455;" horiz-adv-x="430" 
d="M165 236q-47 26 -69 56.5t-22 71.5q0 44 23.5 80t67 57t100.5 21q82 0 143 -33l-13 -69q-29 13 -63.5 20t-65.5 7q-47 0 -73 -19.5t-26 -53.5q0 -39 56 -69l60 -34q48 -26 68.5 -54t20.5 -69q0 -74 -54 -118.5t-144 -44.5q-46 0 -91.5 10t-77.5 28l14 70q33 -15 76.5 -24
t80.5 -9q48 0 75 20.5t27 57.5q0 21 -12.5 36t-42.5 31z" />
    <glyph glyph-name="uni0456" unicode="&#x456;" horiz-adv-x="261" 
d="M202 597q-26 0 -40.5 13t-14.5 38q0 29 20.5 49t50.5 20q26 0 40.5 -13t14.5 -38q0 -29 -20.5 -49t-50.5 -20zM35 0l99 507h96l-99 -507h-96z" />
    <glyph glyph-name="uni0457" unicode="&#x457;" horiz-adv-x="261" 
d="M35 0l99 507h96l-99 -507h-96zM94 594q-52 0 -52 49q0 28 19.5 47t47.5 19q52 0 52 -49q0 -28 -19.5 -47t-47.5 -19zM309 594q-52 0 -52 49q0 28 19.5 47t47.5 19q52 0 52 -49q0 -28 -19.5 -47t-47.5 -19z" />
    <glyph glyph-name="uni0458" unicode="&#x458;" horiz-adv-x="261" 
d="M-106 -133q29 -8 56 -8q31 0 48 19t26 66l110 563h96l-110 -563q-31 -162 -147 -162q-55 0 -92 21zM202 597q-26 0 -40.5 13t-14.5 38q0 29 20.5 49t50.5 20q26 0 40.5 -13t14.5 -38q0 -29 -20.5 -49t-50.5 -20z" />
    <glyph glyph-name="uni0459" unicode="&#x459;" horiz-adv-x="803" 
d="M380 122q0 32 8 72l52 252q-24 2 -42 2q-36 0 -59 -14.5t-43.5 -49.5t-45.5 -99l-57 -146q-34 -86 -68 -120t-84 -34q-32 0 -58 12l14 67q9 -2 22 -2q28 0 49 21.5t38 64.5l59 151q36 91 69 138t72.5 66t96.5 19q31 0 70.5 -6t68.5 -15l-39 -194q61 35 122 35
q65 0 104 -38t39 -100q0 -59 -29 -109t-82.5 -80t-121.5 -30q-74 0 -114.5 35.5t-40.5 101.5zM586 267q-46 0 -96 -22l-9 -47q-8 -40 -8 -69q0 -69 71 -69q55 0 90.5 36t35.5 92q0 79 -84 79z" />
    <glyph glyph-name="uni045A" unicode="&#x45a;" horiz-adv-x="769" 
d="M502 -15q-76 0 -117 35.5t-41 101.5q0 34 8 72l5 27h-189l-43 -221h-96l98 507h96l-40 -210h189l42 210h93l-40 -201q64 36 125 36q64 0 103 -38t39 -100q0 -60 -29.5 -109.5t-82.5 -79.5t-120 -30zM553 267q-47 0 -99 -23l-9 -46q-8 -42 -8 -69q0 -35 18 -52t56 -17
q54 0 89.5 36.5t35.5 91.5q0 39 -21 59t-62 20z" />
    <glyph glyph-name="uni045B" unicode="&#x45b;" horiz-adv-x="583" 
d="M368 0l37 190q16 79 16 114q0 68 -69 68q-37 0 -83.5 -30t-91.5 -82l-50 -260h-96l109 563h-87l13 67h87l22 110h96l-22 -110h175l-13 -67h-175l-42 -219q44 51 94 78.5t100 27.5q62 0 96 -34t34 -98q0 -22 -3.5 -46.5t-13.5 -79.5l-37 -192h-96z" />
    <glyph glyph-name="uni045C" unicode="&#x45c;" horiz-adv-x="502" 
d="M31 0l99 507h96l-45 -229l239 229h120l-272 -253l203 -254h-114l-185 231l-45 -231h-96zM279 601l117 160h120l-157 -160h-80z" />
    <glyph glyph-name="uni045D" unicode="&#x45d;" horiz-adv-x="572" 
d="M365 0l6 93q-41 -51 -93 -79.5t-103 -28.5q-59 0 -90.5 33t-31.5 97q0 45 16 128l52 264h96l-51 -262q-15 -75 -15 -118q0 -33 14.5 -47.5t46.5 -14.5q37 0 82.5 29.5t87.5 79.5l65 333h96l-98 -507h-80zM292 601l-95 160h112l62 -160h-79z" />
    <glyph glyph-name="uni045E" unicode="&#x45e;" horiz-adv-x="485" 
d="M-63 -151q72 26 111 54q47 34 101 99l-103 505h101l70 -420q50 87 103.5 201t93.5 219h99q-36 -91 -88 -194.5t-107.5 -198t-100.5 -150.5q-63 -80 -118.5 -123t-118.5 -60zM294 597q-61 0 -99 29t-38 77q0 36 17 64h63q-7 -18 -7 -50q0 -28 19 -42.5t54 -14.5
q39 0 63 19.5t35 60.5l7 27h68q-1 -78 -50 -124t-132 -46z" />
    <glyph glyph-name="uni045F" unicode="&#x45f;" horiz-adv-x="572" 
d="M365 0l6 93q-41 -51 -93 -79.5t-103 -28.5q-59 0 -90.5 33t-31.5 97q0 45 16 128l52 264h96l-51 -262q-15 -75 -15 -118q0 -33 14.5 -47.5t46.5 -14.5q37 0 82.5 29.5t87.5 79.5l65 333h96l-98 -507h-80zM140 -231l48 166h73l-34 -166h-87z" />
    <glyph glyph-name="uni0462" unicode="&#x462;" horiz-adv-x="636" 
d="M74 616h141l23 114h99l-23 -114h212l-15 -78h-212l-28 -144h110q96 0 151 -46.5t55 -127.5q0 -66 -30.5 -115.5t-88 -77t-135.5 -27.5h-237l104 538h-141zM256 317l-46 -240h133q68 0 107 37t39 102q0 49 -30.5 75t-88.5 26h-114z" />
    <glyph glyph-name="uni0463" unicode="&#x463;" horiz-adv-x="768" 
d="M498 -15q-77 0 -118.5 35t-41.5 102q0 30 9 72q11 53 19 88.5t12 59t4 40.5q0 62 -51 62q-26 0 -62.5 -28.5t-75.5 -78.5l-66 -337h-96l99 507h79l-5 -91q38 50 81.5 78t86.5 28q50 0 78.5 -32t28.5 -89q0 -24 -14 -93q63 34 123 34q65 0 105 -38t40 -100
q0 -59 -29.5 -109t-83.5 -80t-122 -30zM549 267q-45 0 -98 -22l-10 -47q-9 -41 -9 -69q0 -35 18.5 -52t57.5 -17q56 0 91.5 36t35.5 92q0 79 -86 79z" />
    <glyph glyph-name="uni0472" unicode="&#x472;" horiz-adv-x="746" 
d="M331 -17q-82 0 -143.5 33t-95.5 96.5t-34 150.5q0 124 47 225t133.5 161t198.5 60q82 0 143.5 -33t95.5 -96.5t34 -150.5q0 -124 -47 -225t-133.5 -161t-198.5 -60zM336 67q62 0 115 29t91 85t54 133h-434q-2 -16 -2 -47q0 -94 46.5 -147t129.5 -53zM432 625
q-92 0 -160.5 -61.5t-96.5 -169.5h432q0 7 0.5 15t0.5 16q0 94 -46.5 147t-129.5 53z" />
    <glyph glyph-name="uni0473" unicode="&#x473;" horiz-adv-x="539" 
d="M225 -15q-89 0 -140.5 54t-51.5 147q0 91 35.5 167.5t100 122.5t145.5 46q89 0 140.5 -54t51.5 -147q0 -91 -35.5 -167.5t-100 -122.5t-145.5 -46zM233 61q61 0 106.5 44t63.5 120h-277q-1 -8 -1 -17v-17q0 -63 28 -96.5t80 -33.5zM306 446q-60 0 -105 -42t-64 -115h276
q1 7 1 13.5v13.5q0 63 -28 96.5t-80 33.5z" />
    <glyph glyph-name="uni0474" unicode="&#x474;" horiz-adv-x="608" 
d="M191 0l-112 693h105l80 -591l233 474q35 71 72.5 98.5t98.5 27.5q32 0 53 -8l-15 -78q-15 2 -31 2q-31 0 -49.5 -13.5t-37.5 -50.5l-288 -554h-109z" />
    <glyph glyph-name="uni0475" unicode="&#x475;" horiz-adv-x="502" 
d="M141 0l-91 507h101l54 -416l160 305q35 68 67 94t79 26q28 0 53 -10l-14 -70q-15 3 -29 3q-22 0 -35.5 -11t-31.5 -43l-216 -385h-97z" />
    <glyph glyph-name="uni0490" unicode="&#x490;" horiz-adv-x="515" 
d="M43 0l135 693h306l27 137h87l-43 -219h-294l-119 -611h-99z" />
    <glyph glyph-name="uni0491" unicode="&#x491;" horiz-adv-x="408" 
d="M31 0l98 507h227l24 126h84l-39 -205h-215l-83 -428h-96z" />
    <glyph glyph-name="Wgrave" unicode="&#x1e80;" horiz-adv-x="903" 
d="M525 0l-26 549l-236 -549h-110l-61 693h104l34 -580l237 560h112l24 -565l257 585h107l-332 -693h-110zM480 769l-104 123h115l75 -123h-86z" />
    <glyph glyph-name="wgrave" unicode="&#x1e81;" horiz-adv-x="741" 
d="M423 0l-30 395l-175 -395h-95l-66 507h100l35 -408l172 408h95l32 -417q112 215 175 417h97q-38 -109 -109 -256.5t-136 -250.5h-95zM364 601l-95 160h112l62 -160h-79z" />
    <glyph glyph-name="Wacute" unicode="&#x1e82;" horiz-adv-x="903" 
d="M525 0l-26 549l-236 -549h-110l-61 693h104l34 -580l237 560h112l24 -565l257 585h107l-332 -693h-110zM572 769h-87l116 123h123z" />
    <glyph glyph-name="wacute" unicode="&#x1e83;" horiz-adv-x="741" 
d="M423 0l-30 395l-175 -395h-95l-66 507h100l35 -408l172 408h95l32 -417q112 215 175 417h97q-38 -109 -109 -256.5t-136 -250.5h-95zM371 601l117 160h120l-157 -160h-80z" />
    <glyph glyph-name="Wdieresis" unicode="&#x1e84;" horiz-adv-x="903" 
d="M525 0l-26 549l-236 -549h-110l-61 693h104l34 -580l237 560h112l24 -565l257 585h107l-332 -693h-110zM443 779q-26 0 -39.5 12.5t-13.5 36.5q0 29 19.5 48t48.5 19q26 0 39.5 -12.5t13.5 -36.5q0 -29 -19.5 -48t-48.5 -19zM634 779q-26 0 -39.5 12.5t-13.5 36.5
q0 29 19.5 48t48.5 19q26 0 39.5 -12.5t13.5 -36.5q0 -29 -19.5 -48t-48.5 -19z" />
    <glyph glyph-name="wdieresis" unicode="&#x1e85;" horiz-adv-x="741" 
d="M423 0l-30 395l-175 -395h-95l-66 507h100l35 -408l172 408h95l32 -417q112 215 175 417h97q-38 -109 -109 -256.5t-136 -250.5h-95zM317 594q-52 0 -52 49q0 28 19.5 47t47.5 19q52 0 52 -49q0 -28 -19.5 -47t-47.5 -19zM532 594q-52 0 -52 49q0 28 19.5 47t47.5 19
q52 0 52 -49q0 -28 -19.5 -47t-47.5 -19z" />
    <glyph glyph-name="uni1E9E" unicode="&#x1e9e;" horiz-adv-x="656" 
d="M227 90q71 -23 130 -23q73 0 117.5 40.5t44.5 108.5q0 50 -31 76t-90 26q-37 0 -72 -5l13 66l191 224q-57 23 -126 23q-79 0 -129.5 -46t-67.5 -134l-87 -446h-99l86 441q25 128 105.5 197.5t205.5 69.5q101 0 201 -56l-13 -74l-167 -193q5 1 9.5 1h9.5q72 0 116 -45.5
t44 -118.5q0 -66 -32.5 -119.5t-93.5 -85.5t-138 -32q-36 0 -74.5 8t-67.5 22z" />
    <glyph glyph-name="Ygrave" unicode="&#x1ef2;" horiz-adv-x="551" 
d="M165 0l50 255l-144 438h104l102 -357l244 357h109l-319 -443l-49 -250h-97zM326 769l-104 123h115l75 -123h-86z" />
    <glyph glyph-name="ygrave" unicode="&#x1ef3;" horiz-adv-x="485" 
d="M-63 -151q72 26 111 54q47 34 101 99l-103 505h101l70 -420q50 87 103.5 201t93.5 219h99q-36 -91 -88 -194.5t-107.5 -198t-100.5 -150.5q-63 -80 -118.5 -123t-118.5 -60zM240 601l-95 160h112l62 -160h-79z" />
    <glyph glyph-name="uni2000" unicode="&#x2000;" horiz-adv-x="500" 
 />
    <glyph glyph-name="uni2001" unicode="&#x2001;" horiz-adv-x="1000" 
 />
    <glyph glyph-name="uni2002" unicode="&#x2002;" horiz-adv-x="500" 
 />
    <glyph glyph-name="uni2003" unicode="&#x2003;" horiz-adv-x="1000" 
 />
    <glyph glyph-name="uni2004" unicode="&#x2004;" horiz-adv-x="333" 
 />
    <glyph glyph-name="uni2005" unicode="&#x2005;" horiz-adv-x="250" 
 />
    <glyph glyph-name="uni2006" unicode="&#x2006;" horiz-adv-x="166" 
 />
    <glyph glyph-name="uni2007" unicode="&#x2007;" 
 />
    <glyph glyph-name="uni2008" unicode="&#x2008;" horiz-adv-x="245" 
 />
    <glyph glyph-name="uni2009" unicode="&#x2009;" horiz-adv-x="200" 
 />
    <glyph glyph-name="uni200A" unicode="&#x200a;" horiz-adv-x="50" 
 />
    <glyph glyph-name="uni200B" unicode="&#x200b;" horiz-adv-x="0" 
 />
    <glyph glyph-name="uni2010" unicode="&#x2010;" horiz-adv-x="395" 
d="M40 218l16 82h307l-16 -82h-307z" />
    <glyph glyph-name="uni2012" unicode="&#x2012;" 
d="M50 310l15 78h500l-15 -78h-500z" />
    <glyph glyph-name="endash" unicode="&#x2013;" horiz-adv-x="500" 
d="M-7 220l15 78h500l-15 -78h-500z" />
    <glyph glyph-name="emdash" unicode="&#x2014;" horiz-adv-x="1000" 
d="M-7 220l15 78h1000l-15 -78h-1000z" />
    <glyph glyph-name="uni2015" unicode="&#x2015;" horiz-adv-x="1000" 
d="M-7 220l15 78h1000l-15 -78h-1000z" />
    <glyph glyph-name="quoteleft" unicode="&#x2018;" horiz-adv-x="245" 
d="M138 440q-25 0 -36 7.5t-11 24.5q0 21 23 60l92 161h69l-92 -253h-45z" />
    <glyph glyph-name="quoteright" unicode="&#x2019;" horiz-adv-x="245" 
d="M228 693q25 0 36 -7.5t11 -24.5q0 -21 -23 -60l-92 -161h-69l92 253h45z" />
    <glyph glyph-name="quotesinglbase" unicode="&#x201a;" horiz-adv-x="245" 
d="M110 107q25 0 36 -7.5t11 -24.5q0 -21 -23 -60l-92 -161h-69l92 253h45z" />
    <glyph glyph-name="uni201B" unicode="&#x201b;" horiz-adv-x="245" 
d="M157 440l-21 159q-5 33 -5 52q0 42 57 42h43l-9 -253h-65z" />
    <glyph glyph-name="quotedblleft" unicode="&#x201c;" horiz-adv-x="424" 
d="M138 440q-25 0 -36 7.5t-11 24.5q0 21 23 60l92 161h69l-92 -253h-45zM317 440q-25 0 -36 7.5t-11 24.5q0 21 23 60l92 161h69l-92 -253h-45z" />
    <glyph glyph-name="quotedblright" unicode="&#x201d;" horiz-adv-x="424" 
d="M228 693q25 0 36 -7.5t11 -24.5q0 -21 -23 -60l-92 -161h-69l92 253h45zM407 693q25 0 36 -7.5t11 -24.5q0 -21 -23 -60l-92 -161h-69l92 253h45z" />
    <glyph glyph-name="quotedblbase" unicode="&#x201e;" horiz-adv-x="424" 
d="M110 107q25 0 36 -7.5t11 -24.5q0 -21 -23 -60l-92 -161h-69l92 253h45zM288 107q25 0 36 -7.5t11 -24.5q0 -21 -23 -60l-92 -161h-69l92 253h45z" />
    <glyph glyph-name="uni201F" unicode="&#x201f;" horiz-adv-x="420" 
d="M157 440l-21 159q-5 33 -5 52q0 42 57 42h43l-9 -253h-65zM332 440l-21 159q-5 33 -5 52q0 42 57 42h43l-9 -253h-65z" />
    <glyph glyph-name="dagger" unicode="&#x2020;" horiz-adv-x="493" 
d="M115 -126l121 576l-175 -7l15 80l173 -7l35 224h101l-53 -224l175 7l-15 -80l-172 7l-104 -576h-101z" />
    <glyph glyph-name="daggerdbl" unicode="&#x2021;" horiz-adv-x="493" 
d="M115 -126l53 224l-175 -7l15 80l172 -7l20 143l36 143l-175 -7l15 80l173 -7l35 224h101l-53 -224l175 7l-15 -80l-172 7l-20 -143l-36 -143l175 7l-15 -80l-173 7l-35 -224h-101z" />
    <glyph glyph-name="bullet" unicode="&#x2022;" horiz-adv-x="360" 
d="M164 123q-56 0 -87.5 31t-31.5 85q0 41 19.5 76t55 57t76.5 22q56 0 87.5 -30.5t31.5 -84.5q0 -41 -19.5 -76t-54.5 -57.5t-77 -22.5z" />
    <glyph glyph-name="ellipsis" unicode="&#x2026;" horiz-adv-x="1000" 
d="M123 -10q-28 0 -43.5 15t-15.5 41q0 31 21.5 53.5t52.5 22.5q28 0 43.5 -15t15.5 -41q0 -31 -21.5 -53.5t-52.5 -22.5zM456 -10q-28 0 -43.5 15t-15.5 41q0 31 21.5 53.5t52.5 22.5q28 0 43.5 -15t15.5 -41q0 -31 -21.5 -53.5t-52.5 -22.5zM789 -10q-28 0 -43.5 15
t-15.5 41q0 31 21.5 53.5t52.5 22.5q28 0 43.5 -15t15.5 -41q0 -31 -21.5 -53.5t-52.5 -22.5z" />
    <glyph glyph-name="perthousand" unicode="&#x2030;" horiz-adv-x="1325" 
d="M220 0l452 693h85l-452 -693h-85zM697 -10q-64 0 -99.5 37.5t-35.5 105.5q0 77 24 137t68.5 95t103.5 35q64 0 99.5 -37.5t35.5 -105.5q0 -77 -24 -137t-68.5 -95t-103.5 -35zM705 50q48 0 79.5 56.5t31.5 143.5q0 44 -17 67t-49 23q-48 0 -79.5 -56.5t-31.5 -143.5
q0 -44 17 -67t49 -23zM1082 -10q-64 0 -99.5 37.5t-35.5 105.5q0 77 24 137t68.5 95t103.5 35q64 0 99.5 -37.5t35.5 -105.5q0 -77 -24 -137t-68.5 -95t-103.5 -35zM1090 50q48 0 79.5 56.5t31.5 143.5q0 44 -17 67t-49 23q-48 0 -79.5 -56.5t-31.5 -143.5q0 -44 17 -67
t49 -23zM219 293q-64 0 -99.5 37.5t-35.5 105.5q0 77 24 137t68.5 95t103.5 35q64 0 99.5 -37.5t35.5 -105.5q0 -77 -24 -137t-68.5 -95t-103.5 -35zM227 353q48 0 79.5 56.5t31.5 143.5q0 44 -17 67t-49 23q-48 0 -79.5 -56.5t-31.5 -143.5q0 -44 17 -67t49 -23z" />
    <glyph glyph-name="minute" unicode="&#x2032;" horiz-adv-x="264" 
d="M88 474l112 218q31 13 59 13q31 0 52 -13l-150 -218h-73z" />
    <glyph glyph-name="second" unicode="&#x2033;" horiz-adv-x="442" 
d="M88 474l112 218q31 13 59 13q31 0 52 -13l-150 -218h-73zM266 474l112 218q31 13 59 13q31 0 52 -13l-150 -218h-73z" />
    <glyph glyph-name="guilsinglleft" unicode="&#x2039;" horiz-adv-x="321" 
d="M146 51l-97 208l174 208h94l-173 -212l90 -204h-88z" />
    <glyph glyph-name="guilsinglright" unicode="&#x203a;" horiz-adv-x="321" 
d="M11 51l174 212l-90 204h88l97 -208l-174 -208h-95z" />
    <glyph glyph-name="uni203D" unicode="&#x203d;" horiz-adv-x="430" 
d="M126 210l40 323q25 14 52 14q21 0 43 -12l-24 -132q123 63 123 145q0 38 -28 58t-80 20q-62 0 -134 -39l-16 71q82 50 171 50q81 0 131.5 -40.5t50.5 -109.5q0 -143 -232 -235l-21 -113h-76zM137 -10q-28 0 -43.5 15t-15.5 41q0 31 21.5 53.5t52.5 22.5q28 0 43.5 -15
t15.5 -41q0 -31 -21.5 -53.5t-52.5 -22.5z" />
    <glyph glyph-name="fraction" unicode="&#x2044;" horiz-adv-x="0" 
d="M-268 0l452 693h85l-452 -693h-85z" />
    <glyph glyph-name="uni2052" unicode="&#x2052;" 
d="M196 613q-30 0 -47 16.5t-17 45.5q0 34 23 58t56 24q30 0 47 -16.5t17 -45.5q0 -34 -23 -58t-56 -24zM-13 -144l502 898h98l-502 -898h-98zM363 -147q-30 0 -47 16.5t-17 45.5q0 34 23 58t56 24q30 0 47 -16.5t17 -45.5q0 -34 -23 -58t-56 -24z" />
    <glyph glyph-name="uni2070" unicode="&#x2070;" horiz-adv-x="410" 
d="M233 380q-64 0 -99.5 37.5t-35.5 105.5q0 77 24 137t68.5 95t103.5 35q64 0 99.5 -37.5t35.5 -105.5q0 -77 -24 -137t-68.5 -95t-103.5 -35zM241 440q48 0 79.5 56.5t31.5 143.5q0 44 -17 67t-49 23q-48 0 -79.5 -56.5t-31.5 -143.5q0 -44 17 -67t49 -23z" />
    <glyph glyph-name="uni2074" unicode="&#x2074;" horiz-adv-x="410" 
d="M352 470l-15 -80h-71l15 80h-198l11 55l245 261h74l-50 -259h61l-11 -57h-61zM292 527l32 165l-156 -165h124z" />
    <glyph glyph-name="uni2075" unicode="&#x2075;" horiz-adv-x="410" 
d="M252 717l-25 -98q23 6 47 6q56 0 86.5 -26.5t30.5 -75.5q0 -62 -48 -102.5t-123 -40.5q-63 0 -119 30l11 58q66 -26 110 -26q43 0 69 20t26 54q0 27 -18.5 40t-58.5 13q-26 0 -94 -6l8 44l44 173h223l-12 -63h-157z" />
    <glyph glyph-name="uni2076" unicode="&#x2076;" horiz-adv-x="410" 
d="M336 729q-53 0 -89.5 -33t-50.5 -92q55 29 104 29q52 0 81.5 -27.5t29.5 -75.5q0 -40 -20.5 -74t-57 -55t-82.5 -21q-63 0 -99.5 39t-36.5 106q0 74 27.5 134t77.5 95.5t115 35.5q53 0 97 -22l-11 -56q-48 17 -85 17zM279 575q-37 0 -90 -22v-21q0 -44 18 -68.5t51 -24.5
q34 0 57 23t23 59q0 54 -59 54z" />
    <glyph glyph-name="uni2077" unicode="&#x2077;" horiz-adv-x="410" 
d="M127 390l221 328h-202l12 62h286l-11 -56l-223 -334h-83z" />
    <glyph glyph-name="uni2078" unicode="&#x2078;" horiz-adv-x="410" 
d="M424 698q0 -34 -24 -62t-69 -47q39 -22 55 -43t16 -48q0 -51 -46.5 -84.5t-118.5 -33.5q-64 0 -101.5 26.5t-37.5 70.5q0 38 26 68.5t75 49.5q-24 17 -35.5 36.5t-11.5 44.5q0 48 42.5 81t103.5 33q57 0 91.5 -25t34.5 -67zM245 568q-73 -30 -73 -80q0 -23 19 -36.5
t53 -13.5q35 0 59 16t24 41q0 16 -11.5 29.5t-39.5 27.5zM224 674q0 -31 48 -54l14 -8q31 14 48.5 34.5t17.5 42.5q0 20 -15 32t-41 12q-31 0 -51.5 -16.5t-20.5 -42.5z" />
    <glyph glyph-name="uni2079" unicode="&#x2079;" horiz-adv-x="410" 
d="M203 440q47 0 80 29t47 81q-42 -23 -88 -23q-55 0 -87.5 31.5t-32.5 85.5q0 62 44 104t111 42q62 0 100 -44t38 -115q0 -67 -26.5 -124t-75.5 -92t-109 -35q-61 0 -106 30l11 55q26 -13 48 -19t46 -6zM263 584q37 0 76 18q1 7 1.5 15t0.5 16q0 46 -18.5 71t-52.5 25
q-32 0 -53 -23.5t-21 -58.5q0 -30 17 -46.5t50 -16.5z" />
    <glyph glyph-name="uni207A" unicode="&#x207a;" horiz-adv-x="410" 
d="M292 554l-21 -109h-69l21 109h-103l12 62h103l21 108h69l-21 -108h103l-12 -62h-103z" />
    <glyph glyph-name="uni207B" unicode="&#x207b;" horiz-adv-x="410" 
d="M120 554l12 62h275l-12 -62h-275z" />
    <glyph glyph-name="uni207C" unicode="&#x207c;" horiz-adv-x="410" 
d="M106 482l12 62h275l-12 -62h-275zM134 626l12 62h275l-12 -62h-275z" />
    <glyph glyph-name="uni207D" unicode="&#x207d;" horiz-adv-x="220" 
d="M137 333q-34 86 -34 176q0 179 131 328h76q-63 -73 -96 -157t-33 -170q0 -47 7.5 -96t20.5 -81h-72z" />
    <glyph glyph-name="uni207E" unicode="&#x207e;" horiz-adv-x="220" 
d="M28 333q63 73 96 157t33 170q0 47 -7.5 96t-20.5 81h72q34 -86 34 -176q0 -179 -131 -328h-76z" />
    <glyph glyph-name="uni207F" unicode="&#x207f;" horiz-adv-x="432" 
d="M325 390l39 202q12 57 12 86q0 23 -12 35t-34 12q-28 0 -61.5 -20t-66.5 -57l-50 -258h-78l76 390h66l-4 -68q34 36 72.5 56t74.5 20q46 0 71.5 -26t25.5 -73q0 -17 -2.5 -33.5t-11.5 -64.5l-39 -201h-78z" />
    <glyph glyph-name="uni2080" unicode="&#x2080;" horiz-adv-x="410" 
d="M147 -114q-64 0 -99.5 37.5t-35.5 105.5q0 77 24 137t68.5 95t103.5 35q64 0 99.5 -37.5t35.5 -105.5q0 -77 -24 -137t-68.5 -95t-103.5 -35zM155 -54q48 0 79.5 56.5t31.5 143.5q0 44 -17 67t-49 23q-48 0 -79.5 -56.5t-31.5 -143.5q0 -44 17 -67t49 -23z" />
    <glyph glyph-name="uni2081" unicode="&#x2081;" horiz-adv-x="410" 
d="M138 -104l60 313l-122 -41l12 62l132 56h71l-76 -390h-77z" />
    <glyph glyph-name="uni2082" unicode="&#x2082;" horiz-adv-x="410" 
d="M9 -104l10 53q93 70 142 113t68.5 71t19.5 52q0 22 -14.5 34.5t-40.5 12.5q-22 0 -48.5 -10.5t-64.5 -34.5l-14 55q72 54 143 54q55 0 86.5 -26.5t31.5 -71.5q0 -48 -45 -100.5t-162 -139.5h179l-12 -62h-279z" />
    <glyph glyph-name="uni2083" unicode="&#x2083;" horiz-adv-x="410" 
d="M22 -30q54 -22 111 -22q46 0 72.5 19.5t26.5 52.5q0 27 -18.5 39t-59.5 12q-20 0 -58 -4l9 41l130 117h-162l12 61h249l-10 -53l-131 -114h9q49 0 77 -25t28 -67q0 -62 -50 -101.5t-124 -39.5q-73 0 -122 26z" />
    <glyph glyph-name="uni2084" unicode="&#x2084;" horiz-adv-x="410" 
d="M266 -24l-15 -80h-71l15 80h-198l11 55l245 261h74l-50 -259h61l-11 -57h-61zM206 33l32 165l-156 -165h124z" />
    <glyph glyph-name="uni2085" unicode="&#x2085;" horiz-adv-x="410" 
d="M166 223l-25 -98q23 6 47 6q56 0 86.5 -26.5t30.5 -75.5q0 -62 -48 -102.5t-123 -40.5q-63 0 -119 30l11 58q66 -26 110 -26q43 0 69 20t26 54q0 27 -18.5 40t-58.5 13q-26 0 -94 -6l8 44l44 173h223l-12 -63h-157z" />
    <glyph glyph-name="uni2086" unicode="&#x2086;" horiz-adv-x="410" 
d="M250 235q-53 0 -89.5 -33t-50.5 -92q55 29 104 29q52 0 81.5 -27.5t29.5 -75.5q0 -40 -20.5 -74t-57 -55t-82.5 -21q-63 0 -99.5 39t-36.5 106q0 74 27.5 134t77.5 95.5t115 35.5q53 0 97 -22l-11 -56q-48 17 -85 17zM193 81q-37 0 -90 -22v-21q0 -44 18 -68.5t51 -24.5
q34 0 57 23t23 59q0 54 -59 54z" />
    <glyph glyph-name="uni2087" unicode="&#x2087;" horiz-adv-x="413" 
d="M41 -104l221 328h-202l12 62h286l-11 -56l-223 -334h-83z" />
    <glyph glyph-name="uni2088" unicode="&#x2088;" horiz-adv-x="410" 
d="M338 204q0 -34 -24 -62t-69 -47q39 -22 55 -43t16 -48q0 -51 -46.5 -84.5t-118.5 -33.5q-64 0 -101.5 26.5t-37.5 70.5q0 38 26 68.5t75 49.5q-24 17 -35.5 36.5t-11.5 44.5q0 48 42.5 81t103.5 33q57 0 91.5 -25t34.5 -67zM159 74q-73 -30 -73 -80q0 -23 19 -36.5
t53 -13.5q35 0 59 16t24 41q0 16 -11.5 29.5t-39.5 27.5zM138 180q0 -31 48 -54l14 -8q31 14 48.5 34.5t17.5 42.5q0 20 -15 32t-41 12q-31 0 -51.5 -16.5t-20.5 -42.5z" />
    <glyph glyph-name="uni2089" unicode="&#x2089;" horiz-adv-x="410" 
d="M117 -54q47 0 80 29t47 81q-42 -23 -88 -23q-55 0 -87.5 31.5t-32.5 85.5q0 62 44 104t111 42q62 0 100 -44t38 -115q0 -67 -26.5 -124t-75.5 -92t-109 -35q-61 0 -106 30l11 55q26 -13 48 -19t46 -6zM177 90q37 0 76 18q1 7 1.5 15t0.5 16q0 46 -18.5 71t-52.5 25
q-32 0 -53 -23.5t-21 -58.5q0 -30 17 -46.5t50 -16.5z" />
    <glyph glyph-name="uni208A" unicode="&#x208a;" horiz-adv-x="410" 
d="M206 60l-21 -109h-69l21 109h-103l12 62h103l21 108h69l-21 -108h103l-12 -62h-103z" />
    <glyph glyph-name="uni208B" unicode="&#x208b;" horiz-adv-x="410" 
d="M34 60l12 62h275l-12 -62h-275z" />
    <glyph glyph-name="uni208C" unicode="&#x208c;" horiz-adv-x="410" 
d="M21 -11l12 62h275l-12 -62h-275zM48 132l12 62h275l-12 -62h-275z" />
    <glyph glyph-name="uni208D" unicode="&#x208d;" horiz-adv-x="220" 
d="M51 -161q-34 86 -34 176q0 179 131 328h76q-63 -73 -96 -157t-33 -170q0 -47 7.5 -96t20.5 -81h-72z" />
    <glyph glyph-name="uni208E" unicode="&#x208e;" horiz-adv-x="220" 
d="M-58 -161q63 73 96 157t33 170q0 47 -7.5 96t-20.5 81h72q34 -86 34 -176q0 -179 -131 -328h-76z" />
    <glyph glyph-name="Euro" unicode="&#x20ac;" 
d="M204 234q7 -79 47 -121t108 -42q79 0 169 51l24 -69q-89 -65 -210 -65q-106 0 -168.5 65t-68.5 181h-81l13 66h69q5 47 15 88h-68l13 66h76q30 74 80.5 130t115.5 87t137 31q79 0 145 -36l-15 -76q-61 29 -124 29q-77 0 -140 -43.5t-99 -121.5h269l-31 -66h-262
q-11 -45 -14 -88h239l-31 -66h-208z" />
    <glyph glyph-name="uni20B9" unicode="&#x20b9;" 
d="M295 0l-204 276l13 67h97q163 0 196 108h-272l14 64h267q-3 108 -146 108h-101l13 70h462l-27 -71h-165q49 -36 51 -107h74l-24 -64h-58q-21 -81 -91.5 -127.5t-174.5 -48.5h-17l213 -275h-120z" />
    <glyph glyph-name="uni20BA" unicode="&#x20ba;" 
d="M223 261l-35 -179h28q113 0 171 46.5t71 147.5l2 17h88l-2 -20q-14 -131 -103.5 -202t-238.5 -71h-124l42 217l-97 -43l13 68l97 43l20 102l-98 -43l13 68l99 43l46 238h92l-38 -193l193 85l-13 -68l-193 -85l-20 -103l194 86l-13 -68z" />
    <glyph glyph-name="uni2105" unicode="&#x2105;" horiz-adv-x="938" 
d="M687 -10q-69 0 -109.5 41.5t-40.5 111.5q0 69 27.5 127.5t78 94t113.5 35.5q69 0 109.5 -41.5t40.5 -111.5q0 -69 -27.5 -127.5t-78 -94t-113.5 -35.5zM694 52q59 0 96 53.5t37 137.5q0 44 -20.5 69.5t-57.5 25.5q-59 0 -96 -53.5t-37 -137.5q0 -44 20.5 -69.5
t57.5 -25.5zM193 294q-65 0 -101.5 37.5t-36.5 103.5q0 69 30.5 130t84.5 99.5t119 38.5q52 0 92 -20l-10 -58q-42 14 -75 14q-44 0 -80 -24.5t-58 -69t-22 -101.5q0 -44 18.5 -64.5t58.5 -20.5q45 0 110 36l21 -51q-31 -24 -70 -37t-81 -13zM203 0l452 693h85l-452 -693
h-85z" />
    <glyph glyph-name="uni2113" unicode="&#x2113;" horiz-adv-x="410" 
d="M30 202l76 54v331q0 78 37 122.5t101 44.5t100 -45t36 -123q0 -103 -46.5 -191.5t-136.5 -156.5v-103q0 -75 62 -75q40 0 92 20v-70q-51 -26 -113 -26t-97 36.5t-35 102.5v51l-76 -52v80zM197 324q46 45 72 113.5t26 145.5q0 96 -49 96q-25 0 -37 -21t-12 -65v-269z" />
    <glyph glyph-name="uni2116" unicode="&#x2116;" horiz-adv-x="1040" 
d="M431 0l-191 567l-110 -567h-87l135 693h103l191 -566l110 566h87l-135 -693h-103zM855 333q-60 0 -95.5 38t-35.5 101q0 64 24 117t67.5 84.5t99.5 31.5q60 0 95.5 -38t35.5 -101q0 -64 -24 -117t-67.5 -84.5t-99.5 -31.5zM862 391q49 0 81 48t32 122q0 41 -17.5 63.5
t-49.5 22.5q-49 0 -81 -48t-32 -122q0 -41 17.5 -63.5t49.5 -22.5zM678 218l11 57h300l-11 -57h-300z" />
    <glyph glyph-name="uni2117" unicode="&#x2117;" horiz-adv-x="774" 
d="M406 -17q-101 0 -183 44.5t-130 127.5t-48 190q0 102 44.5 184t127 130t189.5 48q101 0 183 -44.5t130 -127.5t48 -190q0 -102 -44.5 -184t-127 -130t-189.5 -48zM406 46q83 0 148 36.5t102.5 104.5t37.5 158q0 86 -35 153.5t-100.5 106.5t-152.5 39q-83 0 -148 -36.5
t-102.5 -104.5t-37.5 -158q0 -86 35 -153.5t100.5 -106.5t152.5 -39zM294 147v395h138q60 0 95.5 -35.5t35.5 -93.5t-35.5 -93.5t-95.5 -35.5h-62v-137h-76zM370 343h55q30 0 45.5 18t15.5 51q0 71 -61 71h-55v-140z" />
    <glyph glyph-name="trademark" unicode="&#x2122;" horiz-adv-x="835" 
d="M754 309v272l-89 -177h-70l-89 177v-272h-71v384h82l114 -223l114 223h80v-384h-71zM178 309v322h-120v62h317v-62h-120v-322h-77z" />
    <glyph glyph-name="uni2126" unicode="&#x2126;" horiz-adv-x="730" 
d="M-5 77h152q-41 44 -62.5 104t-21.5 129q0 109 46 199.5t130.5 145t190.5 54.5q124 0 195 -74.5t71 -204.5q0 -107 -49 -200.5t-136 -152.5h153l-13 -77h-281l14 74q98 53 154 146t56 205q0 97 -45 148.5t-128 51.5q-70 0 -128.5 -39t-93 -110t-34.5 -163
q0 -76 24.5 -137.5t70.5 -101.5l-14 -74h-265z" />
    <glyph glyph-name="estimated" unicode="&#x212e;" horiz-adv-x="882" 
d="M773 124q-50 -63 -130.5 -98t-176.5 -35q-115 0 -203.5 46.5t-136 126.5t-47.5 180q0 105 52 187t139.5 126.5t194.5 44.5q115 0 203.5 -46.5t136.5 -126t48 -178.5v-15h-624q-6 0 -6 -6v-196q0 -12 9 -22q84 -96 234 -96q74 0 138 28t107 80h62zM704 358q6 0 6 6v193
q0 15 -9 25q-45 45 -107 70t-129 25q-146 0 -234 -98q-8 -10 -8 -25v-190q0 -6 6 -6h475z" />
    <glyph glyph-name="oneseventh" unicode="&#x2150;" horiz-adv-x="940" 
d="M188 0l452 693h85l-452 -693h-85zM605 0l221 328h-202l12 62h286l-11 -56l-223 -334h-83zM195 303l60 313l-122 -41l12 62l132 56h71l-76 -390h-77z" />
    <glyph glyph-name="oneninth" unicode="&#x2151;" horiz-adv-x="940" 
d="M197 0l452 693h85l-452 -693h-85zM669 50q47 0 80 29t47 81q-42 -23 -88 -23q-55 0 -87.5 31.5t-32.5 85.5q0 62 44 104t111 42q62 0 100 -44t38 -115q0 -67 -26.5 -124t-75.5 -92t-109 -35q-61 0 -106 30l11 55q26 -13 48 -19t46 -6zM729 194q37 0 76 18q1 7 1.5 15
t0.5 16q0 46 -18.5 71t-52.5 25q-32 0 -53 -23.5t-21 -58.5q0 -30 17 -46.5t50 -16.5zM195 303l60 313l-122 -41l12 62l132 56h71l-76 -390h-77z" />
    <glyph glyph-name="onethird" unicode="&#x2153;" horiz-adv-x="940" 
d="M204 0l452 693h85l-452 -693h-85zM580 74q54 -22 111 -22q46 0 72.5 19.5t26.5 52.5q0 27 -18.5 39t-59.5 12q-20 0 -58 -4l9 41l130 117h-162l12 61h249l-10 -53l-131 -114h9q49 0 77 -25t28 -67q0 -62 -50 -101.5t-124 -39.5q-73 0 -122 26zM195 303l60 313l-122 -41
l12 62l132 56h71l-76 -390h-77z" />
    <glyph glyph-name="twothirds" unicode="&#x2154;" horiz-adv-x="940" 
d="M227 0l452 693h85l-452 -693h-85zM580 74q54 -22 111 -22q46 0 72.5 19.5t26.5 52.5q0 27 -18.5 39t-59.5 12q-20 0 -58 -4l9 41l130 117h-162l12 61h249l-10 -53l-131 -114h9q49 0 77 -25t28 -67q0 -62 -50 -101.5t-124 -39.5q-73 0 -122 26zM67 303l10 53
q93 70 142 113t68.5 71t19.5 52q0 22 -14.5 34.5t-40.5 12.5q-22 0 -48.5 -10.5t-64.5 -34.5l-14 55q72 54 143 54q55 0 86.5 -26.5t31.5 -71.5q0 -48 -45 -100.5t-162 -139.5h179l-12 -62h-279z" />
    <glyph glyph-name="onefifth" unicode="&#x2155;" horiz-adv-x="940" 
d="M208 0l452 693h85l-452 -693h-85zM730 327l-25 -98q23 6 47 6q56 0 86.5 -26.5t30.5 -75.5q0 -62 -48 -102.5t-123 -40.5q-63 0 -119 30l11 58q66 -26 110 -26q43 0 69 20t26 54q0 27 -18.5 40t-58.5 13q-26 0 -94 -6l8 44l44 173h223l-12 -63h-157zM195 303l60 313
l-122 -41l12 62l132 56h71l-76 -390h-77z" />
    <glyph glyph-name="twofifths" unicode="&#x2156;" horiz-adv-x="940" 
d="M240 0l452 693h85l-452 -693h-85zM730 327l-25 -98q23 6 47 6q56 0 86.5 -26.5t30.5 -75.5q0 -62 -48 -102.5t-123 -40.5q-63 0 -119 30l11 58q66 -26 110 -26q43 0 69 20t26 54q0 27 -18.5 40t-58.5 13q-26 0 -94 -6l8 44l44 173h223l-12 -63h-157zM67 303l10 53
q93 70 142 113t68.5 71t19.5 52q0 22 -14.5 34.5t-40.5 12.5q-22 0 -48.5 -10.5t-64.5 -34.5l-14 55q72 54 143 54q55 0 86.5 -26.5t31.5 -71.5q0 -48 -45 -100.5t-162 -139.5h179l-12 -62h-279z" />
    <glyph glyph-name="threefifths" unicode="&#x2157;" horiz-adv-x="940" 
d="M227 0l452 693h85l-452 -693h-85zM730 327l-25 -98q23 6 47 6q56 0 86.5 -26.5t30.5 -75.5q0 -62 -48 -102.5t-123 -40.5q-63 0 -119 30l11 58q66 -26 110 -26q43 0 69 20t26 54q0 27 -18.5 40t-58.5 13q-26 0 -94 -6l8 44l44 173h223l-12 -63h-157zM88 377
q54 -22 111 -22q46 0 72.5 19.5t26.5 52.5q0 27 -18.5 39t-59.5 12q-20 0 -58 -4l9 41l130 117h-162l12 61h249l-10 -53l-131 -114h9q49 0 77 -25t28 -67q0 -62 -50 -101.5t-124 -39.5q-73 0 -122 26z" />
    <glyph glyph-name="fourfifths" unicode="&#x2158;" horiz-adv-x="940" 
d="M239 0l452 693h85l-452 -693h-85zM730 327l-25 -98q23 6 47 6q56 0 86.5 -26.5t30.5 -75.5q0 -62 -48 -102.5t-123 -40.5q-63 0 -119 30l11 58q66 -26 110 -26q43 0 69 20t26 54q0 27 -18.5 40t-58.5 13q-26 0 -94 -6l8 44l44 173h223l-12 -63h-157zM329 383l-15 -80h-71
l15 80h-198l11 55l245 261h74l-50 -259h61l-11 -57h-61zM269 440l32 165l-156 -165h124z" />
    <glyph glyph-name="onesixth" unicode="&#x2159;" horiz-adv-x="940" 
d="M206 0l452 693h85l-452 -693h-85zM799 339q-53 0 -89.5 -33t-50.5 -92q55 29 104 29q52 0 81.5 -27.5t29.5 -75.5q0 -40 -20.5 -74t-57 -55t-82.5 -21q-63 0 -99.5 39t-36.5 106q0 74 27.5 134t77.5 95.5t115 35.5q53 0 97 -22l-11 -56q-48 17 -85 17zM742 185
q-37 0 -90 -22v-21q0 -44 18 -68.5t51 -24.5q34 0 57 23t23 59q0 54 -59 54zM195 303l60 313l-122 -41l12 62l132 56h71l-76 -390h-77z" />
    <glyph glyph-name="fivesixths" unicode="&#x215a;" horiz-adv-x="940" 
d="M225 0l452 693h85l-452 -693h-85zM799 339q-53 0 -89.5 -33t-50.5 -92q55 29 104 29q52 0 81.5 -27.5t29.5 -75.5q0 -40 -20.5 -74t-57 -55t-82.5 -21q-63 0 -99.5 39t-36.5 106q0 74 27.5 134t77.5 95.5t115 35.5q53 0 97 -22l-11 -56q-48 17 -85 17zM742 185
q-37 0 -90 -22v-21q0 -44 18 -68.5t51 -24.5q34 0 57 23t23 59q0 54 -59 54zM231 630l-25 -98q23 6 47 6q56 0 86.5 -26.5t30.5 -75.5q0 -62 -48 -102.5t-123 -40.5q-63 0 -119 30l11 58q66 -26 110 -26q43 0 69 20t26 54q0 27 -18.5 40t-58.5 13q-26 0 -94 -6l8 44l44 173
h223l-12 -63h-157z" />
    <glyph glyph-name="oneeighth" unicode="&#x215b;" horiz-adv-x="940" 
d="M205 0l452 693h85l-452 -693h-85zM890 308q0 -34 -24 -62t-69 -47q39 -22 55 -43t16 -48q0 -51 -46.5 -84.5t-118.5 -33.5q-64 0 -101.5 26.5t-37.5 70.5q0 38 26 68.5t75 49.5q-24 17 -35.5 36.5t-11.5 44.5q0 48 42.5 81t103.5 33q57 0 91.5 -25t34.5 -67zM711 178
q-73 -30 -73 -80q0 -23 19 -36.5t53 -13.5q35 0 59 16t24 41q0 16 -11.5 29.5t-39.5 27.5zM690 284q0 -31 48 -54l14 -8q31 14 48.5 34.5t17.5 42.5q0 20 -15 32t-41 12q-31 0 -51.5 -16.5t-20.5 -42.5zM195 303l60 313l-122 -41l12 62l132 56h71l-76 -390h-77z" />
    <glyph glyph-name="threeeighths" unicode="&#x215c;" horiz-adv-x="940" 
d="M224 0l452 693h85l-452 -693h-85zM890 308q0 -34 -24 -62t-69 -47q39 -22 55 -43t16 -48q0 -51 -46.5 -84.5t-118.5 -33.5q-64 0 -101.5 26.5t-37.5 70.5q0 38 26 68.5t75 49.5q-24 17 -35.5 36.5t-11.5 44.5q0 48 42.5 81t103.5 33q57 0 91.5 -25t34.5 -67zM711 178
q-73 -30 -73 -80q0 -23 19 -36.5t53 -13.5q35 0 59 16t24 41q0 16 -11.5 29.5t-39.5 27.5zM690 284q0 -31 48 -54l14 -8q31 14 48.5 34.5t17.5 42.5q0 20 -15 32t-41 12q-31 0 -51.5 -16.5t-20.5 -42.5zM88 377q54 -22 111 -22q46 0 72.5 19.5t26.5 52.5q0 27 -18.5 39
t-59.5 12q-20 0 -58 -4l9 41l130 117h-162l12 61h249l-10 -53l-131 -114h9q49 0 77 -25t28 -67q0 -62 -50 -101.5t-124 -39.5q-73 0 -122 26z" />
    <glyph glyph-name="fiveeighths" unicode="&#x215d;" horiz-adv-x="940" 
d="M223 0l452 693h85l-452 -693h-85zM890 308q0 -34 -24 -62t-69 -47q39 -22 55 -43t16 -48q0 -51 -46.5 -84.5t-118.5 -33.5q-64 0 -101.5 26.5t-37.5 70.5q0 38 26 68.5t75 49.5q-24 17 -35.5 36.5t-11.5 44.5q0 48 42.5 81t103.5 33q57 0 91.5 -25t34.5 -67zM711 178
q-73 -30 -73 -80q0 -23 19 -36.5t53 -13.5q35 0 59 16t24 41q0 16 -11.5 29.5t-39.5 27.5zM690 284q0 -31 48 -54l14 -8q31 14 48.5 34.5t17.5 42.5q0 20 -15 32t-41 12q-31 0 -51.5 -16.5t-20.5 -42.5zM231 630l-25 -98q23 6 47 6q56 0 86.5 -26.5t30.5 -75.5
q0 -62 -48 -102.5t-123 -40.5q-63 0 -119 30l11 58q66 -26 110 -26q43 0 69 20t26 54q0 27 -18.5 40t-58.5 13q-26 0 -94 -6l8 44l44 173h223l-12 -63h-157z" />
    <glyph glyph-name="seveneighths" unicode="&#x215e;" horiz-adv-x="940" 
d="M192 0l452 693h85l-452 -693h-85zM890 308q0 -34 -24 -62t-69 -47q39 -22 55 -43t16 -48q0 -51 -46.5 -84.5t-118.5 -33.5q-64 0 -101.5 26.5t-37.5 70.5q0 38 26 68.5t75 49.5q-24 17 -35.5 36.5t-11.5 44.5q0 48 42.5 81t103.5 33q57 0 91.5 -25t34.5 -67zM711 178
q-73 -30 -73 -80q0 -23 19 -36.5t53 -13.5q35 0 59 16t24 41q0 16 -11.5 29.5t-39.5 27.5zM690 284q0 -31 48 -54l14 -8q31 14 48.5 34.5t17.5 42.5q0 20 -15 32t-41 12q-31 0 -51.5 -16.5t-20.5 -42.5zM106 303l221 328h-202l12 62h286l-11 -56l-223 -334h-83z" />
    <glyph glyph-name="partialdiff" unicode="&#x2202;" 
d="M333 628q-59 0 -136 -40l-15 69q83 51 174 51q105 0 156.5 -61.5t51.5 -186.5q0 -128 -43 -236t-121.5 -173.5t-176.5 -65.5q-91 0 -146 50t-55 132q0 67 32 124t91 92t133 35q53 0 100.5 -19t82.5 -54q10 58 10 111q0 90 -33 131t-105 41zM231 65q69 0 127 58t88 157
q-69 65 -161 65q-75 0 -120 -44.5t-45 -120.5q0 -53 30 -84t81 -31z" />
    <glyph glyph-name="uni2206" unicode="&#x2206;" 
d="M-26 0l17 78l337 615h108l102 -615l-15 -78h-549zM93 78h346l-73 518z" />
    <glyph glyph-name="product" unicode="&#x220f;" 
d="M376 -120l143 736h-314l-143 -736h-96l158 813h506l-158 -813h-96z" />
    <glyph glyph-name="summation" unicode="&#x2211;" 
d="M-35 -120l16 82l276 333l-141 316l16 82h469l-16 -81h-372l147 -325l-272 -326h399l-16 -81h-506z" />
    <glyph glyph-name="minus" unicode="&#x2212;" 
d="M77 309l15 78h451l-15 -78h-451z" />
    <glyph glyph-name="uni2215" unicode="&#x2215;" 
d="M25 0l452 693h85l-452 -693h-85z" />
    <glyph glyph-name="uni2219" unicode="&#x2219;" 
d="M282 256q-28 0 -43.5 15t-15.5 41q0 31 21.5 53.5t52.5 22.5q28 0 43.5 -15t15.5 -41q0 -31 -21.5 -53.5t-52.5 -22.5z" />
    <glyph glyph-name="radical" unicode="&#x221a;" 
d="M167 0l-55 288h-81l14 74h145l45 -280l349 658h93l-400 -740h-110z" />
    <glyph glyph-name="infinity" unicode="&#x221e;" 
d="M197 494q42 0 71.5 -22.5t51.5 -73.5q43 51 80 73.5t81 22.5q49 0 78 -33t29 -87q0 -47 -21.5 -88t-60.5 -66.5t-85 -25.5q-44 0 -73.5 23t-50.5 72q-43 -51 -80 -73t-80 -22q-49 0 -78 33t-29 87q0 47 21.5 88t60.5 66.5t85 25.5zM460 429q-29 0 -55.5 -18.5
t-64.5 -66.5q17 -45 37.5 -65t51.5 -20q35 0 60 30.5t25 72.5q0 30 -15 48.5t-39 18.5zM158 259q30 0 57 19t63 65q-17 46 -38 66t-51 20q-35 0 -60 -30.5t-25 -72.5q0 -30 15 -48.5t39 -18.5z" />
    <glyph glyph-name="integral" unicode="&#x222b;" 
d="M25 -132q33 -9 68 -9q42 0 62 20t30 71l124 637q16 85 59 126t117 41q57 0 93 -21l-13 -65q-33 9 -68 9q-42 0 -62 -20t-30 -71l-124 -637q-16 -85 -59 -126t-117 -41q-57 0 -93 21z" />
    <glyph glyph-name="approxequal" unicode="&#x2248;" 
d="M47 151q1 81 38 126.5t103 45.5q31 0 59.5 -13t61.5 -41q37 -31 54 -40t33 -9q26 0 41 15t22 49l7 33h70q-1 -81 -38 -126.5t-103 -45.5q-31 0 -59.5 13t-61.5 41q-37 31 -54 40t-33 9q-26 0 -41 -15t-22 -49l-7 -33h-70zM90 381q1 81 38 126.5t103 45.5q31 0 59.5 -13
t61.5 -41q37 -31 54 -40t33 -9q26 0 41 15t22 49l7 33h70q-1 -81 -38 -126.5t-103 -45.5q-31 0 -59.5 13t-61.5 41q-37 31 -54 40t-33 9q-26 0 -41 -15t-22 -49l-7 -33h-70z" />
    <glyph glyph-name="notequal" unicode="&#x2260;" 
d="M76 105l75 94h-96l15 78h144l115 143h-231l15 78h279l78 96h82l-79 -96h91l-15 -78h-139l-115 -143h226l-15 -78h-272l-76 -94h-82z" />
    <glyph glyph-name="lessequal" unicode="&#x2264;" 
d="M118 377l15 80l459 192l-18 -93l-358 -142l303 -143l-17 -86zM29 27l15 78h451l-15 -78h-451z" />
    <glyph glyph-name="greaterequal" unicode="&#x2265;" 
d="M553 457l-15 -80l-459 -192l18 93l358 142l-303 143l17 86zM40 27l15 78h451l-15 -78h-451z" />
    <glyph glyph-name="lozenge" unicode="&#x25ca;" 
d="M189 0l-133 346l269 347h94l133 -346l-269 -347h-94zM456 354l-96 259l-208 -274l96 -259z" />
    <glyph glyph-name="uni27E8" unicode="&#x27e8;" horiz-adv-x="327" 
d="M123 -144l-69 455l241 443h93l-243 -449l68 -449h-90z" />
    <glyph glyph-name="uni27E9" unicode="&#x27e9;" horiz-adv-x="327" 
d="M205 754l69 -455l-241 -443h-93l243 449l-68 449h90z" />
    <glyph glyph-name="twosevenths" unicode="&#xf507;" horiz-adv-x="940" 
d="M225 0l452 693h85l-452 -693h-85zM605 0l221 328h-202l12 62h286l-11 -56l-223 -334h-83zM67 303l10 53q93 70 142 113t68.5 71t19.5 52q0 22 -14.5 34.5t-40.5 12.5q-22 0 -48.5 -10.5t-64.5 -34.5l-14 55q72 54 143 54q55 0 86.5 -26.5t31.5 -71.5q0 -48 -45 -100.5
t-162 -139.5h179l-12 -62h-279z" />
    <glyph glyph-name="threesevenths" unicode="&#xf508;" horiz-adv-x="940" 
d="M208 0l452 693h85l-452 -693h-85zM605 0l221 328h-202l12 62h286l-11 -56l-223 -334h-83zM88 377q54 -22 111 -22q46 0 72.5 19.5t26.5 52.5q0 27 -18.5 39t-59.5 12q-20 0 -58 -4l9 41l130 117h-162l12 61h249l-10 -53l-131 -114h9q49 0 77 -25t28 -67q0 -62 -50 -101.5
t-124 -39.5q-73 0 -122 26z" />
    <glyph glyph-name="foursevenths" unicode="&#xf509;" horiz-adv-x="940" 
d="M225 0l452 693h85l-452 -693h-85zM605 0l221 328h-202l12 62h286l-11 -56l-223 -334h-83zM329 383l-15 -80h-71l15 80h-198l11 55l245 261h74l-50 -259h61l-11 -57h-61zM269 440l32 165l-156 -165h124z" />
    <glyph glyph-name="fivesevenths" unicode="&#xf50a;" horiz-adv-x="940" 
d="M210 0l452 693h85l-452 -693h-85zM605 0l221 328h-202l12 62h286l-11 -56l-223 -334h-83zM231 630l-25 -98q23 6 47 6q56 0 86.5 -26.5t30.5 -75.5q0 -62 -48 -102.5t-123 -40.5q-63 0 -119 30l11 58q66 -26 110 -26q43 0 69 20t26 54q0 27 -18.5 40t-58.5 13
q-26 0 -94 -6l8 44l44 173h223l-12 -63h-157z" />
    <glyph glyph-name="sixsevenths" unicode="&#xf50b;" horiz-adv-x="940" 
d="M216 0l452 693h85l-452 -693h-85zM605 0l221 328h-202l12 62h286l-11 -56l-223 -334h-83zM307 642q-53 0 -89.5 -33t-50.5 -92q55 29 104 29q52 0 81.5 -27.5t29.5 -75.5q0 -40 -20.5 -74t-57 -55t-82.5 -21q-63 0 -99.5 39t-36.5 106q0 74 27.5 134t77.5 95.5t115 35.5
q53 0 97 -22l-11 -56q-48 17 -85 17zM250 488q-37 0 -90 -22v-21q0 -44 18 -68.5t51 -24.5q34 0 57 23t23 59q0 54 -59 54z" />
    <glyph glyph-name="twoninths" unicode="&#xf50d;" horiz-adv-x="940" 
d="M223 0l452 693h85l-452 -693h-85zM669 50q47 0 80 29t47 81q-42 -23 -88 -23q-55 0 -87.5 31.5t-32.5 85.5q0 62 44 104t111 42q62 0 100 -44t38 -115q0 -67 -26.5 -124t-75.5 -92t-109 -35q-61 0 -106 30l11 55q26 -13 48 -19t46 -6zM729 194q37 0 76 18q1 7 1.5 15
t0.5 16q0 46 -18.5 71t-52.5 25q-32 0 -53 -23.5t-21 -58.5q0 -30 17 -46.5t50 -16.5zM67 303l10 53q93 70 142 113t68.5 71t19.5 52q0 22 -14.5 34.5t-40.5 12.5q-22 0 -48.5 -10.5t-64.5 -34.5l-14 55q72 54 143 54q55 0 86.5 -26.5t31.5 -71.5q0 -48 -45 -100.5
t-162 -139.5h179l-12 -62h-279z" />
    <glyph glyph-name="fourninths" unicode="&#xf50e;" horiz-adv-x="940" 
d="M235 0l452 693h85l-452 -693h-85zM669 50q47 0 80 29t47 81q-42 -23 -88 -23q-55 0 -87.5 31.5t-32.5 85.5q0 62 44 104t111 42q62 0 100 -44t38 -115q0 -67 -26.5 -124t-75.5 -92t-109 -35q-61 0 -106 30l11 55q26 -13 48 -19t46 -6zM729 194q37 0 76 18q1 7 1.5 15
t0.5 16q0 46 -18.5 71t-52.5 25q-32 0 -53 -23.5t-21 -58.5q0 -30 17 -46.5t50 -16.5zM329 383l-15 -80h-71l15 80h-198l11 55l245 261h74l-50 -259h61l-11 -57h-61zM269 440l32 165l-156 -165h124z" />
    <glyph glyph-name="fiveninths" unicode="&#xf50f;" horiz-adv-x="940" 
d="M213 0l452 693h85l-452 -693h-85zM669 50q47 0 80 29t47 81q-42 -23 -88 -23q-55 0 -87.5 31.5t-32.5 85.5q0 62 44 104t111 42q62 0 100 -44t38 -115q0 -67 -26.5 -124t-75.5 -92t-109 -35q-61 0 -106 30l11 55q26 -13 48 -19t46 -6zM729 194q37 0 76 18q1 7 1.5 15
t0.5 16q0 46 -18.5 71t-52.5 25q-32 0 -53 -23.5t-21 -58.5q0 -30 17 -46.5t50 -16.5zM231 630l-25 -98q23 6 47 6q56 0 86.5 -26.5t30.5 -75.5q0 -62 -48 -102.5t-123 -40.5q-63 0 -119 30l11 58q66 -26 110 -26q43 0 69 20t26 54q0 27 -18.5 40t-58.5 13q-26 0 -94 -6
l8 44l44 173h223l-12 -63h-157z" />
    <glyph glyph-name="sevenninths" unicode="&#xf510;" horiz-adv-x="940" 
d="M181 0l452 693h85l-452 -693h-85zM669 50q47 0 80 29t47 81q-42 -23 -88 -23q-55 0 -87.5 31.5t-32.5 85.5q0 62 44 104t111 42q62 0 100 -44t38 -115q0 -67 -26.5 -124t-75.5 -92t-109 -35q-61 0 -106 30l11 55q26 -13 48 -19t46 -6zM729 194q37 0 76 18q1 7 1.5 15
t0.5 16q0 46 -18.5 71t-52.5 25q-32 0 -53 -23.5t-21 -58.5q0 -30 17 -46.5t50 -16.5zM106 303l221 328h-202l12 62h286l-11 -56l-223 -334h-83z" />
    <glyph glyph-name="eightninths" unicode="&#xf511;" horiz-adv-x="940" 
d="M218 0l452 693h85l-452 -693h-85zM669 50q47 0 80 29t47 81q-42 -23 -88 -23q-55 0 -87.5 31.5t-32.5 85.5q0 62 44 104t111 42q62 0 100 -44t38 -115q0 -67 -26.5 -124t-75.5 -92t-109 -35q-61 0 -106 30l11 55q26 -13 48 -19t46 -6zM729 194q37 0 76 18q1 7 1.5 15
t0.5 16q0 46 -18.5 71t-52.5 25q-32 0 -53 -23.5t-21 -58.5q0 -30 17 -46.5t50 -16.5zM394 611q0 -34 -24 -62t-69 -47q39 -22 55 -43t16 -48q0 -51 -46.5 -84.5t-118.5 -33.5q-64 0 -101.5 26.5t-37.5 70.5q0 38 26 68.5t75 49.5q-24 17 -35.5 36.5t-11.5 44.5
q0 48 42.5 81t103.5 33q57 0 91.5 -25t34.5 -67zM215 481q-73 -30 -73 -80q0 -23 19 -36.5t53 -13.5q35 0 59 16t24 41q0 16 -11.5 29.5t-39.5 27.5zM194 587q0 -31 48 -54l14 -8q31 14 48.5 34.5t17.5 42.5q0 20 -15 32t-41 12q-31 0 -51.5 -16.5t-20.5 -42.5z" />
    <glyph glyph-name="uniFEFF" unicode="&#xfeff;" horiz-adv-x="0" 
 />
    <glyph glyph-name="uniFFFD" unicode="&#xfffd;" horiz-adv-x="1000" 
d="M29 340l471 471l471 -471l-471 -471zM609 456q0 -39 -27 -70t-86 -59l-47 -22l9 -136h78v103q85 38 125 85t40 108q0 74 -47.5 115t-132.5 41q-43 0 -85.5 -12t-79.5 -34v-74q80 42 150 42q103 0 103 -87zM500 -6q25 0 40.5 16t15.5 41t-15.5 41t-40.5 16t-40.5 -16
t-15.5 -41t15.5 -41t40.5 -16z" />
    <glyph glyph-name="zero.pnum" horiz-adv-x="594" 
d="M267 67q57 0 103.5 49t74.5 139t28 204q0 167 -115 167q-57 0 -103.5 -49t-74.5 -139t-28 -204q0 -167 115 -167zM260 -15q-99 0 -152.5 63.5t-53.5 181.5q0 134 38.5 242t109.5 172t163 64q99 0 152.5 -63.5t53.5 -181.5q0 -134 -38.5 -242t-109.5 -172t-163 -64z" />
    <glyph glyph-name="one.pnum" horiz-adv-x="433" 
d="M160 0l114 592l-201 -74l16 82l215 93h87l-134 -693h-97z" />
    <glyph glyph-name="two.pnum" horiz-adv-x="534" 
d="M-5 0l15 76q199 174 275 249.5t103.5 120.5t27.5 85q0 44 -29 68.5t-80 24.5q-44 0 -89.5 -17.5t-101.5 -56.5l-18 70q101 88 227 88q87 0 139.5 -45.5t52.5 -123.5q0 -58 -35.5 -116t-116.5 -135t-238 -206h337l-16 -82h-453z" />
    <glyph glyph-name="three.pnum" horiz-adv-x="517" 
d="M16 107q94 -41 174 -41q78 0 125 41.5t47 111.5q0 53 -36 80.5t-107 27.5q-35 0 -72 -5l13 65l242 226h-287l16 80h398l-15 -77l-244 -223h6q83 0 133.5 -46t50.5 -121q0 -68 -34 -122.5t-97 -86.5t-144 -32q-49 0 -98.5 13t-85.5 35z" />
    <glyph glyph-name="four.pnum" horiz-adv-x="568" 
d="M308 0l29 149h-319l15 77l404 467h93l-90 -465h103l-15 -79h-103l-29 -149h-88zM352 228l66 337l-292 -337h226z" />
    <glyph glyph-name="five.pnum" horiz-adv-x="523" 
d="M27 107q94 -41 175 -41q79 0 128 42.5t49 115.5q0 61 -35.5 89t-112.5 28q-54 0 -138 -11l10 56l75 307h359l-16 -82h-276l-49 -202q48 10 87 10q90 0 142.5 -50.5t52.5 -134.5q0 -71 -34.5 -127t-99.5 -89t-148 -33q-49 0 -98.5 13t-85.5 35z" />
    <glyph glyph-name="six.pnum" horiz-adv-x="569" 
d="M554 599q-70 29 -130 29q-99 0 -166.5 -68.5t-90.5 -190.5q43 23 92 36t92 13q84 0 132.5 -47.5t48.5 -130.5q0 -69 -31.5 -127t-89.5 -93t-132 -35q-104 0 -161 69t-57 195q0 129 44.5 233t126.5 165t189 61q88 0 147 -35zM314 342q-35 0 -76 -10.5t-80 -28.5
q-1 -13 -1 -25.5v-25.5q0 -92 33.5 -139.5t98.5 -47.5q63 0 104.5 46.5t41.5 117.5q0 58 -29.5 85.5t-91.5 27.5z" />
    <glyph glyph-name="seven.pnum" horiz-adv-x="512" 
d="M37 0l392 611h-360l16 82h462l-15 -77l-389 -616h-106z" />
    <glyph glyph-name="eight.pnum" horiz-adv-x="591" 
d="M569 553q0 -66 -41 -117t-118 -79q61 -34 89.5 -75.5t28.5 -95.5q0 -56 -32.5 -101.5t-92.5 -72.5t-137 -27q-105 0 -163 44.5t-58 126.5q0 71 46 126t133 86q-85 55 -85 145q0 52 30 96.5t84.5 71.5t122.5 27q88 0 140.5 -42t52.5 -113zM293 331l-3 -1
q-148 -46 -148 -163q0 -48 36 -76t97 -28q68 0 112.5 34t44.5 84q0 79 -110 135zM233 515q0 -70 88 -113l21 -11l7 3q61 21 93.5 59.5t32.5 86.5q0 44 -29 69t-79 25q-57 0 -95.5 -34t-38.5 -85z" />
    <glyph glyph-name="nine.pnum" horiz-adv-x="572" 
d="M194 66q87 0 148.5 60t86.5 170q-37 -19 -79 -30t-80 -11q-89 0 -141.5 54t-52.5 144q0 70 31 127.5t88 92.5t129 35q103 0 160.5 -70t57.5 -196q0 -132 -42.5 -235.5t-122 -162.5t-185.5 -59q-92 0 -156 45l14 74q79 -38 144 -38zM303 331q65 0 137 32q5 43 5 83
q0 182 -130 182q-39 0 -71 -21t-51 -59t-19 -89q0 -62 33 -95t96 -33z" />
    <glyph glyph-name="florin.crcy" 
d="M76 -218q-58 0 -97 23l13 65q34 -11 72 -11q43 0 63 20t30 71l94 481h-93l12 62l95 12l16 82q33 167 185 167q25 0 52 -6t45 -16l-14 -70q-39 12 -78 12q-41 0 -62.5 -18.5t-29.5 -60.5l-17 -88h156l-14 -76h-157l-94 -482q-16 -85 -59 -126t-118 -41z" />
    <glyph glyph-name="hyphen.case" horiz-adv-x="395" 
d="M54 311l16 82h307l-16 -82h-307z" />
    <glyph glyph-name="endash.case" horiz-adv-x="500" 
d="M11 313l15 78h500l-15 -78h-500z" />
    <glyph glyph-name="emdash.case" horiz-adv-x="1000" 
d="M11 313l15 78h1000l-15 -78h-1000z" />
    <glyph glyph-name="parenleft.case" horiz-adv-x="302" 
d="M124 -113q-31 66 -47.5 147.5t-16.5 165.5q0 157 60.5 307t174.5 278h93q-110 -128 -169 -278.5t-59 -303.5q0 -186 53 -316h-89z" />
    <glyph glyph-name="parenright.case" horiz-adv-x="302" 
d="M213 785q31 -66 47.5 -147.5t16.5 -165.5q0 -157 -60.5 -307t-174.5 -278h-93q110 128 169 278.5t59 303.5q0 186 -53 316h89z" />
    <glyph glyph-name="slash.case" horiz-adv-x="451" 
d="M-51 -113l502 898h99l-502 -898h-99z" />
    <glyph glyph-name="backslash.case" horiz-adv-x="451" 
d="M272 -113l-150 898h92l150 -898h-92z" />
    <glyph glyph-name="bracketleft.case" horiz-adv-x="341" 
d="M7 -113l175 898h243l-15 -78h-144l-145 -742h144l-15 -78h-243z" />
    <glyph glyph-name="bracketright.case" horiz-adv-x="341" 
d="M353 785l-175 -898h-243l15 78h144l145 742h-144l15 78h243z" />
    <glyph glyph-name="braceleft.case" horiz-adv-x="374" 
d="M304 -97q-43 -24 -100 -24q-59 0 -91 30t-32 86q0 20 3 42t15 80l14 68q13 69 13 81q0 24 -14 34.5t-45 10.5h-21l15 78h20q40 0 58.5 16t25.5 54l35 175q15 77 59 118t113 41q49 0 84 -16l-13 -68q-31 7 -55 7q-40 0 -62 -21.5t-31 -69.5l-31 -160q-9 -49 -34 -77
t-70 -39q33 -8 48.5 -27t15.5 -51q0 -14 -16 -97l-14 -68q-16 -79 -16 -101q0 -49 58 -49q30 0 52 8z" />
    <glyph glyph-name="braceright.case" horiz-adv-x="374" 
d="M97 769q43 24 100 24q59 0 91 -30t32 -86q0 -20 -3 -42t-15 -80l-14 -68q-13 -69 -13 -81q0 -24 14 -34.5t45 -10.5h21l-15 -78h-20q-40 0 -58.5 -16t-25.5 -54l-35 -175q-15 -77 -59 -118t-113 -41q-49 0 -84 16l13 68q31 -7 55 -7q40 0 62 21.5t31 69.5l31 160
q9 49 34 76.5t70 38.5q-33 9 -48.5 28t-15.5 51q0 14 16 97l14 68q16 79 16 101q0 49 -58 49q-30 0 -52 -8z" />
    <glyph glyph-name="bullet.case" horiz-adv-x="360" 
d="M180 216q-56 0 -87.5 31t-31.5 85q0 41 19.5 76t55 57t76.5 22q56 0 87.5 -30.5t31.5 -84.5q0 -41 -19.5 -76t-54.5 -57.5t-77 -22.5z" />
    <glyph glyph-name="guilsinglleft.case" horiz-adv-x="321" 
d="M160 144l-97 208l174 208h94l-173 -212l90 -204h-88z" />
    <glyph glyph-name="guilsinglright.case" horiz-adv-x="321" 
d="M25 144l174 212l-90 204h88l97 -208l-174 -208h-95z" />
    <glyph glyph-name="guillemotleft.case" horiz-adv-x="514" 
d="M160 144l-97 208l174 208h94l-173 -212l90 -204h-88zM353 144l-97 208l174 208h94l-173 -212l90 -204h-88z" />
    <glyph glyph-name="guillemotright.case" horiz-adv-x="514" 
d="M25 144l174 212l-90 204h88l97 -208l-174 -208h-95zM218 144l174 212l-90 204h88l97 -208l-174 -208h-95z" />
    </font>
</defs>
</svg>
